G75*
%MOIN*%
%OFA0B0*%
%FSLAX25Y25*%
%IPPOS*%
%LPD*%
%AMOC8*
5,1,8,0,0,1.08239X$1,22.5*
%
%ADD10C,0.00886*%
%ADD11R,0.06299X0.06299*%
%ADD12R,0.04331X0.03937*%
%ADD13C,0.07400*%
%ADD14R,0.04724X0.07874*%
%ADD15R,0.02362X0.05315*%
%ADD16C,0.02500*%
%ADD17C,0.00800*%
%ADD18C,0.02900*%
%ADD19C,0.01000*%
D10*
X0212749Y0097841D02*
X0212749Y0100301D01*
X0213043Y0100301D01*
X0213043Y0097841D01*
X0212749Y0097841D01*
X0212749Y0098726D02*
X0213043Y0098726D01*
X0213043Y0099611D02*
X0212749Y0099611D01*
X0214718Y0100301D02*
X0214718Y0097841D01*
X0214718Y0100301D02*
X0215012Y0100301D01*
X0215012Y0097841D01*
X0214718Y0097841D01*
X0214718Y0098726D02*
X0215012Y0098726D01*
X0215012Y0099611D02*
X0214718Y0099611D01*
X0216686Y0100301D02*
X0216686Y0097841D01*
X0216686Y0100301D02*
X0216980Y0100301D01*
X0216980Y0097841D01*
X0216686Y0097841D01*
X0216686Y0098726D02*
X0216980Y0098726D01*
X0216980Y0099611D02*
X0216686Y0099611D01*
X0218655Y0100301D02*
X0218655Y0097841D01*
X0218655Y0100301D02*
X0218949Y0100301D01*
X0218949Y0097841D01*
X0218655Y0097841D01*
X0218655Y0098726D02*
X0218949Y0098726D01*
X0218949Y0099611D02*
X0218655Y0099611D01*
X0220493Y0102139D02*
X0222953Y0102139D01*
X0222953Y0101845D01*
X0220493Y0101845D01*
X0220493Y0102139D01*
X0220493Y0104108D02*
X0222953Y0104108D01*
X0222953Y0103814D01*
X0220493Y0103814D01*
X0220493Y0104108D01*
X0220493Y0106076D02*
X0222953Y0106076D01*
X0222953Y0105782D01*
X0220493Y0105782D01*
X0220493Y0106076D01*
X0220493Y0108045D02*
X0222953Y0108045D01*
X0222953Y0107751D01*
X0220493Y0107751D01*
X0220493Y0108045D01*
X0218949Y0109668D02*
X0218949Y0112128D01*
X0218949Y0109668D02*
X0218655Y0109668D01*
X0218655Y0112128D01*
X0218949Y0112128D01*
X0218949Y0110553D02*
X0218655Y0110553D01*
X0218655Y0111438D02*
X0218949Y0111438D01*
X0216980Y0112128D02*
X0216980Y0109668D01*
X0216686Y0109668D01*
X0216686Y0112128D01*
X0216980Y0112128D01*
X0216980Y0110553D02*
X0216686Y0110553D01*
X0216686Y0111438D02*
X0216980Y0111438D01*
X0215012Y0112128D02*
X0215012Y0109668D01*
X0214718Y0109668D01*
X0214718Y0112128D01*
X0215012Y0112128D01*
X0215012Y0110553D02*
X0214718Y0110553D01*
X0214718Y0111438D02*
X0215012Y0111438D01*
X0213043Y0112128D02*
X0213043Y0109668D01*
X0212749Y0109668D01*
X0212749Y0112128D01*
X0213043Y0112128D01*
X0213043Y0110553D02*
X0212749Y0110553D01*
X0212749Y0111438D02*
X0213043Y0111438D01*
X0211126Y0107790D02*
X0208666Y0107790D01*
X0208666Y0108084D01*
X0211126Y0108084D01*
X0211126Y0107790D01*
X0211126Y0105822D02*
X0208666Y0105822D01*
X0208666Y0106116D01*
X0211126Y0106116D01*
X0211126Y0105822D01*
X0211126Y0103853D02*
X0208666Y0103853D01*
X0208666Y0104147D01*
X0211126Y0104147D01*
X0211126Y0103853D01*
X0211126Y0101884D02*
X0208666Y0101884D01*
X0208666Y0102178D01*
X0211126Y0102178D01*
X0211126Y0101884D01*
D11*
X0215833Y0105000D03*
D12*
X0204180Y0120000D03*
X0197487Y0120000D03*
X0227487Y0120000D03*
X0234180Y0120000D03*
X0234180Y0089000D03*
X0227487Y0089000D03*
X0204180Y0089000D03*
X0197487Y0089000D03*
D13*
X0170833Y0085000D03*
X0170833Y0075000D03*
X0170833Y0095000D03*
X0170833Y0105000D03*
X0170833Y0115000D03*
X0170833Y0125000D03*
X0260833Y0125000D03*
X0260833Y0115000D03*
X0260833Y0105000D03*
X0260833Y0095000D03*
X0260833Y0085000D03*
X0260833Y0075000D03*
D14*
X0226857Y0060531D03*
X0204810Y0060531D03*
X0204810Y0149469D03*
X0226857Y0149469D03*
D15*
X0221739Y0135000D03*
X0217802Y0135000D03*
X0213865Y0135000D03*
X0209928Y0135000D03*
X0209928Y0075000D03*
X0213865Y0075000D03*
X0217802Y0075000D03*
X0221739Y0075000D03*
D16*
X0170833Y0060000D03*
X0260833Y0135000D03*
D17*
X0167833Y0070876D02*
X0167833Y0057000D01*
X0200848Y0057000D01*
X0200848Y0065131D01*
X0201785Y0066068D01*
X0207835Y0066068D01*
X0208772Y0065131D01*
X0208772Y0057000D01*
X0222895Y0057000D01*
X0222895Y0065131D01*
X0223832Y0066068D01*
X0229882Y0066068D01*
X0230819Y0065131D01*
X0230819Y0057000D01*
X0263833Y0057000D01*
X0263833Y0070876D01*
X0263506Y0070638D01*
X0262791Y0070274D01*
X0262028Y0070026D01*
X0261235Y0069900D01*
X0261233Y0069900D01*
X0261233Y0074600D01*
X0260433Y0074600D01*
X0255733Y0074600D01*
X0255733Y0074599D01*
X0255859Y0073806D01*
X0256107Y0073042D01*
X0256471Y0072327D01*
X0256943Y0071678D01*
X0257511Y0071110D01*
X0258160Y0070638D01*
X0258876Y0070274D01*
X0259639Y0070026D01*
X0260432Y0069900D01*
X0260433Y0069900D01*
X0260433Y0074600D01*
X0260433Y0075400D01*
X0255733Y0075400D01*
X0255733Y0075401D01*
X0255859Y0076194D01*
X0256107Y0076958D01*
X0256471Y0077673D01*
X0256943Y0078322D01*
X0257511Y0078890D01*
X0258160Y0079362D01*
X0258876Y0079726D01*
X0259346Y0079879D01*
X0257831Y0080507D01*
X0256340Y0081998D01*
X0255533Y0083946D01*
X0255533Y0086054D01*
X0256011Y0087208D01*
X0251933Y0083130D01*
X0250703Y0081900D01*
X0246047Y0081900D01*
X0245561Y0081414D01*
X0244440Y0080950D01*
X0243227Y0080950D01*
X0242106Y0081414D01*
X0241248Y0082272D01*
X0240904Y0083101D01*
X0239703Y0081900D01*
X0224203Y0081900D01*
X0223933Y0081630D01*
X0223933Y0078907D01*
X0224520Y0078320D01*
X0224520Y0071680D01*
X0223583Y0070743D01*
X0219895Y0070743D01*
X0219770Y0070867D01*
X0219646Y0070743D01*
X0215958Y0070743D01*
X0215833Y0070867D01*
X0215709Y0070743D01*
X0212021Y0070743D01*
X0211698Y0071066D01*
X0211649Y0071038D01*
X0211293Y0070943D01*
X0210118Y0070943D01*
X0210118Y0074809D01*
X0209737Y0074809D01*
X0209737Y0070943D01*
X0208562Y0070943D01*
X0208206Y0071038D01*
X0207887Y0071222D01*
X0207626Y0071483D01*
X0207442Y0071802D01*
X0207347Y0072158D01*
X0207347Y0074809D01*
X0209737Y0074809D01*
X0209737Y0075191D01*
X0209737Y0079057D01*
X0208562Y0079057D01*
X0208206Y0078962D01*
X0207887Y0078778D01*
X0207626Y0078517D01*
X0207442Y0078198D01*
X0207347Y0077842D01*
X0207347Y0075191D01*
X0209737Y0075191D01*
X0210118Y0075191D01*
X0210118Y0079057D01*
X0211293Y0079057D01*
X0211649Y0078962D01*
X0211698Y0078934D01*
X0211765Y0079001D01*
X0211765Y0081099D01*
X0209963Y0082900D01*
X0192547Y0082900D01*
X0192061Y0082414D01*
X0190940Y0081950D01*
X0189727Y0081950D01*
X0188606Y0082414D01*
X0188120Y0082900D01*
X0175700Y0082900D01*
X0175326Y0081998D01*
X0173836Y0080507D01*
X0172320Y0079879D01*
X0172791Y0079726D01*
X0173506Y0079362D01*
X0174156Y0078890D01*
X0174723Y0078322D01*
X0175195Y0077673D01*
X0175560Y0076958D01*
X0175808Y0076194D01*
X0175933Y0075401D01*
X0175933Y0075400D01*
X0171233Y0075400D01*
X0171233Y0074600D01*
X0171233Y0069900D01*
X0171235Y0069900D01*
X0172028Y0070026D01*
X0172791Y0070274D01*
X0173506Y0070638D01*
X0174156Y0071110D01*
X0174723Y0071678D01*
X0175195Y0072327D01*
X0175560Y0073042D01*
X0175808Y0073806D01*
X0175933Y0074599D01*
X0175933Y0074600D01*
X0171233Y0074600D01*
X0170433Y0074600D01*
X0170433Y0069900D01*
X0170432Y0069900D01*
X0169639Y0070026D01*
X0168876Y0070274D01*
X0168160Y0070638D01*
X0167833Y0070876D01*
X0167833Y0070172D02*
X0169189Y0070172D01*
X0170433Y0070172D02*
X0171233Y0070172D01*
X0171233Y0070970D02*
X0170433Y0070970D01*
X0170433Y0071769D02*
X0171233Y0071769D01*
X0171233Y0072567D02*
X0170433Y0072567D01*
X0170433Y0073366D02*
X0171233Y0073366D01*
X0171233Y0074164D02*
X0170433Y0074164D01*
X0171233Y0074963D02*
X0209737Y0074963D01*
X0209737Y0075761D02*
X0210118Y0075761D01*
X0210118Y0076560D02*
X0209737Y0076560D01*
X0209737Y0077358D02*
X0210118Y0077358D01*
X0210118Y0078157D02*
X0209737Y0078157D01*
X0209737Y0078955D02*
X0210118Y0078955D01*
X0211661Y0078955D02*
X0211719Y0078955D01*
X0211765Y0079754D02*
X0172706Y0079754D01*
X0173881Y0080552D02*
X0211765Y0080552D01*
X0211513Y0081351D02*
X0174680Y0081351D01*
X0175389Y0082149D02*
X0189245Y0082149D01*
X0191421Y0082149D02*
X0210714Y0082149D01*
X0213460Y0085343D02*
X0221707Y0085343D01*
X0221233Y0084870D02*
X0221233Y0084870D01*
X0222463Y0086100D01*
X0224273Y0086100D01*
X0224201Y0086172D01*
X0224017Y0086491D01*
X0223922Y0086847D01*
X0223922Y0088600D01*
X0227087Y0088600D01*
X0227087Y0089400D01*
X0227087Y0092368D01*
X0225373Y0092368D01*
X0225383Y0092393D01*
X0225383Y0093607D01*
X0224919Y0094728D01*
X0224061Y0095586D01*
X0222940Y0096050D01*
X0221727Y0096050D01*
X0221392Y0095911D01*
X0220902Y0096401D01*
X0220902Y0096904D01*
X0220992Y0096994D01*
X0220992Y0100002D01*
X0221723Y0100002D01*
X0221723Y0101770D01*
X0221723Y0101770D01*
X0221723Y0100002D01*
X0223196Y0100002D01*
X0223665Y0100127D01*
X0224085Y0100370D01*
X0224428Y0100713D01*
X0224671Y0101133D01*
X0224796Y0101602D01*
X0224796Y0101992D01*
X0224022Y0101992D01*
X0224796Y0101992D01*
X0224796Y0102382D01*
X0224715Y0102686D01*
X0224996Y0102967D01*
X0224996Y0103829D01*
X0229034Y0103829D01*
X0231215Y0101649D01*
X0230783Y0100607D01*
X0230783Y0099393D01*
X0231248Y0098272D01*
X0231733Y0097787D01*
X0231733Y0092568D01*
X0231352Y0092568D01*
X0230692Y0091909D01*
X0230512Y0092089D01*
X0230193Y0092273D01*
X0229837Y0092368D01*
X0227887Y0092368D01*
X0227887Y0089400D01*
X0227087Y0089400D01*
X0223922Y0089400D01*
X0223922Y0090357D01*
X0222940Y0089950D01*
X0221727Y0089950D01*
X0220606Y0090414D01*
X0219748Y0091272D01*
X0219505Y0091859D01*
X0219233Y0092130D01*
X0217932Y0093431D01*
X0217583Y0093780D01*
X0216933Y0093130D01*
X0215703Y0091900D01*
X0208047Y0091900D01*
X0207651Y0091504D01*
X0207745Y0091153D01*
X0207745Y0089400D01*
X0204580Y0089400D01*
X0204580Y0088600D01*
X0207745Y0088600D01*
X0207745Y0087100D01*
X0211703Y0087100D01*
X0212933Y0085870D01*
X0212933Y0085870D01*
X0215662Y0083142D01*
X0216106Y0083586D01*
X0217227Y0084050D01*
X0218440Y0084050D01*
X0219561Y0083586D01*
X0219755Y0083392D01*
X0220963Y0084600D01*
X0220963Y0084600D01*
X0221233Y0084870D01*
X0220908Y0084545D02*
X0214258Y0084545D01*
X0215057Y0083746D02*
X0216494Y0083746D01*
X0219173Y0083746D02*
X0220110Y0083746D01*
X0223933Y0081351D02*
X0242259Y0081351D01*
X0241371Y0082149D02*
X0239953Y0082149D01*
X0240751Y0082948D02*
X0240968Y0082948D01*
X0245408Y0081351D02*
X0256987Y0081351D01*
X0256277Y0082149D02*
X0250953Y0082149D01*
X0251751Y0082948D02*
X0255947Y0082948D01*
X0255616Y0083746D02*
X0252550Y0083746D01*
X0253348Y0084545D02*
X0255533Y0084545D01*
X0255533Y0085343D02*
X0254147Y0085343D01*
X0254945Y0086142D02*
X0255570Y0086142D01*
X0255744Y0086940D02*
X0255900Y0086940D01*
X0257786Y0080552D02*
X0223933Y0080552D01*
X0223933Y0079754D02*
X0258960Y0079754D01*
X0257601Y0078955D02*
X0223933Y0078955D01*
X0224520Y0078157D02*
X0256823Y0078157D01*
X0256311Y0077358D02*
X0224520Y0077358D01*
X0224520Y0076560D02*
X0255978Y0076560D01*
X0255790Y0075761D02*
X0224520Y0075761D01*
X0224520Y0074963D02*
X0260433Y0074963D01*
X0260433Y0074164D02*
X0261233Y0074164D01*
X0261233Y0073366D02*
X0260433Y0073366D01*
X0260433Y0072567D02*
X0261233Y0072567D01*
X0261233Y0071769D02*
X0260433Y0071769D01*
X0260433Y0070970D02*
X0261233Y0070970D01*
X0261233Y0070172D02*
X0260433Y0070172D01*
X0259189Y0070172D02*
X0172477Y0070172D01*
X0173963Y0070970D02*
X0208459Y0070970D01*
X0207461Y0071769D02*
X0174790Y0071769D01*
X0175318Y0072567D02*
X0207347Y0072567D01*
X0207347Y0073366D02*
X0175665Y0073366D01*
X0175865Y0074164D02*
X0207347Y0074164D01*
X0207347Y0075761D02*
X0175876Y0075761D01*
X0175689Y0076560D02*
X0207347Y0076560D01*
X0207347Y0077358D02*
X0175356Y0077358D01*
X0174844Y0078157D02*
X0207431Y0078157D01*
X0208195Y0078955D02*
X0174066Y0078955D01*
X0167833Y0069373D02*
X0263833Y0069373D01*
X0263833Y0068575D02*
X0167833Y0068575D01*
X0167833Y0067776D02*
X0263833Y0067776D01*
X0263833Y0066978D02*
X0167833Y0066978D01*
X0167833Y0066179D02*
X0263833Y0066179D01*
X0263833Y0065381D02*
X0230570Y0065381D01*
X0230819Y0064582D02*
X0263833Y0064582D01*
X0263833Y0063784D02*
X0230819Y0063784D01*
X0230819Y0062985D02*
X0263833Y0062985D01*
X0263833Y0062187D02*
X0230819Y0062187D01*
X0230819Y0061388D02*
X0263833Y0061388D01*
X0263833Y0060590D02*
X0230819Y0060590D01*
X0230819Y0059791D02*
X0263833Y0059791D01*
X0263833Y0058993D02*
X0230819Y0058993D01*
X0230819Y0058194D02*
X0263833Y0058194D01*
X0263833Y0057396D02*
X0230819Y0057396D01*
X0222895Y0057396D02*
X0208772Y0057396D01*
X0208772Y0058194D02*
X0222895Y0058194D01*
X0222895Y0058993D02*
X0208772Y0058993D01*
X0208772Y0059791D02*
X0222895Y0059791D01*
X0222895Y0060590D02*
X0208772Y0060590D01*
X0208772Y0061388D02*
X0222895Y0061388D01*
X0222895Y0062187D02*
X0208772Y0062187D01*
X0208772Y0062985D02*
X0222895Y0062985D01*
X0222895Y0063784D02*
X0208772Y0063784D01*
X0208772Y0064582D02*
X0222895Y0064582D01*
X0223144Y0065381D02*
X0208522Y0065381D01*
X0201097Y0065381D02*
X0167833Y0065381D01*
X0167833Y0064582D02*
X0200848Y0064582D01*
X0200848Y0063784D02*
X0167833Y0063784D01*
X0167833Y0062985D02*
X0200848Y0062985D01*
X0200848Y0062187D02*
X0172677Y0062187D01*
X0172448Y0062416D02*
X0171400Y0062850D01*
X0170266Y0062850D01*
X0169219Y0062416D01*
X0168417Y0061614D01*
X0167983Y0060567D01*
X0167983Y0059433D01*
X0168417Y0058386D01*
X0169219Y0057584D01*
X0170266Y0057150D01*
X0171400Y0057150D01*
X0172448Y0057584D01*
X0173249Y0058386D01*
X0173683Y0059433D01*
X0173683Y0060567D01*
X0173249Y0061614D01*
X0172448Y0062416D01*
X0173343Y0061388D02*
X0200848Y0061388D01*
X0200848Y0060590D02*
X0173674Y0060590D01*
X0173683Y0059791D02*
X0200848Y0059791D01*
X0200848Y0058993D02*
X0173501Y0058993D01*
X0173058Y0058194D02*
X0200848Y0058194D01*
X0200848Y0057396D02*
X0171993Y0057396D01*
X0169674Y0057396D02*
X0167833Y0057396D01*
X0167833Y0058194D02*
X0168609Y0058194D01*
X0168166Y0058993D02*
X0167833Y0058993D01*
X0167833Y0059791D02*
X0167983Y0059791D01*
X0167993Y0060590D02*
X0167833Y0060590D01*
X0167833Y0061388D02*
X0168323Y0061388D01*
X0167833Y0062187D02*
X0168989Y0062187D01*
X0209737Y0070970D02*
X0210118Y0070970D01*
X0210118Y0071769D02*
X0209737Y0071769D01*
X0209737Y0072567D02*
X0210118Y0072567D01*
X0210118Y0073366D02*
X0209737Y0073366D01*
X0209737Y0074164D02*
X0210118Y0074164D01*
X0211397Y0070970D02*
X0211793Y0070970D01*
X0223810Y0070970D02*
X0257703Y0070970D01*
X0256877Y0071769D02*
X0224520Y0071769D01*
X0224520Y0072567D02*
X0256349Y0072567D01*
X0256002Y0073366D02*
X0224520Y0073366D01*
X0224520Y0074164D02*
X0255802Y0074164D01*
X0262477Y0070172D02*
X0263833Y0070172D01*
X0227887Y0090134D02*
X0227087Y0090134D01*
X0227087Y0089336D02*
X0204580Y0089336D01*
X0207745Y0090134D02*
X0221281Y0090134D01*
X0220087Y0090933D02*
X0207745Y0090933D01*
X0207878Y0091732D02*
X0219557Y0091732D01*
X0218833Y0092530D02*
X0216333Y0092530D01*
X0217132Y0093329D02*
X0218035Y0093329D01*
X0220902Y0096523D02*
X0231733Y0096523D01*
X0231733Y0097321D02*
X0220992Y0097321D01*
X0220992Y0098120D02*
X0231400Y0098120D01*
X0230980Y0098918D02*
X0220992Y0098918D01*
X0220992Y0099717D02*
X0230783Y0099717D01*
X0230783Y0100515D02*
X0224230Y0100515D01*
X0224719Y0101314D02*
X0231076Y0101314D01*
X0230751Y0102112D02*
X0224796Y0102112D01*
X0224022Y0101992D02*
X0224022Y0101992D01*
X0224940Y0102911D02*
X0229953Y0102911D01*
X0229154Y0103709D02*
X0224996Y0103709D01*
X0221723Y0101314D02*
X0221723Y0101314D01*
X0221723Y0100515D02*
X0221723Y0100515D01*
X0223727Y0095724D02*
X0231733Y0095724D01*
X0231733Y0094926D02*
X0224721Y0094926D01*
X0225168Y0094127D02*
X0231733Y0094127D01*
X0231733Y0093329D02*
X0225383Y0093329D01*
X0225383Y0092530D02*
X0231313Y0092530D01*
X0227887Y0091732D02*
X0227087Y0091732D01*
X0227087Y0090933D02*
X0227887Y0090933D01*
X0223922Y0090134D02*
X0223385Y0090134D01*
X0223922Y0088537D02*
X0207745Y0088537D01*
X0207745Y0087739D02*
X0223922Y0087739D01*
X0223922Y0086940D02*
X0211863Y0086940D01*
X0212661Y0086142D02*
X0224231Y0086142D01*
X0236703Y0107100D02*
X0236280Y0107523D01*
X0236280Y0116431D01*
X0237008Y0116431D01*
X0237945Y0117369D01*
X0237945Y0122631D01*
X0237008Y0123568D01*
X0235933Y0123568D01*
X0235933Y0124370D01*
X0233433Y0126870D01*
X0232903Y0127400D01*
X0235463Y0127400D01*
X0239733Y0123130D01*
X0239733Y0113213D01*
X0239248Y0112728D01*
X0238783Y0111607D01*
X0238783Y0110393D01*
X0239248Y0109272D01*
X0240106Y0108414D01*
X0241227Y0107950D01*
X0242440Y0107950D01*
X0243561Y0108414D01*
X0244419Y0109272D01*
X0244883Y0110393D01*
X0244883Y0111607D01*
X0244419Y0112728D01*
X0243933Y0113213D01*
X0243933Y0124870D01*
X0242703Y0126100D01*
X0237203Y0131600D01*
X0224108Y0131600D01*
X0224225Y0131802D01*
X0224320Y0132158D01*
X0224320Y0134809D01*
X0221929Y0134809D01*
X0221929Y0135191D01*
X0224320Y0135191D01*
X0224320Y0137326D01*
X0225227Y0136950D01*
X0226440Y0136950D01*
X0227561Y0137414D01*
X0228419Y0138272D01*
X0228883Y0139393D01*
X0228883Y0140607D01*
X0228419Y0141728D01*
X0227561Y0142586D01*
X0226440Y0143050D01*
X0225227Y0143050D01*
X0224106Y0142586D01*
X0223620Y0142100D01*
X0218963Y0142100D01*
X0217733Y0140870D01*
X0216121Y0139257D01*
X0215958Y0139257D01*
X0215833Y0139133D01*
X0215709Y0139257D01*
X0212021Y0139257D01*
X0211896Y0139133D01*
X0211772Y0139257D01*
X0208084Y0139257D01*
X0207147Y0138320D01*
X0207147Y0131680D01*
X0207828Y0130999D01*
X0207828Y0128036D01*
X0211963Y0123900D01*
X0212765Y0123900D01*
X0212765Y0119100D01*
X0211047Y0119100D01*
X0210561Y0119586D01*
X0209440Y0120050D01*
X0208227Y0120050D01*
X0207945Y0119933D01*
X0207945Y0122631D01*
X0207008Y0123568D01*
X0205933Y0123568D01*
X0205933Y0130787D01*
X0206419Y0131272D01*
X0206883Y0132393D01*
X0206883Y0133607D01*
X0206419Y0134728D01*
X0205561Y0135586D01*
X0204440Y0136050D01*
X0203227Y0136050D01*
X0202106Y0135586D01*
X0201248Y0134728D01*
X0200783Y0133607D01*
X0200783Y0132393D01*
X0201248Y0131272D01*
X0201733Y0130787D01*
X0201733Y0123568D01*
X0201352Y0123568D01*
X0200833Y0123050D01*
X0200315Y0123568D01*
X0194659Y0123568D01*
X0194433Y0123343D01*
X0194433Y0126787D01*
X0194919Y0127272D01*
X0195383Y0128393D01*
X0195383Y0129607D01*
X0194919Y0130728D01*
X0194061Y0131586D01*
X0192940Y0132050D01*
X0191727Y0132050D01*
X0190606Y0131586D01*
X0189748Y0130728D01*
X0189283Y0129607D01*
X0189283Y0128393D01*
X0189748Y0127272D01*
X0190233Y0126787D01*
X0190233Y0117100D01*
X0175700Y0117100D01*
X0175326Y0118002D01*
X0173836Y0119493D01*
X0172612Y0120000D01*
X0173836Y0120507D01*
X0175326Y0121998D01*
X0176133Y0123946D01*
X0176133Y0126054D01*
X0175326Y0128002D01*
X0173836Y0129493D01*
X0171888Y0130300D01*
X0169779Y0130300D01*
X0167833Y0129494D01*
X0167833Y0140256D01*
X0168599Y0138930D01*
X0171112Y0136822D01*
X0174193Y0135700D01*
X0177473Y0135700D01*
X0180555Y0136822D01*
X0183067Y0138930D01*
X0183067Y0138930D01*
X0184707Y0141770D01*
X0184707Y0141770D01*
X0185277Y0145000D01*
X0184707Y0148230D01*
X0183067Y0151070D01*
X0180767Y0153000D01*
X0200848Y0153000D01*
X0200848Y0144869D01*
X0201785Y0143931D01*
X0207835Y0143931D01*
X0208772Y0144869D01*
X0208772Y0153000D01*
X0222895Y0153000D01*
X0222895Y0144869D01*
X0223832Y0143931D01*
X0229882Y0143931D01*
X0230819Y0144869D01*
X0230819Y0153000D01*
X0250899Y0153000D01*
X0248599Y0151070D01*
X0246959Y0148230D01*
X0246390Y0145000D01*
X0246959Y0141770D01*
X0248599Y0138930D01*
X0251112Y0136822D01*
X0254193Y0135700D01*
X0257473Y0135700D01*
X0258139Y0135942D01*
X0257983Y0135567D01*
X0257983Y0134433D01*
X0258417Y0133386D01*
X0259219Y0132584D01*
X0260266Y0132150D01*
X0261400Y0132150D01*
X0262448Y0132584D01*
X0263249Y0133386D01*
X0263683Y0134433D01*
X0263683Y0135567D01*
X0263249Y0136614D01*
X0262448Y0137416D01*
X0261655Y0137745D01*
X0263067Y0138930D01*
X0263833Y0140256D01*
X0263833Y0129494D01*
X0261888Y0130300D01*
X0259779Y0130300D01*
X0257831Y0129493D01*
X0256340Y0128002D01*
X0255533Y0126054D01*
X0255533Y0123946D01*
X0256340Y0121998D01*
X0257831Y0120507D01*
X0259055Y0120000D01*
X0257831Y0119493D01*
X0256340Y0118002D01*
X0255533Y0116054D01*
X0255533Y0113946D01*
X0256340Y0111998D01*
X0257831Y0110507D01*
X0259055Y0110000D01*
X0257831Y0109493D01*
X0256340Y0108002D01*
X0255966Y0107100D01*
X0236703Y0107100D01*
X0236280Y0107702D02*
X0256216Y0107702D01*
X0256838Y0108500D02*
X0243647Y0108500D01*
X0244430Y0109299D02*
X0257637Y0109299D01*
X0258820Y0110097D02*
X0244761Y0110097D01*
X0244883Y0110896D02*
X0257442Y0110896D01*
X0256644Y0111694D02*
X0244847Y0111694D01*
X0244516Y0112493D02*
X0256135Y0112493D01*
X0255804Y0113291D02*
X0243933Y0113291D01*
X0243933Y0114090D02*
X0255533Y0114090D01*
X0255533Y0114888D02*
X0243933Y0114888D01*
X0243933Y0115687D02*
X0255533Y0115687D01*
X0255712Y0116485D02*
X0243933Y0116485D01*
X0243933Y0117284D02*
X0256043Y0117284D01*
X0256420Y0118082D02*
X0243933Y0118082D01*
X0243933Y0118881D02*
X0257219Y0118881D01*
X0258281Y0119679D02*
X0243933Y0119679D01*
X0243933Y0120478D02*
X0257901Y0120478D01*
X0257062Y0121276D02*
X0243933Y0121276D01*
X0243933Y0122075D02*
X0256308Y0122075D01*
X0255977Y0122873D02*
X0243933Y0122873D01*
X0243933Y0123672D02*
X0255647Y0123672D01*
X0255533Y0124470D02*
X0243933Y0124470D01*
X0243534Y0125269D02*
X0255533Y0125269D01*
X0255539Y0126068D02*
X0242736Y0126068D01*
X0241937Y0126866D02*
X0255870Y0126866D01*
X0256200Y0127665D02*
X0241139Y0127665D01*
X0240340Y0128463D02*
X0256801Y0128463D01*
X0257600Y0129262D02*
X0239542Y0129262D01*
X0238743Y0130060D02*
X0259200Y0130060D01*
X0262467Y0130060D02*
X0263833Y0130060D01*
X0263833Y0130859D02*
X0237945Y0130859D01*
X0235997Y0126866D02*
X0233437Y0126866D01*
X0234236Y0126068D02*
X0236796Y0126068D01*
X0237594Y0125269D02*
X0235034Y0125269D01*
X0235833Y0124470D02*
X0238393Y0124470D01*
X0239191Y0123672D02*
X0235933Y0123672D01*
X0237703Y0122873D02*
X0239733Y0122873D01*
X0239733Y0122075D02*
X0237945Y0122075D01*
X0237945Y0121276D02*
X0239733Y0121276D01*
X0239733Y0120478D02*
X0237945Y0120478D01*
X0237945Y0119679D02*
X0239733Y0119679D01*
X0239733Y0118881D02*
X0237945Y0118881D01*
X0237945Y0118082D02*
X0239733Y0118082D01*
X0239733Y0117284D02*
X0237860Y0117284D01*
X0237062Y0116485D02*
X0239733Y0116485D01*
X0239733Y0115687D02*
X0236280Y0115687D01*
X0236280Y0114888D02*
X0239733Y0114888D01*
X0239733Y0114090D02*
X0236280Y0114090D01*
X0236280Y0113291D02*
X0239733Y0113291D01*
X0239150Y0112493D02*
X0236280Y0112493D01*
X0236280Y0111694D02*
X0238820Y0111694D01*
X0238783Y0110896D02*
X0236280Y0110896D01*
X0236280Y0110097D02*
X0238906Y0110097D01*
X0239237Y0109299D02*
X0236280Y0109299D01*
X0236280Y0108500D02*
X0240020Y0108500D01*
X0212765Y0119679D02*
X0210335Y0119679D01*
X0207945Y0120478D02*
X0212765Y0120478D01*
X0212765Y0121276D02*
X0207945Y0121276D01*
X0207945Y0122075D02*
X0212765Y0122075D01*
X0212765Y0122873D02*
X0207703Y0122873D01*
X0205933Y0123672D02*
X0212765Y0123672D01*
X0211393Y0124470D02*
X0205933Y0124470D01*
X0205933Y0125269D02*
X0210594Y0125269D01*
X0209796Y0126068D02*
X0205933Y0126068D01*
X0205933Y0126866D02*
X0208997Y0126866D01*
X0208199Y0127665D02*
X0205933Y0127665D01*
X0205933Y0128463D02*
X0207828Y0128463D01*
X0207828Y0129262D02*
X0205933Y0129262D01*
X0205933Y0130060D02*
X0207828Y0130060D01*
X0207828Y0130859D02*
X0206005Y0130859D01*
X0206578Y0131657D02*
X0207169Y0131657D01*
X0207147Y0132456D02*
X0206883Y0132456D01*
X0206883Y0133254D02*
X0207147Y0133254D01*
X0207147Y0134053D02*
X0206699Y0134053D01*
X0206296Y0134851D02*
X0207147Y0134851D01*
X0207147Y0135650D02*
X0205407Y0135650D01*
X0207147Y0136448D02*
X0179529Y0136448D01*
X0181061Y0137247D02*
X0207147Y0137247D01*
X0207147Y0138045D02*
X0182013Y0138045D01*
X0182965Y0138844D02*
X0207670Y0138844D01*
X0202260Y0135650D02*
X0167833Y0135650D01*
X0167833Y0136448D02*
X0172138Y0136448D01*
X0171112Y0136822D02*
X0171112Y0136822D01*
X0170605Y0137247D02*
X0167833Y0137247D01*
X0167833Y0138045D02*
X0169654Y0138045D01*
X0168702Y0138844D02*
X0167833Y0138844D01*
X0168599Y0138930D02*
X0168599Y0138930D01*
X0168188Y0139642D02*
X0167833Y0139642D01*
X0167833Y0134851D02*
X0201371Y0134851D01*
X0200968Y0134053D02*
X0167833Y0134053D01*
X0167833Y0133254D02*
X0200783Y0133254D01*
X0200783Y0132456D02*
X0167833Y0132456D01*
X0167833Y0131657D02*
X0190778Y0131657D01*
X0189879Y0130859D02*
X0167833Y0130859D01*
X0167833Y0130060D02*
X0169200Y0130060D01*
X0172467Y0130060D02*
X0189471Y0130060D01*
X0189283Y0129262D02*
X0174067Y0129262D01*
X0174866Y0128463D02*
X0189283Y0128463D01*
X0189585Y0127665D02*
X0175466Y0127665D01*
X0175797Y0126866D02*
X0190154Y0126866D01*
X0190233Y0126068D02*
X0176128Y0126068D01*
X0176133Y0125269D02*
X0190233Y0125269D01*
X0190233Y0124470D02*
X0176133Y0124470D01*
X0176020Y0123672D02*
X0190233Y0123672D01*
X0190233Y0122873D02*
X0175689Y0122873D01*
X0175358Y0122075D02*
X0190233Y0122075D01*
X0190233Y0121276D02*
X0174605Y0121276D01*
X0173766Y0120478D02*
X0190233Y0120478D01*
X0190233Y0119679D02*
X0173386Y0119679D01*
X0174448Y0118881D02*
X0190233Y0118881D01*
X0190233Y0118082D02*
X0175246Y0118082D01*
X0175624Y0117284D02*
X0190233Y0117284D01*
X0194433Y0123672D02*
X0201733Y0123672D01*
X0201733Y0124470D02*
X0194433Y0124470D01*
X0194433Y0125269D02*
X0201733Y0125269D01*
X0201733Y0126068D02*
X0194433Y0126068D01*
X0194513Y0126866D02*
X0201733Y0126866D01*
X0201733Y0127665D02*
X0195081Y0127665D01*
X0195383Y0128463D02*
X0201733Y0128463D01*
X0201733Y0129262D02*
X0195383Y0129262D01*
X0195196Y0130060D02*
X0201733Y0130060D01*
X0201661Y0130859D02*
X0194788Y0130859D01*
X0193889Y0131657D02*
X0201088Y0131657D01*
X0216506Y0139642D02*
X0183479Y0139642D01*
X0183940Y0140441D02*
X0217304Y0140441D01*
X0218103Y0141239D02*
X0184401Y0141239D01*
X0184754Y0142038D02*
X0218901Y0142038D01*
X0223330Y0144433D02*
X0208336Y0144433D01*
X0208772Y0145232D02*
X0222895Y0145232D01*
X0222895Y0146030D02*
X0208772Y0146030D01*
X0208772Y0146829D02*
X0222895Y0146829D01*
X0222895Y0147627D02*
X0208772Y0147627D01*
X0208772Y0148426D02*
X0222895Y0148426D01*
X0222895Y0149224D02*
X0208772Y0149224D01*
X0208772Y0150023D02*
X0222895Y0150023D01*
X0222895Y0150821D02*
X0208772Y0150821D01*
X0208772Y0151620D02*
X0222895Y0151620D01*
X0222895Y0152418D02*
X0208772Y0152418D01*
X0200848Y0152418D02*
X0181461Y0152418D01*
X0182412Y0151620D02*
X0200848Y0151620D01*
X0200848Y0150821D02*
X0183211Y0150821D01*
X0183067Y0151070D02*
X0183067Y0151070D01*
X0183672Y0150023D02*
X0200848Y0150023D01*
X0200848Y0149224D02*
X0184133Y0149224D01*
X0184594Y0148426D02*
X0200848Y0148426D01*
X0200848Y0147627D02*
X0184814Y0147627D01*
X0184707Y0148230D02*
X0184707Y0148230D01*
X0184954Y0146829D02*
X0200848Y0146829D01*
X0200848Y0146030D02*
X0185095Y0146030D01*
X0185236Y0145232D02*
X0200848Y0145232D01*
X0201283Y0144433D02*
X0185177Y0144433D01*
X0185277Y0145000D02*
X0185277Y0145000D01*
X0185036Y0143635D02*
X0246631Y0143635D01*
X0246490Y0144433D02*
X0230384Y0144433D01*
X0230819Y0145232D02*
X0246431Y0145232D01*
X0246390Y0145000D02*
X0246390Y0145000D01*
X0246572Y0146030D02*
X0230819Y0146030D01*
X0230819Y0146829D02*
X0246712Y0146829D01*
X0246853Y0147627D02*
X0230819Y0147627D01*
X0230819Y0148426D02*
X0247073Y0148426D01*
X0246959Y0148230D02*
X0246959Y0148230D01*
X0247534Y0149224D02*
X0230819Y0149224D01*
X0230819Y0150023D02*
X0247995Y0150023D01*
X0248456Y0150821D02*
X0230819Y0150821D01*
X0230819Y0151620D02*
X0249254Y0151620D01*
X0248599Y0151070D02*
X0248599Y0151070D01*
X0248599Y0151070D01*
X0250206Y0152418D02*
X0230819Y0152418D01*
X0226956Y0142836D02*
X0246771Y0142836D01*
X0246912Y0142038D02*
X0228109Y0142038D01*
X0228621Y0141239D02*
X0247266Y0141239D01*
X0246959Y0141770D02*
X0246959Y0141770D01*
X0247727Y0140441D02*
X0228883Y0140441D01*
X0228883Y0139642D02*
X0248188Y0139642D01*
X0248599Y0138930D02*
X0248599Y0138930D01*
X0248702Y0138844D02*
X0228656Y0138844D01*
X0228192Y0138045D02*
X0249654Y0138045D01*
X0250605Y0137247D02*
X0227156Y0137247D01*
X0224510Y0137247D02*
X0224320Y0137247D01*
X0224320Y0136448D02*
X0252138Y0136448D01*
X0251112Y0136822D02*
X0251112Y0136822D01*
X0258018Y0135650D02*
X0224320Y0135650D01*
X0224320Y0134053D02*
X0258141Y0134053D01*
X0257983Y0134851D02*
X0221929Y0134851D01*
X0224320Y0133254D02*
X0258549Y0133254D01*
X0259529Y0132456D02*
X0224320Y0132456D01*
X0224141Y0131657D02*
X0263833Y0131657D01*
X0263833Y0132456D02*
X0262138Y0132456D01*
X0263118Y0133254D02*
X0263833Y0133254D01*
X0263833Y0134053D02*
X0263526Y0134053D01*
X0263683Y0134851D02*
X0263833Y0134851D01*
X0263833Y0135650D02*
X0263649Y0135650D01*
X0263833Y0136448D02*
X0263318Y0136448D01*
X0263833Y0137247D02*
X0262617Y0137247D01*
X0262013Y0138045D02*
X0263833Y0138045D01*
X0263833Y0138844D02*
X0262965Y0138844D01*
X0263067Y0138930D02*
X0263067Y0138930D01*
X0263067Y0138930D01*
X0263479Y0139642D02*
X0263833Y0139642D01*
X0224711Y0142836D02*
X0184895Y0142836D01*
X0177473Y0135700D02*
X0177473Y0135700D01*
D18*
X0192333Y0129000D03*
X0195833Y0135000D03*
X0203833Y0133000D03*
X0213833Y0129000D03*
X0220333Y0122500D03*
X0217833Y0118500D03*
X0208833Y0117000D03*
X0202833Y0112000D03*
X0200833Y0103500D03*
X0202833Y0100000D03*
X0205833Y0094000D03*
X0209333Y0088500D03*
X0222333Y0093000D03*
X0233833Y0100000D03*
X0227833Y0103000D03*
X0230833Y0110000D03*
X0237833Y0109000D03*
X0241833Y0111000D03*
X0250833Y0110000D03*
X0250833Y0130000D03*
X0225833Y0140000D03*
X0190333Y0085000D03*
X0207333Y0081000D03*
X0217833Y0081000D03*
X0243833Y0084000D03*
D19*
X0249833Y0084000D01*
X0260833Y0095000D01*
X0260833Y0105000D02*
X0240833Y0105000D01*
X0240833Y0086000D01*
X0238833Y0084000D01*
X0223333Y0084000D01*
X0221833Y0082500D01*
X0221833Y0075094D01*
X0221739Y0075000D01*
X0217833Y0075031D02*
X0217833Y0081000D01*
X0213865Y0081969D02*
X0210833Y0085000D01*
X0193333Y0085000D01*
X0193333Y0089000D01*
X0193333Y0092500D01*
X0195833Y0095000D01*
X0197833Y0095000D01*
X0202833Y0100000D01*
X0204865Y0102031D01*
X0209896Y0102031D01*
X0209896Y0104000D02*
X0201333Y0104000D01*
X0200833Y0103500D01*
X0201054Y0103720D01*
X0202865Y0105969D02*
X0201833Y0107000D01*
X0179333Y0107000D01*
X0177333Y0105000D01*
X0170833Y0105000D01*
X0170833Y0115000D02*
X0192333Y0115000D01*
X0192333Y0120000D01*
X0197487Y0120000D01*
X0197333Y0120154D01*
X0192333Y0120000D02*
X0192333Y0129000D01*
X0203833Y0133000D02*
X0203833Y0120346D01*
X0204180Y0120000D01*
X0208833Y0117000D02*
X0214865Y0117000D01*
X0214865Y0115000D01*
X0214865Y0110898D01*
X0216833Y0110898D02*
X0216833Y0117500D01*
X0217833Y0118500D01*
X0217113Y0117780D01*
X0214865Y0117000D02*
X0214865Y0126000D01*
X0212833Y0126000D01*
X0209928Y0128906D01*
X0209928Y0135000D01*
X0209833Y0134906D01*
X0213833Y0134969D02*
X0213833Y0129000D01*
X0217833Y0131500D02*
X0219833Y0129500D01*
X0236333Y0129500D01*
X0241833Y0124000D01*
X0241833Y0111000D01*
X0235833Y0105000D02*
X0234180Y0106654D01*
X0234180Y0120000D01*
X0233833Y0120346D01*
X0233833Y0123500D01*
X0231333Y0126000D01*
X0214865Y0126000D01*
X0220333Y0122500D02*
X0222833Y0120000D01*
X0227487Y0120000D01*
X0223333Y0117500D02*
X0230833Y0110000D01*
X0229904Y0105929D02*
X0221723Y0105929D01*
X0229904Y0105929D02*
X0233833Y0102000D01*
X0233833Y0100000D01*
X0233833Y0089346D01*
X0234180Y0089000D01*
X0222333Y0093000D02*
X0221333Y0093000D01*
X0218802Y0095531D01*
X0218802Y0099071D01*
X0216833Y0099071D02*
X0216833Y0096000D01*
X0214833Y0094000D01*
X0205833Y0094000D01*
X0197487Y0089000D02*
X0193333Y0089000D01*
X0193333Y0085000D02*
X0190333Y0085000D01*
X0170833Y0085000D01*
X0202487Y0099654D02*
X0202833Y0100000D01*
X0203995Y0101161D01*
X0202865Y0105969D02*
X0209896Y0105969D01*
X0209896Y0107937D02*
X0206896Y0107937D01*
X0202833Y0112000D01*
X0199833Y0115000D01*
X0192333Y0115000D01*
X0218802Y0115469D02*
X0218802Y0110898D01*
X0218802Y0115469D02*
X0220833Y0117500D01*
X0223333Y0117500D01*
X0235833Y0105000D02*
X0240833Y0105000D01*
X0213865Y0081969D02*
X0213865Y0075000D01*
X0213833Y0075031D01*
X0209928Y0075000D02*
X0209833Y0075094D01*
X0217802Y0075000D02*
X0217833Y0075031D01*
X0217833Y0131500D02*
X0217833Y0134969D01*
X0217802Y0135000D01*
X0217802Y0137969D01*
X0219833Y0140000D01*
X0225833Y0140000D01*
X0213865Y0135000D02*
X0213833Y0134969D01*
M02*
