G75*
%MOIN*%
%OFA0B0*%
%FSLAX25Y25*%
%IPPOS*%
%LPD*%
%AMOC8*
5,1,8,0,0,1.08239X$1,22.5*
%
%ADD10C,0.00600*%
%ADD11C,0.01000*%
%ADD12C,0.01500*%
%ADD13C,0.00500*%
%ADD14C,0.01575*%
%ADD15C,0.00300*%
D10*
X0176133Y0073867D02*
X0176700Y0073300D01*
X0177835Y0073300D01*
X0178402Y0073867D01*
X0178402Y0075001D01*
X0177268Y0075001D01*
X0176133Y0073867D02*
X0176133Y0076136D01*
X0176700Y0076703D01*
X0177835Y0076703D01*
X0178402Y0076136D01*
X0179816Y0076703D02*
X0182085Y0073300D01*
X0182085Y0076703D01*
X0183500Y0076703D02*
X0185201Y0076703D01*
X0185768Y0076136D01*
X0185768Y0073867D01*
X0185201Y0073300D01*
X0183500Y0073300D01*
X0183500Y0076703D01*
X0179816Y0076703D02*
X0179816Y0073300D01*
X0179816Y0083300D02*
X0180384Y0083300D01*
X0180384Y0083867D01*
X0179816Y0083867D01*
X0179816Y0083300D01*
X0178402Y0083867D02*
X0177835Y0083300D01*
X0176700Y0083300D01*
X0176133Y0083867D01*
X0177268Y0085001D02*
X0177835Y0085001D01*
X0178402Y0084434D01*
X0178402Y0083867D01*
X0177835Y0085001D02*
X0178402Y0085569D01*
X0178402Y0086136D01*
X0177835Y0086703D01*
X0176700Y0086703D01*
X0176133Y0086136D01*
X0181658Y0086136D02*
X0182225Y0086703D01*
X0183359Y0086703D01*
X0183927Y0086136D01*
X0183927Y0085569D01*
X0183359Y0085001D01*
X0183927Y0084434D01*
X0183927Y0083867D01*
X0183359Y0083300D01*
X0182225Y0083300D01*
X0181658Y0083867D01*
X0182792Y0085001D02*
X0183359Y0085001D01*
X0185341Y0084434D02*
X0186475Y0083300D01*
X0187610Y0084434D01*
X0187610Y0086703D01*
X0185341Y0086703D02*
X0185341Y0084434D01*
X0185768Y0093300D02*
X0183500Y0093300D01*
X0183500Y0096703D01*
X0182085Y0096136D02*
X0181518Y0096703D01*
X0180384Y0096703D01*
X0179816Y0096136D01*
X0179816Y0093867D01*
X0180384Y0093300D01*
X0181518Y0093300D01*
X0182085Y0093867D01*
X0178402Y0093867D02*
X0178402Y0094434D01*
X0177835Y0095001D01*
X0176700Y0095001D01*
X0176133Y0095569D01*
X0176133Y0096136D01*
X0176700Y0096703D01*
X0177835Y0096703D01*
X0178402Y0096136D01*
X0178402Y0093867D02*
X0177835Y0093300D01*
X0176700Y0093300D01*
X0176133Y0093867D01*
X0187183Y0093300D02*
X0187183Y0096703D01*
X0187750Y0095001D02*
X0189451Y0093300D01*
X0187183Y0094434D02*
X0189451Y0096703D01*
X0188317Y0103300D02*
X0187183Y0103300D01*
X0187750Y0103300D02*
X0187750Y0106703D01*
X0187183Y0106703D02*
X0188317Y0106703D01*
X0185768Y0106136D02*
X0185201Y0106703D01*
X0184067Y0106703D01*
X0183500Y0106136D01*
X0183500Y0105569D01*
X0184067Y0105001D01*
X0185201Y0105001D01*
X0185768Y0104434D01*
X0185768Y0103867D01*
X0185201Y0103300D01*
X0184067Y0103300D01*
X0183500Y0103867D01*
X0182085Y0103867D02*
X0182085Y0106136D01*
X0181518Y0106703D01*
X0180384Y0106703D01*
X0179816Y0106136D01*
X0179816Y0103867D01*
X0180384Y0103300D01*
X0181518Y0103300D01*
X0182085Y0103867D01*
X0178402Y0103300D02*
X0178402Y0106703D01*
X0177268Y0105569D01*
X0176133Y0106703D01*
X0176133Y0103300D01*
X0176133Y0113300D02*
X0176133Y0116703D01*
X0177268Y0115569D01*
X0178402Y0116703D01*
X0178402Y0113300D01*
X0179816Y0113300D02*
X0180951Y0113300D01*
X0180384Y0113300D02*
X0180384Y0116703D01*
X0180951Y0116703D02*
X0179816Y0116703D01*
X0182272Y0116136D02*
X0182272Y0115569D01*
X0182839Y0115001D01*
X0183973Y0115001D01*
X0184541Y0114434D01*
X0184541Y0113867D01*
X0183973Y0113300D01*
X0182839Y0113300D01*
X0182272Y0113867D01*
X0182272Y0116136D02*
X0182839Y0116703D01*
X0183973Y0116703D01*
X0184541Y0116136D01*
X0185955Y0116136D02*
X0185955Y0113867D01*
X0186522Y0113300D01*
X0187656Y0113300D01*
X0188224Y0113867D01*
X0188224Y0116136D01*
X0187656Y0116703D01*
X0186522Y0116703D01*
X0185955Y0116136D01*
X0181518Y0123300D02*
X0180384Y0123300D01*
X0179816Y0123867D01*
X0180384Y0125001D02*
X0181518Y0125001D01*
X0182085Y0124434D01*
X0182085Y0123867D01*
X0181518Y0123300D01*
X0180384Y0125001D02*
X0179816Y0125569D01*
X0179816Y0126136D01*
X0180384Y0126703D01*
X0181518Y0126703D01*
X0182085Y0126136D01*
X0178402Y0126136D02*
X0177835Y0126703D01*
X0176700Y0126703D01*
X0176133Y0126136D01*
X0176133Y0123867D01*
X0176700Y0123300D01*
X0177835Y0123300D01*
X0178402Y0123867D01*
X0235296Y0141136D02*
X0236430Y0140001D01*
X0236430Y0138300D01*
X0236430Y0140001D02*
X0237564Y0141136D01*
X0237564Y0141703D01*
X0235296Y0141703D02*
X0235296Y0141136D01*
X0243221Y0140025D02*
X0245489Y0143428D01*
X0243221Y0143428D02*
X0245489Y0140025D01*
X0246402Y0138203D02*
X0244133Y0138203D01*
X0246402Y0138203D02*
X0246402Y0137636D01*
X0244133Y0135367D01*
X0244133Y0134800D01*
X0246402Y0134800D01*
X0246312Y0126703D02*
X0248013Y0126703D01*
X0248580Y0126136D01*
X0248580Y0125001D01*
X0248013Y0124434D01*
X0246312Y0124434D01*
X0247446Y0124434D02*
X0248580Y0123300D01*
X0249995Y0123300D02*
X0251129Y0123300D01*
X0250562Y0123300D02*
X0250562Y0126703D01*
X0249995Y0126703D02*
X0251129Y0126703D01*
X0252450Y0126136D02*
X0253017Y0126703D01*
X0254152Y0126703D01*
X0254719Y0126136D01*
X0254719Y0125001D02*
X0253584Y0125001D01*
X0254719Y0125001D02*
X0254719Y0123867D01*
X0254152Y0123300D01*
X0253017Y0123300D01*
X0252450Y0123867D01*
X0252450Y0126136D01*
X0246312Y0126703D02*
X0246312Y0123300D01*
X0243763Y0123300D02*
X0243763Y0126703D01*
X0244897Y0126703D02*
X0242628Y0126703D01*
X0246312Y0116703D02*
X0247446Y0116703D01*
X0246879Y0116703D02*
X0246879Y0113300D01*
X0246312Y0113300D02*
X0247446Y0113300D01*
X0248767Y0113300D02*
X0248767Y0116703D01*
X0251036Y0113300D01*
X0251036Y0116703D01*
X0252450Y0116703D02*
X0254719Y0116703D01*
X0253584Y0116703D02*
X0253584Y0113300D01*
X0252450Y0106703D02*
X0252450Y0103300D01*
X0254719Y0103300D01*
X0251036Y0103867D02*
X0250468Y0103300D01*
X0249334Y0103300D01*
X0248767Y0103867D01*
X0248767Y0106136D01*
X0249334Y0106703D01*
X0250468Y0106703D01*
X0251036Y0106136D01*
X0247352Y0106136D02*
X0246785Y0106703D01*
X0245651Y0106703D01*
X0245084Y0106136D01*
X0245084Y0105569D01*
X0245651Y0105001D01*
X0246785Y0105001D01*
X0247352Y0104434D01*
X0247352Y0103867D01*
X0246785Y0103300D01*
X0245651Y0103300D01*
X0245084Y0103867D01*
X0245651Y0096703D02*
X0245084Y0096136D01*
X0245084Y0095569D01*
X0245651Y0095001D01*
X0246785Y0095001D01*
X0247352Y0094434D01*
X0247352Y0093867D01*
X0246785Y0093300D01*
X0245651Y0093300D01*
X0245084Y0093867D01*
X0247352Y0096136D02*
X0246785Y0096703D01*
X0245651Y0096703D01*
X0248767Y0096703D02*
X0250468Y0096703D01*
X0251036Y0096136D01*
X0251036Y0093867D01*
X0250468Y0093300D01*
X0248767Y0093300D01*
X0248767Y0096703D01*
X0252450Y0095569D02*
X0253584Y0096703D01*
X0254719Y0095569D01*
X0254719Y0093300D01*
X0254719Y0095001D02*
X0252450Y0095001D01*
X0252450Y0095569D02*
X0252450Y0093300D01*
X0252450Y0086703D02*
X0252450Y0084434D01*
X0253584Y0083300D01*
X0254719Y0084434D01*
X0254719Y0086703D01*
X0251036Y0086136D02*
X0251036Y0085569D01*
X0250468Y0085001D01*
X0251036Y0084434D01*
X0251036Y0083867D01*
X0250468Y0083300D01*
X0249334Y0083300D01*
X0248767Y0083867D01*
X0247493Y0083867D02*
X0247493Y0083300D01*
X0246925Y0083300D01*
X0246925Y0083867D01*
X0247493Y0083867D01*
X0245511Y0083867D02*
X0244944Y0083300D01*
X0243809Y0083300D01*
X0243242Y0083867D01*
X0244377Y0085001D02*
X0244944Y0085001D01*
X0245511Y0084434D01*
X0245511Y0083867D01*
X0244944Y0085001D02*
X0245511Y0085569D01*
X0245511Y0086136D01*
X0244944Y0086703D01*
X0243809Y0086703D01*
X0243242Y0086136D01*
X0248767Y0086136D02*
X0249334Y0086703D01*
X0250468Y0086703D01*
X0251036Y0086136D01*
X0250468Y0085001D02*
X0249901Y0085001D01*
X0248767Y0076703D02*
X0251036Y0073300D01*
X0251036Y0076703D01*
X0252450Y0076703D02*
X0254152Y0076703D01*
X0254719Y0076136D01*
X0254719Y0073867D01*
X0254152Y0073300D01*
X0252450Y0073300D01*
X0252450Y0076703D01*
X0248767Y0076703D02*
X0248767Y0073300D01*
X0247352Y0073867D02*
X0247352Y0075001D01*
X0246218Y0075001D01*
X0245084Y0073867D02*
X0245651Y0073300D01*
X0246785Y0073300D01*
X0247352Y0073867D01*
X0245084Y0073867D02*
X0245084Y0076136D01*
X0245651Y0076703D01*
X0246785Y0076703D01*
X0247352Y0076136D01*
X0248587Y0068270D02*
X0248587Y0067703D01*
X0248587Y0066569D02*
X0248587Y0064300D01*
X0249154Y0064300D02*
X0248019Y0064300D01*
X0246605Y0064867D02*
X0246605Y0066569D01*
X0248019Y0066569D02*
X0248587Y0066569D01*
X0250475Y0066569D02*
X0251042Y0066569D01*
X0251042Y0064300D01*
X0250475Y0064300D02*
X0251609Y0064300D01*
X0252930Y0064867D02*
X0253497Y0064300D01*
X0255199Y0064300D01*
X0255199Y0066569D02*
X0253497Y0066569D01*
X0252930Y0066001D01*
X0252930Y0064867D01*
X0251042Y0067703D02*
X0251042Y0068270D01*
X0246605Y0064867D02*
X0246038Y0064300D01*
X0245471Y0064867D01*
X0244903Y0064300D01*
X0244336Y0064867D01*
X0244336Y0066569D01*
X0242922Y0067136D02*
X0242922Y0064867D01*
X0242355Y0064300D01*
X0241220Y0064300D01*
X0240653Y0064867D01*
X0240653Y0067136D01*
X0241220Y0067703D01*
X0242355Y0067703D01*
X0242922Y0067136D01*
X0241787Y0065434D02*
X0242922Y0064300D01*
X0243536Y0061703D02*
X0241267Y0058300D01*
X0239852Y0058300D02*
X0237584Y0058300D01*
X0237584Y0061703D01*
X0236169Y0061703D02*
X0236169Y0058300D01*
X0233901Y0058300D02*
X0233901Y0061703D01*
X0235035Y0060569D01*
X0236169Y0061703D01*
X0241267Y0061703D02*
X0243536Y0058300D01*
X0244950Y0058867D02*
X0245517Y0058300D01*
X0246652Y0058300D01*
X0247219Y0058867D01*
X0247219Y0061136D01*
X0246652Y0061703D01*
X0245517Y0061703D01*
X0244950Y0061136D01*
X0244950Y0060569D01*
X0245517Y0060001D01*
X0247219Y0060001D01*
X0248633Y0058867D02*
X0250902Y0061136D01*
X0250902Y0058867D01*
X0250335Y0058300D01*
X0249200Y0058300D01*
X0248633Y0058867D01*
X0248633Y0061136D01*
X0249200Y0061703D01*
X0250335Y0061703D01*
X0250902Y0061136D01*
X0252316Y0061136D02*
X0252884Y0061703D01*
X0254018Y0061703D01*
X0254585Y0061136D01*
X0254585Y0060569D01*
X0254018Y0060001D01*
X0254585Y0059434D01*
X0254585Y0058867D01*
X0254018Y0058300D01*
X0252884Y0058300D01*
X0252316Y0058867D01*
X0253451Y0060001D02*
X0254018Y0060001D01*
X0256000Y0060569D02*
X0256567Y0060001D01*
X0258268Y0060001D01*
X0258268Y0058867D02*
X0258268Y0061136D01*
X0257701Y0061703D01*
X0256567Y0061703D01*
X0256000Y0061136D01*
X0256000Y0060569D01*
X0256000Y0058867D02*
X0256567Y0058300D01*
X0257701Y0058300D01*
X0258268Y0058867D01*
X0259683Y0058867D02*
X0260250Y0058300D01*
X0261384Y0058300D01*
X0261951Y0058867D01*
X0261951Y0059434D01*
X0261384Y0060001D01*
X0260817Y0060001D01*
X0261384Y0060001D02*
X0261951Y0060569D01*
X0261951Y0061136D01*
X0261384Y0061703D01*
X0260250Y0061703D01*
X0259683Y0061136D01*
D11*
X0227644Y0067126D02*
X0227644Y0073622D01*
X0224692Y0073622D01*
X0206975Y0073622D02*
X0204022Y0073622D01*
X0204022Y0067126D01*
X0209928Y0056890D02*
X0221739Y0056890D01*
X0234008Y0136063D02*
X0234008Y0138263D01*
X0233908Y0138163D02*
X0232908Y0137163D01*
X0233908Y0136163D01*
X0232908Y0137163D02*
X0237408Y0137163D01*
X0238783Y0136725D02*
X0238785Y0136817D01*
X0238791Y0136908D01*
X0238801Y0136999D01*
X0238815Y0137090D01*
X0238833Y0137180D01*
X0238855Y0137269D01*
X0238880Y0137356D01*
X0238910Y0137443D01*
X0238943Y0137529D01*
X0238980Y0137612D01*
X0239020Y0137695D01*
X0239064Y0137775D01*
X0239112Y0137853D01*
X0239163Y0137930D01*
X0239217Y0138003D01*
X0239274Y0138075D01*
X0239335Y0138144D01*
X0239398Y0138210D01*
X0239464Y0138273D01*
X0239533Y0138334D01*
X0239605Y0138391D01*
X0239678Y0138445D01*
X0239755Y0138496D01*
X0239833Y0138544D01*
X0239913Y0138588D01*
X0239996Y0138628D01*
X0240079Y0138665D01*
X0240165Y0138698D01*
X0240252Y0138728D01*
X0240339Y0138753D01*
X0240428Y0138775D01*
X0240518Y0138793D01*
X0240609Y0138807D01*
X0240700Y0138817D01*
X0240791Y0138823D01*
X0240883Y0138825D01*
X0240975Y0138823D01*
X0241066Y0138817D01*
X0241157Y0138807D01*
X0241248Y0138793D01*
X0241338Y0138775D01*
X0241427Y0138753D01*
X0241514Y0138728D01*
X0241601Y0138698D01*
X0241687Y0138665D01*
X0241770Y0138628D01*
X0241853Y0138588D01*
X0241933Y0138544D01*
X0242011Y0138496D01*
X0242088Y0138445D01*
X0242161Y0138391D01*
X0242233Y0138334D01*
X0242302Y0138273D01*
X0242368Y0138210D01*
X0242431Y0138144D01*
X0242492Y0138075D01*
X0242549Y0138003D01*
X0242603Y0137930D01*
X0242654Y0137853D01*
X0242702Y0137775D01*
X0242746Y0137695D01*
X0242786Y0137612D01*
X0242823Y0137529D01*
X0242856Y0137443D01*
X0242886Y0137356D01*
X0242911Y0137269D01*
X0242933Y0137180D01*
X0242951Y0137090D01*
X0242965Y0136999D01*
X0242975Y0136908D01*
X0242981Y0136817D01*
X0242983Y0136725D01*
X0242981Y0136633D01*
X0242975Y0136542D01*
X0242965Y0136451D01*
X0242951Y0136360D01*
X0242933Y0136270D01*
X0242911Y0136181D01*
X0242886Y0136094D01*
X0242856Y0136007D01*
X0242823Y0135921D01*
X0242786Y0135838D01*
X0242746Y0135755D01*
X0242702Y0135675D01*
X0242654Y0135597D01*
X0242603Y0135520D01*
X0242549Y0135447D01*
X0242492Y0135375D01*
X0242431Y0135306D01*
X0242368Y0135240D01*
X0242302Y0135177D01*
X0242233Y0135116D01*
X0242161Y0135059D01*
X0242088Y0135005D01*
X0242011Y0134954D01*
X0241933Y0134906D01*
X0241853Y0134862D01*
X0241770Y0134822D01*
X0241687Y0134785D01*
X0241601Y0134752D01*
X0241514Y0134722D01*
X0241427Y0134697D01*
X0241338Y0134675D01*
X0241248Y0134657D01*
X0241157Y0134643D01*
X0241066Y0134633D01*
X0240975Y0134627D01*
X0240883Y0134625D01*
X0240791Y0134627D01*
X0240700Y0134633D01*
X0240609Y0134643D01*
X0240518Y0134657D01*
X0240428Y0134675D01*
X0240339Y0134697D01*
X0240252Y0134722D01*
X0240165Y0134752D01*
X0240079Y0134785D01*
X0239996Y0134822D01*
X0239913Y0134862D01*
X0239833Y0134906D01*
X0239755Y0134954D01*
X0239678Y0135005D01*
X0239605Y0135059D01*
X0239533Y0135116D01*
X0239464Y0135177D01*
X0239398Y0135240D01*
X0239335Y0135306D01*
X0239274Y0135375D01*
X0239217Y0135447D01*
X0239163Y0135520D01*
X0239112Y0135597D01*
X0239064Y0135675D01*
X0239020Y0135755D01*
X0238980Y0135838D01*
X0238943Y0135921D01*
X0238910Y0136007D01*
X0238880Y0136094D01*
X0238855Y0136181D01*
X0238833Y0136270D01*
X0238815Y0136360D01*
X0238801Y0136451D01*
X0238791Y0136542D01*
X0238785Y0136633D01*
X0238783Y0136725D01*
X0240383Y0136725D02*
X0240385Y0136769D01*
X0240391Y0136813D01*
X0240401Y0136856D01*
X0240414Y0136898D01*
X0240431Y0136939D01*
X0240452Y0136978D01*
X0240476Y0137015D01*
X0240503Y0137050D01*
X0240533Y0137082D01*
X0240566Y0137112D01*
X0240602Y0137138D01*
X0240639Y0137162D01*
X0240679Y0137181D01*
X0240720Y0137198D01*
X0240763Y0137210D01*
X0240806Y0137219D01*
X0240850Y0137224D01*
X0240894Y0137225D01*
X0240938Y0137222D01*
X0240982Y0137215D01*
X0241025Y0137204D01*
X0241067Y0137190D01*
X0241107Y0137172D01*
X0241146Y0137150D01*
X0241182Y0137126D01*
X0241216Y0137098D01*
X0241248Y0137067D01*
X0241277Y0137033D01*
X0241303Y0136997D01*
X0241325Y0136959D01*
X0241344Y0136919D01*
X0241359Y0136877D01*
X0241371Y0136835D01*
X0241379Y0136791D01*
X0241383Y0136747D01*
X0241383Y0136703D01*
X0241379Y0136659D01*
X0241371Y0136615D01*
X0241359Y0136573D01*
X0241344Y0136531D01*
X0241325Y0136491D01*
X0241303Y0136453D01*
X0241277Y0136417D01*
X0241248Y0136383D01*
X0241216Y0136352D01*
X0241182Y0136324D01*
X0241146Y0136300D01*
X0241107Y0136278D01*
X0241067Y0136260D01*
X0241025Y0136246D01*
X0240982Y0136235D01*
X0240938Y0136228D01*
X0240894Y0136225D01*
X0240850Y0136226D01*
X0240806Y0136231D01*
X0240763Y0136240D01*
X0240720Y0136252D01*
X0240679Y0136269D01*
X0240639Y0136288D01*
X0240602Y0136312D01*
X0240566Y0136338D01*
X0240533Y0136368D01*
X0240503Y0136400D01*
X0240476Y0136435D01*
X0240452Y0136472D01*
X0240431Y0136511D01*
X0240414Y0136552D01*
X0240401Y0136594D01*
X0240391Y0136637D01*
X0240385Y0136681D01*
X0240383Y0136725D01*
X0240796Y0140225D02*
X0240796Y0144725D01*
X0241796Y0143725D01*
X0241896Y0143625D02*
X0239696Y0143625D01*
X0239796Y0143725D02*
X0240796Y0144725D01*
X0227644Y0142874D02*
X0227644Y0136378D01*
X0224692Y0136378D01*
X0206975Y0136378D02*
X0204022Y0136378D01*
X0204022Y0142874D01*
X0209928Y0153110D02*
X0221739Y0153110D01*
D12*
X0221437Y0112843D03*
D13*
X0222744Y0111650D02*
X0222744Y0109181D01*
X0222744Y0111650D02*
X0220026Y0111650D01*
X0211652Y0111650D02*
X0208933Y0111650D01*
X0208933Y0109181D01*
X0208933Y0100807D02*
X0208933Y0098339D01*
X0211652Y0098339D01*
X0220026Y0098339D02*
X0222744Y0098339D01*
X0222744Y0100807D01*
D14*
X0205434Y0076181D02*
X0205436Y0076228D01*
X0205442Y0076274D01*
X0205451Y0076320D01*
X0205465Y0076364D01*
X0205482Y0076408D01*
X0205503Y0076449D01*
X0205527Y0076489D01*
X0205554Y0076527D01*
X0205585Y0076562D01*
X0205618Y0076595D01*
X0205654Y0076625D01*
X0205693Y0076651D01*
X0205733Y0076675D01*
X0205775Y0076694D01*
X0205819Y0076711D01*
X0205864Y0076723D01*
X0205910Y0076732D01*
X0205956Y0076737D01*
X0206003Y0076738D01*
X0206049Y0076735D01*
X0206095Y0076728D01*
X0206141Y0076717D01*
X0206185Y0076703D01*
X0206228Y0076685D01*
X0206269Y0076663D01*
X0206309Y0076638D01*
X0206346Y0076610D01*
X0206381Y0076579D01*
X0206413Y0076545D01*
X0206442Y0076508D01*
X0206467Y0076470D01*
X0206490Y0076429D01*
X0206509Y0076386D01*
X0206524Y0076342D01*
X0206536Y0076297D01*
X0206544Y0076251D01*
X0206548Y0076204D01*
X0206548Y0076158D01*
X0206544Y0076111D01*
X0206536Y0076065D01*
X0206524Y0076020D01*
X0206509Y0075976D01*
X0206490Y0075933D01*
X0206467Y0075892D01*
X0206442Y0075854D01*
X0206413Y0075817D01*
X0206381Y0075783D01*
X0206346Y0075752D01*
X0206309Y0075724D01*
X0206270Y0075699D01*
X0206228Y0075677D01*
X0206185Y0075659D01*
X0206141Y0075645D01*
X0206095Y0075634D01*
X0206049Y0075627D01*
X0206003Y0075624D01*
X0205956Y0075625D01*
X0205910Y0075630D01*
X0205864Y0075639D01*
X0205819Y0075651D01*
X0205775Y0075668D01*
X0205733Y0075687D01*
X0205693Y0075711D01*
X0205654Y0075737D01*
X0205618Y0075767D01*
X0205585Y0075800D01*
X0205554Y0075835D01*
X0205527Y0075873D01*
X0205503Y0075913D01*
X0205482Y0075954D01*
X0205465Y0075998D01*
X0205451Y0076042D01*
X0205442Y0076088D01*
X0205436Y0076134D01*
X0205434Y0076181D01*
X0225119Y0133819D02*
X0225121Y0133866D01*
X0225127Y0133912D01*
X0225136Y0133958D01*
X0225150Y0134002D01*
X0225167Y0134046D01*
X0225188Y0134087D01*
X0225212Y0134127D01*
X0225239Y0134165D01*
X0225270Y0134200D01*
X0225303Y0134233D01*
X0225339Y0134263D01*
X0225378Y0134289D01*
X0225418Y0134313D01*
X0225460Y0134332D01*
X0225504Y0134349D01*
X0225549Y0134361D01*
X0225595Y0134370D01*
X0225641Y0134375D01*
X0225688Y0134376D01*
X0225734Y0134373D01*
X0225780Y0134366D01*
X0225826Y0134355D01*
X0225870Y0134341D01*
X0225913Y0134323D01*
X0225954Y0134301D01*
X0225994Y0134276D01*
X0226031Y0134248D01*
X0226066Y0134217D01*
X0226098Y0134183D01*
X0226127Y0134146D01*
X0226152Y0134108D01*
X0226175Y0134067D01*
X0226194Y0134024D01*
X0226209Y0133980D01*
X0226221Y0133935D01*
X0226229Y0133889D01*
X0226233Y0133842D01*
X0226233Y0133796D01*
X0226229Y0133749D01*
X0226221Y0133703D01*
X0226209Y0133658D01*
X0226194Y0133614D01*
X0226175Y0133571D01*
X0226152Y0133530D01*
X0226127Y0133492D01*
X0226098Y0133455D01*
X0226066Y0133421D01*
X0226031Y0133390D01*
X0225994Y0133362D01*
X0225955Y0133337D01*
X0225913Y0133315D01*
X0225870Y0133297D01*
X0225826Y0133283D01*
X0225780Y0133272D01*
X0225734Y0133265D01*
X0225688Y0133262D01*
X0225641Y0133263D01*
X0225595Y0133268D01*
X0225549Y0133277D01*
X0225504Y0133289D01*
X0225460Y0133306D01*
X0225418Y0133325D01*
X0225378Y0133349D01*
X0225339Y0133375D01*
X0225303Y0133405D01*
X0225270Y0133438D01*
X0225239Y0133473D01*
X0225212Y0133511D01*
X0225188Y0133551D01*
X0225167Y0133592D01*
X0225150Y0133636D01*
X0225136Y0133680D01*
X0225127Y0133726D01*
X0225121Y0133772D01*
X0225119Y0133819D01*
D15*
X0184396Y0069024D02*
X0183845Y0069299D01*
X0183491Y0069378D01*
X0183097Y0069378D01*
X0182664Y0069299D01*
X0182231Y0069063D01*
X0181877Y0068787D01*
X0181680Y0068472D01*
X0181562Y0068118D01*
X0181562Y0067803D01*
X0181640Y0067449D01*
X0181837Y0067094D01*
X0182113Y0066780D01*
X0182428Y0066425D01*
X0182703Y0066150D01*
X0182822Y0065835D01*
X0182822Y0065559D01*
X0182743Y0065323D01*
X0182585Y0065126D01*
X0182349Y0064969D01*
X0182034Y0064890D01*
X0181719Y0064890D01*
X0181522Y0064929D01*
X0181325Y0065008D01*
X0181089Y0065244D01*
X0181010Y0065362D01*
X0180971Y0065480D01*
X0180971Y0065638D01*
X0181010Y0065756D01*
X0181247Y0065992D01*
X0181365Y0066031D01*
X0181522Y0066110D01*
X0181562Y0066150D01*
X0181404Y0066228D01*
X0180932Y0066228D01*
X0180696Y0066189D01*
X0180499Y0066150D01*
X0180302Y0066071D01*
X0180144Y0065953D01*
X0179948Y0065795D01*
X0179711Y0065402D01*
X0179633Y0065126D01*
X0179593Y0064811D01*
X0179593Y0059417D01*
X0179790Y0059614D01*
X0179908Y0059811D01*
X0180105Y0060008D01*
X0180302Y0060244D01*
X0180774Y0060717D01*
X0181247Y0061268D01*
X0181640Y0061661D01*
X0182034Y0061898D01*
X0182270Y0061937D01*
X0183018Y0061937D01*
X0183491Y0062016D01*
X0183924Y0062134D01*
X0184318Y0062291D01*
X0184711Y0062528D01*
X0185026Y0062803D01*
X0185341Y0063118D01*
X0185617Y0063472D01*
X0186010Y0064181D01*
X0186207Y0064929D01*
X0186247Y0065598D01*
X0186129Y0066228D01*
X0185932Y0066819D01*
X0185656Y0067252D01*
X0185341Y0067606D01*
X0185026Y0067803D01*
X0185026Y0067449D01*
X0184987Y0067331D01*
X0184948Y0067252D01*
X0184829Y0067134D01*
X0184711Y0067094D01*
X0184593Y0067094D01*
X0184278Y0067173D01*
X0184121Y0067252D01*
X0184003Y0067331D01*
X0183845Y0067449D01*
X0183609Y0067685D01*
X0183451Y0067921D01*
X0183412Y0068079D01*
X0183412Y0068315D01*
X0183451Y0068433D01*
X0181667Y0068433D01*
X0181567Y0068134D02*
X0183412Y0068134D01*
X0183451Y0068433D02*
X0183491Y0068512D01*
X0183570Y0068630D01*
X0183727Y0068748D01*
X0183885Y0068827D01*
X0184081Y0068866D01*
X0184239Y0068906D01*
X0184475Y0068906D01*
X0184554Y0068866D01*
X0184593Y0068866D01*
X0184554Y0068906D01*
X0184396Y0069024D01*
X0184384Y0069030D02*
X0182189Y0069030D01*
X0181842Y0068732D02*
X0183705Y0068732D01*
X0183713Y0069329D02*
X0182825Y0069329D01*
X0183508Y0067836D02*
X0181562Y0067836D01*
X0181621Y0067537D02*
X0183756Y0067537D01*
X0184147Y0067239D02*
X0181757Y0067239D01*
X0181972Y0066940D02*
X0185854Y0066940D01*
X0185991Y0066642D02*
X0182235Y0066642D01*
X0182510Y0066343D02*
X0186090Y0066343D01*
X0186163Y0066045D02*
X0182743Y0066045D01*
X0182822Y0065746D02*
X0186219Y0065746D01*
X0186238Y0065448D02*
X0182784Y0065448D01*
X0182604Y0065149D02*
X0186220Y0065149D01*
X0186187Y0064851D02*
X0179598Y0064851D01*
X0179593Y0064552D02*
X0186108Y0064552D01*
X0186030Y0064254D02*
X0179593Y0064254D01*
X0179593Y0063955D02*
X0185885Y0063955D01*
X0185719Y0063657D02*
X0179593Y0063657D01*
X0179593Y0063358D02*
X0185528Y0063358D01*
X0185283Y0063060D02*
X0179593Y0063060D01*
X0179593Y0062761D02*
X0184978Y0062761D01*
X0184603Y0062463D02*
X0179593Y0062463D01*
X0179593Y0062164D02*
X0184000Y0062164D01*
X0181981Y0061866D02*
X0179593Y0061866D01*
X0179593Y0061567D02*
X0181546Y0061567D01*
X0181248Y0061269D02*
X0179593Y0061269D01*
X0179593Y0060970D02*
X0180992Y0060970D01*
X0180729Y0060672D02*
X0179593Y0060672D01*
X0179593Y0060373D02*
X0180431Y0060373D01*
X0180161Y0060075D02*
X0179593Y0060075D01*
X0179593Y0059776D02*
X0179887Y0059776D01*
X0179654Y0059478D02*
X0179593Y0059478D01*
X0179639Y0065149D02*
X0181184Y0065149D01*
X0180982Y0065448D02*
X0179739Y0065448D01*
X0179918Y0065746D02*
X0181007Y0065746D01*
X0181392Y0066045D02*
X0180267Y0066045D01*
X0184934Y0067239D02*
X0185664Y0067239D01*
X0185402Y0067537D02*
X0185026Y0067537D01*
M02*
