G75*
%MOIN*%
%OFA0B0*%
%FSLAX25Y25*%
%IPPOS*%
%LPD*%
%AMOC8*
5,1,8,0,0,1.08239X$1,22.5*
%
%ADD10C,0.00800*%
%ADD11C,0.00000*%
D10*
X0165833Y0055000D02*
X0165833Y0155000D01*
X0265833Y0155000D01*
X0265833Y0055000D01*
X0165833Y0055000D01*
D11*
X0169333Y0145000D02*
X0169335Y0145161D01*
X0169341Y0145321D01*
X0169351Y0145482D01*
X0169365Y0145642D01*
X0169383Y0145802D01*
X0169404Y0145961D01*
X0169430Y0146120D01*
X0169460Y0146278D01*
X0169493Y0146435D01*
X0169531Y0146592D01*
X0169572Y0146747D01*
X0169617Y0146901D01*
X0169666Y0147054D01*
X0169719Y0147206D01*
X0169775Y0147357D01*
X0169836Y0147506D01*
X0169899Y0147654D01*
X0169967Y0147800D01*
X0170038Y0147944D01*
X0170112Y0148086D01*
X0170190Y0148227D01*
X0170272Y0148365D01*
X0170357Y0148502D01*
X0170445Y0148636D01*
X0170537Y0148768D01*
X0170632Y0148898D01*
X0170730Y0149026D01*
X0170831Y0149151D01*
X0170935Y0149273D01*
X0171042Y0149393D01*
X0171152Y0149510D01*
X0171265Y0149625D01*
X0171381Y0149736D01*
X0171500Y0149845D01*
X0171621Y0149950D01*
X0171745Y0150053D01*
X0171871Y0150153D01*
X0171999Y0150249D01*
X0172130Y0150342D01*
X0172264Y0150432D01*
X0172399Y0150519D01*
X0172537Y0150602D01*
X0172676Y0150682D01*
X0172818Y0150758D01*
X0172961Y0150831D01*
X0173106Y0150900D01*
X0173253Y0150966D01*
X0173401Y0151028D01*
X0173551Y0151086D01*
X0173702Y0151141D01*
X0173855Y0151192D01*
X0174009Y0151239D01*
X0174164Y0151282D01*
X0174320Y0151321D01*
X0174476Y0151357D01*
X0174634Y0151388D01*
X0174792Y0151416D01*
X0174951Y0151440D01*
X0175111Y0151460D01*
X0175271Y0151476D01*
X0175431Y0151488D01*
X0175592Y0151496D01*
X0175753Y0151500D01*
X0175913Y0151500D01*
X0176074Y0151496D01*
X0176235Y0151488D01*
X0176395Y0151476D01*
X0176555Y0151460D01*
X0176715Y0151440D01*
X0176874Y0151416D01*
X0177032Y0151388D01*
X0177190Y0151357D01*
X0177346Y0151321D01*
X0177502Y0151282D01*
X0177657Y0151239D01*
X0177811Y0151192D01*
X0177964Y0151141D01*
X0178115Y0151086D01*
X0178265Y0151028D01*
X0178413Y0150966D01*
X0178560Y0150900D01*
X0178705Y0150831D01*
X0178848Y0150758D01*
X0178990Y0150682D01*
X0179129Y0150602D01*
X0179267Y0150519D01*
X0179402Y0150432D01*
X0179536Y0150342D01*
X0179667Y0150249D01*
X0179795Y0150153D01*
X0179921Y0150053D01*
X0180045Y0149950D01*
X0180166Y0149845D01*
X0180285Y0149736D01*
X0180401Y0149625D01*
X0180514Y0149510D01*
X0180624Y0149393D01*
X0180731Y0149273D01*
X0180835Y0149151D01*
X0180936Y0149026D01*
X0181034Y0148898D01*
X0181129Y0148768D01*
X0181221Y0148636D01*
X0181309Y0148502D01*
X0181394Y0148365D01*
X0181476Y0148227D01*
X0181554Y0148086D01*
X0181628Y0147944D01*
X0181699Y0147800D01*
X0181767Y0147654D01*
X0181830Y0147506D01*
X0181891Y0147357D01*
X0181947Y0147206D01*
X0182000Y0147054D01*
X0182049Y0146901D01*
X0182094Y0146747D01*
X0182135Y0146592D01*
X0182173Y0146435D01*
X0182206Y0146278D01*
X0182236Y0146120D01*
X0182262Y0145961D01*
X0182283Y0145802D01*
X0182301Y0145642D01*
X0182315Y0145482D01*
X0182325Y0145321D01*
X0182331Y0145161D01*
X0182333Y0145000D01*
X0182331Y0144839D01*
X0182325Y0144679D01*
X0182315Y0144518D01*
X0182301Y0144358D01*
X0182283Y0144198D01*
X0182262Y0144039D01*
X0182236Y0143880D01*
X0182206Y0143722D01*
X0182173Y0143565D01*
X0182135Y0143408D01*
X0182094Y0143253D01*
X0182049Y0143099D01*
X0182000Y0142946D01*
X0181947Y0142794D01*
X0181891Y0142643D01*
X0181830Y0142494D01*
X0181767Y0142346D01*
X0181699Y0142200D01*
X0181628Y0142056D01*
X0181554Y0141914D01*
X0181476Y0141773D01*
X0181394Y0141635D01*
X0181309Y0141498D01*
X0181221Y0141364D01*
X0181129Y0141232D01*
X0181034Y0141102D01*
X0180936Y0140974D01*
X0180835Y0140849D01*
X0180731Y0140727D01*
X0180624Y0140607D01*
X0180514Y0140490D01*
X0180401Y0140375D01*
X0180285Y0140264D01*
X0180166Y0140155D01*
X0180045Y0140050D01*
X0179921Y0139947D01*
X0179795Y0139847D01*
X0179667Y0139751D01*
X0179536Y0139658D01*
X0179402Y0139568D01*
X0179267Y0139481D01*
X0179129Y0139398D01*
X0178990Y0139318D01*
X0178848Y0139242D01*
X0178705Y0139169D01*
X0178560Y0139100D01*
X0178413Y0139034D01*
X0178265Y0138972D01*
X0178115Y0138914D01*
X0177964Y0138859D01*
X0177811Y0138808D01*
X0177657Y0138761D01*
X0177502Y0138718D01*
X0177346Y0138679D01*
X0177190Y0138643D01*
X0177032Y0138612D01*
X0176874Y0138584D01*
X0176715Y0138560D01*
X0176555Y0138540D01*
X0176395Y0138524D01*
X0176235Y0138512D01*
X0176074Y0138504D01*
X0175913Y0138500D01*
X0175753Y0138500D01*
X0175592Y0138504D01*
X0175431Y0138512D01*
X0175271Y0138524D01*
X0175111Y0138540D01*
X0174951Y0138560D01*
X0174792Y0138584D01*
X0174634Y0138612D01*
X0174476Y0138643D01*
X0174320Y0138679D01*
X0174164Y0138718D01*
X0174009Y0138761D01*
X0173855Y0138808D01*
X0173702Y0138859D01*
X0173551Y0138914D01*
X0173401Y0138972D01*
X0173253Y0139034D01*
X0173106Y0139100D01*
X0172961Y0139169D01*
X0172818Y0139242D01*
X0172676Y0139318D01*
X0172537Y0139398D01*
X0172399Y0139481D01*
X0172264Y0139568D01*
X0172130Y0139658D01*
X0171999Y0139751D01*
X0171871Y0139847D01*
X0171745Y0139947D01*
X0171621Y0140050D01*
X0171500Y0140155D01*
X0171381Y0140264D01*
X0171265Y0140375D01*
X0171152Y0140490D01*
X0171042Y0140607D01*
X0170935Y0140727D01*
X0170831Y0140849D01*
X0170730Y0140974D01*
X0170632Y0141102D01*
X0170537Y0141232D01*
X0170445Y0141364D01*
X0170357Y0141498D01*
X0170272Y0141635D01*
X0170190Y0141773D01*
X0170112Y0141914D01*
X0170038Y0142056D01*
X0169967Y0142200D01*
X0169899Y0142346D01*
X0169836Y0142494D01*
X0169775Y0142643D01*
X0169719Y0142794D01*
X0169666Y0142946D01*
X0169617Y0143099D01*
X0169572Y0143253D01*
X0169531Y0143408D01*
X0169493Y0143565D01*
X0169460Y0143722D01*
X0169430Y0143880D01*
X0169404Y0144039D01*
X0169383Y0144198D01*
X0169365Y0144358D01*
X0169351Y0144518D01*
X0169341Y0144679D01*
X0169335Y0144839D01*
X0169333Y0145000D01*
X0249333Y0145000D02*
X0249335Y0145161D01*
X0249341Y0145321D01*
X0249351Y0145482D01*
X0249365Y0145642D01*
X0249383Y0145802D01*
X0249404Y0145961D01*
X0249430Y0146120D01*
X0249460Y0146278D01*
X0249493Y0146435D01*
X0249531Y0146592D01*
X0249572Y0146747D01*
X0249617Y0146901D01*
X0249666Y0147054D01*
X0249719Y0147206D01*
X0249775Y0147357D01*
X0249836Y0147506D01*
X0249899Y0147654D01*
X0249967Y0147800D01*
X0250038Y0147944D01*
X0250112Y0148086D01*
X0250190Y0148227D01*
X0250272Y0148365D01*
X0250357Y0148502D01*
X0250445Y0148636D01*
X0250537Y0148768D01*
X0250632Y0148898D01*
X0250730Y0149026D01*
X0250831Y0149151D01*
X0250935Y0149273D01*
X0251042Y0149393D01*
X0251152Y0149510D01*
X0251265Y0149625D01*
X0251381Y0149736D01*
X0251500Y0149845D01*
X0251621Y0149950D01*
X0251745Y0150053D01*
X0251871Y0150153D01*
X0251999Y0150249D01*
X0252130Y0150342D01*
X0252264Y0150432D01*
X0252399Y0150519D01*
X0252537Y0150602D01*
X0252676Y0150682D01*
X0252818Y0150758D01*
X0252961Y0150831D01*
X0253106Y0150900D01*
X0253253Y0150966D01*
X0253401Y0151028D01*
X0253551Y0151086D01*
X0253702Y0151141D01*
X0253855Y0151192D01*
X0254009Y0151239D01*
X0254164Y0151282D01*
X0254320Y0151321D01*
X0254476Y0151357D01*
X0254634Y0151388D01*
X0254792Y0151416D01*
X0254951Y0151440D01*
X0255111Y0151460D01*
X0255271Y0151476D01*
X0255431Y0151488D01*
X0255592Y0151496D01*
X0255753Y0151500D01*
X0255913Y0151500D01*
X0256074Y0151496D01*
X0256235Y0151488D01*
X0256395Y0151476D01*
X0256555Y0151460D01*
X0256715Y0151440D01*
X0256874Y0151416D01*
X0257032Y0151388D01*
X0257190Y0151357D01*
X0257346Y0151321D01*
X0257502Y0151282D01*
X0257657Y0151239D01*
X0257811Y0151192D01*
X0257964Y0151141D01*
X0258115Y0151086D01*
X0258265Y0151028D01*
X0258413Y0150966D01*
X0258560Y0150900D01*
X0258705Y0150831D01*
X0258848Y0150758D01*
X0258990Y0150682D01*
X0259129Y0150602D01*
X0259267Y0150519D01*
X0259402Y0150432D01*
X0259536Y0150342D01*
X0259667Y0150249D01*
X0259795Y0150153D01*
X0259921Y0150053D01*
X0260045Y0149950D01*
X0260166Y0149845D01*
X0260285Y0149736D01*
X0260401Y0149625D01*
X0260514Y0149510D01*
X0260624Y0149393D01*
X0260731Y0149273D01*
X0260835Y0149151D01*
X0260936Y0149026D01*
X0261034Y0148898D01*
X0261129Y0148768D01*
X0261221Y0148636D01*
X0261309Y0148502D01*
X0261394Y0148365D01*
X0261476Y0148227D01*
X0261554Y0148086D01*
X0261628Y0147944D01*
X0261699Y0147800D01*
X0261767Y0147654D01*
X0261830Y0147506D01*
X0261891Y0147357D01*
X0261947Y0147206D01*
X0262000Y0147054D01*
X0262049Y0146901D01*
X0262094Y0146747D01*
X0262135Y0146592D01*
X0262173Y0146435D01*
X0262206Y0146278D01*
X0262236Y0146120D01*
X0262262Y0145961D01*
X0262283Y0145802D01*
X0262301Y0145642D01*
X0262315Y0145482D01*
X0262325Y0145321D01*
X0262331Y0145161D01*
X0262333Y0145000D01*
X0262331Y0144839D01*
X0262325Y0144679D01*
X0262315Y0144518D01*
X0262301Y0144358D01*
X0262283Y0144198D01*
X0262262Y0144039D01*
X0262236Y0143880D01*
X0262206Y0143722D01*
X0262173Y0143565D01*
X0262135Y0143408D01*
X0262094Y0143253D01*
X0262049Y0143099D01*
X0262000Y0142946D01*
X0261947Y0142794D01*
X0261891Y0142643D01*
X0261830Y0142494D01*
X0261767Y0142346D01*
X0261699Y0142200D01*
X0261628Y0142056D01*
X0261554Y0141914D01*
X0261476Y0141773D01*
X0261394Y0141635D01*
X0261309Y0141498D01*
X0261221Y0141364D01*
X0261129Y0141232D01*
X0261034Y0141102D01*
X0260936Y0140974D01*
X0260835Y0140849D01*
X0260731Y0140727D01*
X0260624Y0140607D01*
X0260514Y0140490D01*
X0260401Y0140375D01*
X0260285Y0140264D01*
X0260166Y0140155D01*
X0260045Y0140050D01*
X0259921Y0139947D01*
X0259795Y0139847D01*
X0259667Y0139751D01*
X0259536Y0139658D01*
X0259402Y0139568D01*
X0259267Y0139481D01*
X0259129Y0139398D01*
X0258990Y0139318D01*
X0258848Y0139242D01*
X0258705Y0139169D01*
X0258560Y0139100D01*
X0258413Y0139034D01*
X0258265Y0138972D01*
X0258115Y0138914D01*
X0257964Y0138859D01*
X0257811Y0138808D01*
X0257657Y0138761D01*
X0257502Y0138718D01*
X0257346Y0138679D01*
X0257190Y0138643D01*
X0257032Y0138612D01*
X0256874Y0138584D01*
X0256715Y0138560D01*
X0256555Y0138540D01*
X0256395Y0138524D01*
X0256235Y0138512D01*
X0256074Y0138504D01*
X0255913Y0138500D01*
X0255753Y0138500D01*
X0255592Y0138504D01*
X0255431Y0138512D01*
X0255271Y0138524D01*
X0255111Y0138540D01*
X0254951Y0138560D01*
X0254792Y0138584D01*
X0254634Y0138612D01*
X0254476Y0138643D01*
X0254320Y0138679D01*
X0254164Y0138718D01*
X0254009Y0138761D01*
X0253855Y0138808D01*
X0253702Y0138859D01*
X0253551Y0138914D01*
X0253401Y0138972D01*
X0253253Y0139034D01*
X0253106Y0139100D01*
X0252961Y0139169D01*
X0252818Y0139242D01*
X0252676Y0139318D01*
X0252537Y0139398D01*
X0252399Y0139481D01*
X0252264Y0139568D01*
X0252130Y0139658D01*
X0251999Y0139751D01*
X0251871Y0139847D01*
X0251745Y0139947D01*
X0251621Y0140050D01*
X0251500Y0140155D01*
X0251381Y0140264D01*
X0251265Y0140375D01*
X0251152Y0140490D01*
X0251042Y0140607D01*
X0250935Y0140727D01*
X0250831Y0140849D01*
X0250730Y0140974D01*
X0250632Y0141102D01*
X0250537Y0141232D01*
X0250445Y0141364D01*
X0250357Y0141498D01*
X0250272Y0141635D01*
X0250190Y0141773D01*
X0250112Y0141914D01*
X0250038Y0142056D01*
X0249967Y0142200D01*
X0249899Y0142346D01*
X0249836Y0142494D01*
X0249775Y0142643D01*
X0249719Y0142794D01*
X0249666Y0142946D01*
X0249617Y0143099D01*
X0249572Y0143253D01*
X0249531Y0143408D01*
X0249493Y0143565D01*
X0249460Y0143722D01*
X0249430Y0143880D01*
X0249404Y0144039D01*
X0249383Y0144198D01*
X0249365Y0144358D01*
X0249351Y0144518D01*
X0249341Y0144679D01*
X0249335Y0144839D01*
X0249333Y0145000D01*
M02*
