%
M48
M72
T01C0.0150
T02C0.0400
T03C0.1300
%
T01
X19033Y8500
X20733Y8100
X21783Y8100
X20933Y8850
X20583Y9400
X20283Y10000
X20083Y10350
X20283Y11200
X20883Y11700
X21783Y11850
X22033Y12250
X21383Y12900
X20383Y13300
X19583Y13500
X19233Y12900
X22583Y14000
X25083Y13000
X24183Y11100
X23783Y10900
X23083Y11000
X22783Y10300
X23383Y10000
X22233Y9300
X24383Y8400
X25083Y11000
T02
X17083Y7500
X17083Y8500
X17083Y9500
X17083Y10500
X17083Y11500
X17083Y12500
X26083Y12500
X26083Y11500
X26083Y10500
X26083Y9500
X26083Y8500
X26083Y7500
T03
X25583Y14500
X17583Y14500
M30
