G75*
%MOIN*%
%OFA0B0*%
%FSLAX25Y25*%
%IPPOS*%
%LPD*%
%AMOC8*
5,1,8,0,0,1.08239X$1,22.5*
%
%ADD10C,0.00600*%
%ADD11C,0.00800*%
%ADD12C,0.00591*%
%ADD13C,0.00300*%
D10*
X0175898Y0073867D02*
X0175898Y0076136D01*
X0176466Y0076703D01*
X0178167Y0076703D01*
X0178167Y0073300D01*
X0176466Y0073300D01*
X0175898Y0073867D01*
X0179582Y0073300D02*
X0179582Y0076703D01*
X0181850Y0076703D02*
X0179582Y0073300D01*
X0181850Y0073300D02*
X0181850Y0076703D01*
X0183265Y0076136D02*
X0183832Y0076703D01*
X0184966Y0076703D01*
X0185533Y0076136D01*
X0185533Y0073867D01*
X0184966Y0073300D01*
X0183832Y0073300D01*
X0183265Y0073867D01*
X0183265Y0075001D01*
X0184399Y0075001D01*
X0191533Y0077200D02*
X0191533Y0072800D01*
X0191535Y0072717D01*
X0191541Y0072634D01*
X0191550Y0072551D01*
X0191564Y0072469D01*
X0191581Y0072388D01*
X0191602Y0072307D01*
X0191626Y0072228D01*
X0191655Y0072150D01*
X0191686Y0072073D01*
X0191722Y0071998D01*
X0191760Y0071924D01*
X0191803Y0071852D01*
X0191848Y0071783D01*
X0191897Y0071715D01*
X0191948Y0071650D01*
X0192003Y0071587D01*
X0192060Y0071527D01*
X0192120Y0071470D01*
X0192183Y0071415D01*
X0192248Y0071364D01*
X0192316Y0071315D01*
X0192385Y0071270D01*
X0192457Y0071227D01*
X0192531Y0071189D01*
X0192606Y0071153D01*
X0192683Y0071122D01*
X0192761Y0071093D01*
X0192840Y0071069D01*
X0192921Y0071048D01*
X0193002Y0071031D01*
X0193084Y0071017D01*
X0193167Y0071008D01*
X0193250Y0071002D01*
X0193333Y0071000D01*
X0203333Y0071000D01*
X0203416Y0071002D01*
X0203499Y0071008D01*
X0203582Y0071017D01*
X0203664Y0071031D01*
X0203745Y0071048D01*
X0203826Y0071069D01*
X0203905Y0071093D01*
X0203983Y0071122D01*
X0204060Y0071153D01*
X0204135Y0071189D01*
X0204209Y0071227D01*
X0204281Y0071270D01*
X0204350Y0071315D01*
X0204418Y0071364D01*
X0204483Y0071415D01*
X0204546Y0071470D01*
X0204606Y0071527D01*
X0204663Y0071587D01*
X0204718Y0071650D01*
X0204769Y0071715D01*
X0204818Y0071783D01*
X0204863Y0071852D01*
X0204906Y0071924D01*
X0204944Y0071998D01*
X0204980Y0072073D01*
X0205011Y0072150D01*
X0205040Y0072228D01*
X0205064Y0072307D01*
X0205085Y0072388D01*
X0205102Y0072469D01*
X0205116Y0072551D01*
X0205125Y0072634D01*
X0205131Y0072717D01*
X0205133Y0072800D01*
X0205133Y0077200D01*
X0205131Y0077283D01*
X0205125Y0077366D01*
X0205116Y0077449D01*
X0205102Y0077531D01*
X0205085Y0077612D01*
X0205064Y0077693D01*
X0205040Y0077772D01*
X0205011Y0077850D01*
X0204980Y0077927D01*
X0204944Y0078002D01*
X0204906Y0078076D01*
X0204863Y0078148D01*
X0204818Y0078217D01*
X0204769Y0078285D01*
X0204718Y0078350D01*
X0204663Y0078413D01*
X0204606Y0078473D01*
X0204546Y0078530D01*
X0204483Y0078585D01*
X0204418Y0078636D01*
X0204350Y0078685D01*
X0204281Y0078730D01*
X0204209Y0078773D01*
X0204135Y0078811D01*
X0204060Y0078847D01*
X0203983Y0078878D01*
X0203905Y0078907D01*
X0203826Y0078931D01*
X0203745Y0078952D01*
X0203664Y0078969D01*
X0203582Y0078983D01*
X0203499Y0078992D01*
X0203416Y0078998D01*
X0203333Y0079000D01*
X0193333Y0079000D01*
X0193250Y0078998D01*
X0193167Y0078992D01*
X0193084Y0078983D01*
X0193002Y0078969D01*
X0192921Y0078952D01*
X0192840Y0078931D01*
X0192761Y0078907D01*
X0192683Y0078878D01*
X0192606Y0078847D01*
X0192531Y0078811D01*
X0192457Y0078773D01*
X0192385Y0078730D01*
X0192316Y0078685D01*
X0192248Y0078636D01*
X0192183Y0078585D01*
X0192120Y0078530D01*
X0192060Y0078473D01*
X0192003Y0078413D01*
X0191948Y0078350D01*
X0191897Y0078285D01*
X0191848Y0078217D01*
X0191803Y0078148D01*
X0191760Y0078076D01*
X0191722Y0078002D01*
X0191686Y0077927D01*
X0191655Y0077850D01*
X0191626Y0077772D01*
X0191602Y0077693D01*
X0191581Y0077612D01*
X0191564Y0077531D01*
X0191550Y0077449D01*
X0191541Y0077366D01*
X0191535Y0077283D01*
X0191533Y0077200D01*
X0195265Y0080300D02*
X0197533Y0080300D01*
X0196399Y0080300D02*
X0196399Y0083703D01*
X0197533Y0082569D01*
X0198948Y0082569D02*
X0198948Y0080300D01*
X0198948Y0082001D02*
X0201216Y0082001D01*
X0201216Y0082569D02*
X0201216Y0080300D01*
X0201216Y0082569D02*
X0200082Y0083703D01*
X0198948Y0082569D01*
X0188033Y0083867D02*
X0187466Y0083300D01*
X0186332Y0083300D01*
X0185765Y0083867D01*
X0185765Y0084434D01*
X0186332Y0085001D01*
X0186899Y0085001D01*
X0186332Y0085001D02*
X0185765Y0085569D01*
X0185765Y0086136D01*
X0186332Y0086703D01*
X0187466Y0086703D01*
X0188033Y0086136D01*
X0184350Y0083867D02*
X0183783Y0083867D01*
X0183783Y0083300D01*
X0184350Y0083300D01*
X0184350Y0083867D01*
X0182509Y0083867D02*
X0181941Y0083300D01*
X0180807Y0083300D01*
X0180240Y0083867D01*
X0180240Y0084434D01*
X0180807Y0085001D01*
X0181374Y0085001D01*
X0180807Y0085001D02*
X0180240Y0085569D01*
X0180240Y0086136D01*
X0180807Y0086703D01*
X0181941Y0086703D01*
X0182509Y0086136D01*
X0178825Y0086703D02*
X0178825Y0084434D01*
X0177691Y0083300D01*
X0176557Y0084434D01*
X0176557Y0086703D01*
X0176215Y0093300D02*
X0177917Y0095001D01*
X0178484Y0094434D02*
X0176215Y0096703D01*
X0178484Y0096703D02*
X0178484Y0093300D01*
X0179898Y0093300D02*
X0182167Y0093300D01*
X0182167Y0096703D01*
X0183582Y0096136D02*
X0184149Y0096703D01*
X0185283Y0096703D01*
X0185850Y0096136D01*
X0185850Y0093867D01*
X0185283Y0093300D01*
X0184149Y0093300D01*
X0183582Y0093867D01*
X0187265Y0093867D02*
X0187265Y0094434D01*
X0187832Y0095001D01*
X0188966Y0095001D01*
X0189533Y0095569D01*
X0189533Y0096136D01*
X0188966Y0096703D01*
X0187832Y0096703D01*
X0187265Y0096136D01*
X0187265Y0093867D02*
X0187832Y0093300D01*
X0188966Y0093300D01*
X0189533Y0093867D01*
X0188033Y0103300D02*
X0188033Y0106703D01*
X0186899Y0105569D01*
X0185765Y0106703D01*
X0185765Y0103300D01*
X0184350Y0103867D02*
X0184350Y0106136D01*
X0183783Y0106703D01*
X0182649Y0106703D01*
X0182082Y0106136D01*
X0182082Y0103867D01*
X0182649Y0103300D01*
X0183783Y0103300D01*
X0184350Y0103867D01*
X0180667Y0103867D02*
X0180100Y0103300D01*
X0178966Y0103300D01*
X0178398Y0103867D01*
X0178398Y0104434D01*
X0178966Y0105001D01*
X0180100Y0105001D01*
X0180667Y0105569D01*
X0180667Y0106136D01*
X0180100Y0106703D01*
X0178966Y0106703D01*
X0178398Y0106136D01*
X0176984Y0106703D02*
X0175850Y0106703D01*
X0176417Y0106703D02*
X0176417Y0103300D01*
X0176984Y0103300D02*
X0175850Y0103300D01*
X0176510Y0113300D02*
X0175943Y0113867D01*
X0175943Y0116136D01*
X0176510Y0116703D01*
X0177644Y0116703D01*
X0178212Y0116136D01*
X0178212Y0113867D01*
X0177644Y0113300D01*
X0176510Y0113300D01*
X0179626Y0113867D02*
X0180193Y0113300D01*
X0181328Y0113300D01*
X0181895Y0113867D01*
X0181328Y0115001D02*
X0180193Y0115001D01*
X0179626Y0114434D01*
X0179626Y0113867D01*
X0181328Y0115001D02*
X0181895Y0115569D01*
X0181895Y0116136D01*
X0181328Y0116703D01*
X0180193Y0116703D01*
X0179626Y0116136D01*
X0183216Y0116703D02*
X0184350Y0116703D01*
X0183783Y0116703D02*
X0183783Y0113300D01*
X0184350Y0113300D02*
X0183216Y0113300D01*
X0185765Y0113300D02*
X0185765Y0116703D01*
X0186899Y0115569D01*
X0188033Y0116703D01*
X0188033Y0113300D01*
X0181466Y0123300D02*
X0180332Y0123300D01*
X0179765Y0123867D01*
X0178350Y0123867D02*
X0177783Y0123300D01*
X0176649Y0123300D01*
X0176082Y0123867D01*
X0176082Y0124434D01*
X0176649Y0125001D01*
X0177783Y0125001D01*
X0178350Y0125569D01*
X0178350Y0126136D01*
X0177783Y0126703D01*
X0176649Y0126703D01*
X0176082Y0126136D01*
X0179765Y0126136D02*
X0180332Y0126703D01*
X0181466Y0126703D01*
X0182033Y0126136D01*
X0182033Y0123867D01*
X0181466Y0123300D01*
X0209833Y0132000D02*
X0209833Y0138000D01*
X0209835Y0138060D01*
X0209840Y0138121D01*
X0209849Y0138180D01*
X0209862Y0138239D01*
X0209878Y0138298D01*
X0209898Y0138355D01*
X0209921Y0138410D01*
X0209948Y0138465D01*
X0209977Y0138517D01*
X0210010Y0138568D01*
X0210046Y0138617D01*
X0210084Y0138663D01*
X0210126Y0138707D01*
X0210170Y0138749D01*
X0210216Y0138787D01*
X0210265Y0138823D01*
X0210316Y0138856D01*
X0210368Y0138885D01*
X0210423Y0138912D01*
X0210478Y0138935D01*
X0210535Y0138955D01*
X0210594Y0138971D01*
X0210653Y0138984D01*
X0210712Y0138993D01*
X0210773Y0138998D01*
X0210833Y0139000D01*
X0220833Y0139000D01*
X0220893Y0138998D01*
X0220954Y0138993D01*
X0221013Y0138984D01*
X0221072Y0138971D01*
X0221131Y0138955D01*
X0221188Y0138935D01*
X0221243Y0138912D01*
X0221298Y0138885D01*
X0221350Y0138856D01*
X0221401Y0138823D01*
X0221450Y0138787D01*
X0221496Y0138749D01*
X0221540Y0138707D01*
X0221582Y0138663D01*
X0221620Y0138617D01*
X0221656Y0138568D01*
X0221689Y0138517D01*
X0221718Y0138465D01*
X0221745Y0138410D01*
X0221768Y0138355D01*
X0221788Y0138298D01*
X0221804Y0138239D01*
X0221817Y0138180D01*
X0221826Y0138121D01*
X0221831Y0138060D01*
X0221833Y0138000D01*
X0221833Y0132000D01*
X0221831Y0131940D01*
X0221826Y0131879D01*
X0221817Y0131820D01*
X0221804Y0131761D01*
X0221788Y0131702D01*
X0221768Y0131645D01*
X0221745Y0131590D01*
X0221718Y0131535D01*
X0221689Y0131483D01*
X0221656Y0131432D01*
X0221620Y0131383D01*
X0221582Y0131337D01*
X0221540Y0131293D01*
X0221496Y0131251D01*
X0221450Y0131213D01*
X0221401Y0131177D01*
X0221350Y0131144D01*
X0221298Y0131115D01*
X0221243Y0131088D01*
X0221188Y0131065D01*
X0221131Y0131045D01*
X0221072Y0131029D01*
X0221013Y0131016D01*
X0220954Y0131007D01*
X0220893Y0131002D01*
X0220833Y0131000D01*
X0210833Y0131000D01*
X0210773Y0131002D01*
X0210712Y0131007D01*
X0210653Y0131016D01*
X0210594Y0131029D01*
X0210535Y0131045D01*
X0210478Y0131065D01*
X0210423Y0131088D01*
X0210368Y0131115D01*
X0210316Y0131144D01*
X0210265Y0131177D01*
X0210216Y0131213D01*
X0210170Y0131251D01*
X0210126Y0131293D01*
X0210084Y0131337D01*
X0210046Y0131383D01*
X0210010Y0131432D01*
X0209977Y0131483D01*
X0209948Y0131535D01*
X0209921Y0131590D01*
X0209898Y0131645D01*
X0209878Y0131702D01*
X0209862Y0131761D01*
X0209849Y0131820D01*
X0209840Y0131879D01*
X0209835Y0131940D01*
X0209833Y0132000D01*
X0212765Y0129703D02*
X0212765Y0126867D01*
X0213332Y0126300D01*
X0214466Y0126300D01*
X0215033Y0126867D01*
X0215033Y0129703D01*
X0216448Y0129136D02*
X0216448Y0128001D01*
X0217015Y0127434D01*
X0218716Y0127434D01*
X0218716Y0126300D02*
X0218716Y0129703D01*
X0217015Y0129703D01*
X0216448Y0129136D01*
X0218833Y0141000D02*
X0212833Y0141000D01*
X0212750Y0141002D01*
X0212667Y0141008D01*
X0212584Y0141017D01*
X0212502Y0141031D01*
X0212421Y0141048D01*
X0212340Y0141069D01*
X0212261Y0141093D01*
X0212183Y0141122D01*
X0212106Y0141153D01*
X0212031Y0141189D01*
X0211957Y0141227D01*
X0211885Y0141270D01*
X0211816Y0141315D01*
X0211748Y0141364D01*
X0211683Y0141415D01*
X0211620Y0141470D01*
X0211560Y0141527D01*
X0211503Y0141587D01*
X0211448Y0141650D01*
X0211397Y0141715D01*
X0211348Y0141783D01*
X0211303Y0141852D01*
X0211260Y0141924D01*
X0211222Y0141998D01*
X0211186Y0142073D01*
X0211155Y0142150D01*
X0211126Y0142228D01*
X0211102Y0142307D01*
X0211081Y0142388D01*
X0211064Y0142469D01*
X0211050Y0142551D01*
X0211041Y0142634D01*
X0211035Y0142717D01*
X0211033Y0142800D01*
X0211033Y0147200D01*
X0211035Y0147283D01*
X0211041Y0147366D01*
X0211050Y0147449D01*
X0211064Y0147531D01*
X0211081Y0147612D01*
X0211102Y0147693D01*
X0211126Y0147772D01*
X0211155Y0147850D01*
X0211186Y0147927D01*
X0211222Y0148002D01*
X0211260Y0148076D01*
X0211303Y0148148D01*
X0211348Y0148217D01*
X0211397Y0148285D01*
X0211448Y0148350D01*
X0211503Y0148413D01*
X0211560Y0148473D01*
X0211620Y0148530D01*
X0211683Y0148585D01*
X0211748Y0148636D01*
X0211816Y0148685D01*
X0211885Y0148730D01*
X0211957Y0148773D01*
X0212031Y0148811D01*
X0212106Y0148847D01*
X0212183Y0148878D01*
X0212261Y0148907D01*
X0212340Y0148931D01*
X0212421Y0148952D01*
X0212502Y0148969D01*
X0212584Y0148983D01*
X0212667Y0148992D01*
X0212750Y0148998D01*
X0212833Y0149000D01*
X0218833Y0149000D01*
X0218149Y0150300D02*
X0217015Y0150300D01*
X0216448Y0150867D01*
X0215033Y0150867D02*
X0214466Y0150300D01*
X0213332Y0150300D01*
X0212765Y0150867D01*
X0212765Y0151434D01*
X0213332Y0152001D01*
X0214466Y0152001D01*
X0215033Y0152569D01*
X0215033Y0153136D01*
X0214466Y0153703D01*
X0213332Y0153703D01*
X0212765Y0153136D01*
X0216448Y0153136D02*
X0217015Y0153703D01*
X0218149Y0153703D01*
X0218716Y0153136D01*
X0218716Y0150867D01*
X0218149Y0150300D01*
X0218833Y0149000D02*
X0218916Y0148998D01*
X0218999Y0148992D01*
X0219082Y0148983D01*
X0219164Y0148969D01*
X0219245Y0148952D01*
X0219326Y0148931D01*
X0219405Y0148907D01*
X0219483Y0148878D01*
X0219560Y0148847D01*
X0219635Y0148811D01*
X0219709Y0148773D01*
X0219781Y0148730D01*
X0219850Y0148685D01*
X0219918Y0148636D01*
X0219983Y0148585D01*
X0220046Y0148530D01*
X0220106Y0148473D01*
X0220163Y0148413D01*
X0220218Y0148350D01*
X0220269Y0148285D01*
X0220318Y0148217D01*
X0220363Y0148148D01*
X0220406Y0148076D01*
X0220444Y0148002D01*
X0220480Y0147927D01*
X0220511Y0147850D01*
X0220540Y0147772D01*
X0220564Y0147693D01*
X0220585Y0147612D01*
X0220602Y0147531D01*
X0220616Y0147449D01*
X0220625Y0147366D01*
X0220631Y0147283D01*
X0220633Y0147200D01*
X0220633Y0142800D01*
X0220631Y0142717D01*
X0220625Y0142634D01*
X0220616Y0142551D01*
X0220602Y0142469D01*
X0220585Y0142388D01*
X0220564Y0142307D01*
X0220540Y0142228D01*
X0220511Y0142150D01*
X0220480Y0142073D01*
X0220444Y0141998D01*
X0220406Y0141924D01*
X0220363Y0141852D01*
X0220318Y0141783D01*
X0220269Y0141715D01*
X0220218Y0141650D01*
X0220163Y0141587D01*
X0220106Y0141527D01*
X0220046Y0141470D01*
X0219983Y0141415D01*
X0219918Y0141364D01*
X0219850Y0141315D01*
X0219781Y0141270D01*
X0219709Y0141227D01*
X0219635Y0141189D01*
X0219560Y0141153D01*
X0219483Y0141122D01*
X0219405Y0141093D01*
X0219326Y0141069D01*
X0219245Y0141048D01*
X0219164Y0141031D01*
X0219082Y0141017D01*
X0218999Y0141008D01*
X0218916Y0141002D01*
X0218833Y0141000D01*
X0242948Y0126136D02*
X0243515Y0126703D01*
X0244649Y0126703D01*
X0245216Y0126136D01*
X0245216Y0123867D01*
X0244649Y0123300D01*
X0243515Y0123300D01*
X0242948Y0123867D01*
X0242948Y0125001D01*
X0244082Y0125001D01*
X0246538Y0123300D02*
X0247672Y0123300D01*
X0247105Y0123300D02*
X0247105Y0126703D01*
X0247672Y0126703D02*
X0246538Y0126703D01*
X0249086Y0126136D02*
X0249086Y0125001D01*
X0249654Y0124434D01*
X0251355Y0124434D01*
X0251355Y0123300D02*
X0251355Y0126703D01*
X0249654Y0126703D01*
X0249086Y0126136D01*
X0250221Y0124434D02*
X0249086Y0123300D01*
X0253904Y0123300D02*
X0253904Y0126703D01*
X0255038Y0126703D02*
X0252770Y0126703D01*
X0252900Y0116703D02*
X0250631Y0113300D01*
X0250631Y0116703D01*
X0249216Y0116703D02*
X0246948Y0116703D01*
X0248082Y0116703D02*
X0248082Y0113300D01*
X0252900Y0113300D02*
X0252900Y0116703D01*
X0254221Y0116703D02*
X0255355Y0116703D01*
X0254788Y0116703D02*
X0254788Y0113300D01*
X0255355Y0113300D02*
X0254221Y0113300D01*
X0254516Y0106703D02*
X0253381Y0106703D01*
X0252814Y0106136D01*
X0253381Y0105001D02*
X0252814Y0104434D01*
X0252814Y0103867D01*
X0253381Y0103300D01*
X0254516Y0103300D01*
X0255083Y0103867D01*
X0254516Y0105001D02*
X0253381Y0105001D01*
X0254516Y0105001D02*
X0255083Y0105569D01*
X0255083Y0106136D01*
X0254516Y0106703D01*
X0251400Y0106136D02*
X0251400Y0103867D01*
X0250832Y0103300D01*
X0249698Y0103300D01*
X0249131Y0103867D01*
X0247716Y0103300D02*
X0245448Y0103300D01*
X0247716Y0103300D02*
X0247716Y0106703D01*
X0249131Y0106136D02*
X0249698Y0106703D01*
X0250832Y0106703D01*
X0251400Y0106136D01*
X0251400Y0096703D02*
X0249698Y0096703D01*
X0249131Y0096136D01*
X0249131Y0093867D01*
X0249698Y0093300D01*
X0251400Y0093300D01*
X0251400Y0096703D01*
X0252814Y0096136D02*
X0253381Y0096703D01*
X0254516Y0096703D01*
X0255083Y0096136D01*
X0255083Y0095569D01*
X0254516Y0095001D01*
X0253381Y0095001D01*
X0252814Y0094434D01*
X0252814Y0093867D01*
X0253381Y0093300D01*
X0254516Y0093300D01*
X0255083Y0093867D01*
X0247716Y0093300D02*
X0247716Y0095569D01*
X0246582Y0096703D01*
X0245448Y0095569D01*
X0245448Y0093300D01*
X0245448Y0095001D02*
X0247716Y0095001D01*
X0247698Y0086703D02*
X0247131Y0086136D01*
X0247131Y0085569D01*
X0247698Y0085001D01*
X0247131Y0084434D01*
X0247131Y0083867D01*
X0247698Y0083300D01*
X0248832Y0083300D01*
X0249400Y0083867D01*
X0250674Y0083867D02*
X0250674Y0083300D01*
X0251241Y0083300D01*
X0251241Y0083867D01*
X0250674Y0083867D01*
X0252656Y0083867D02*
X0253223Y0083300D01*
X0254357Y0083300D01*
X0254924Y0083867D01*
X0253790Y0085001D02*
X0253223Y0085001D01*
X0252656Y0084434D01*
X0252656Y0083867D01*
X0253223Y0085001D02*
X0252656Y0085569D01*
X0252656Y0086136D01*
X0253223Y0086703D01*
X0254357Y0086703D01*
X0254924Y0086136D01*
X0249400Y0086136D02*
X0248832Y0086703D01*
X0247698Y0086703D01*
X0247698Y0085001D02*
X0248265Y0085001D01*
X0245716Y0084434D02*
X0244582Y0083300D01*
X0243448Y0084434D01*
X0243448Y0086703D01*
X0245716Y0086703D02*
X0245716Y0084434D01*
X0238333Y0079000D02*
X0228333Y0079000D01*
X0228250Y0078998D01*
X0228167Y0078992D01*
X0228084Y0078983D01*
X0228002Y0078969D01*
X0227921Y0078952D01*
X0227840Y0078931D01*
X0227761Y0078907D01*
X0227683Y0078878D01*
X0227606Y0078847D01*
X0227531Y0078811D01*
X0227457Y0078773D01*
X0227385Y0078730D01*
X0227316Y0078685D01*
X0227248Y0078636D01*
X0227183Y0078585D01*
X0227120Y0078530D01*
X0227060Y0078473D01*
X0227003Y0078413D01*
X0226948Y0078350D01*
X0226897Y0078285D01*
X0226848Y0078217D01*
X0226803Y0078148D01*
X0226760Y0078076D01*
X0226722Y0078002D01*
X0226686Y0077927D01*
X0226655Y0077850D01*
X0226626Y0077772D01*
X0226602Y0077693D01*
X0226581Y0077612D01*
X0226564Y0077531D01*
X0226550Y0077449D01*
X0226541Y0077366D01*
X0226535Y0077283D01*
X0226533Y0077200D01*
X0226533Y0072800D01*
X0226535Y0072717D01*
X0226541Y0072634D01*
X0226550Y0072551D01*
X0226564Y0072469D01*
X0226581Y0072388D01*
X0226602Y0072307D01*
X0226626Y0072228D01*
X0226655Y0072150D01*
X0226686Y0072073D01*
X0226722Y0071998D01*
X0226760Y0071924D01*
X0226803Y0071852D01*
X0226848Y0071783D01*
X0226897Y0071715D01*
X0226948Y0071650D01*
X0227003Y0071587D01*
X0227060Y0071527D01*
X0227120Y0071470D01*
X0227183Y0071415D01*
X0227248Y0071364D01*
X0227316Y0071315D01*
X0227385Y0071270D01*
X0227457Y0071227D01*
X0227531Y0071189D01*
X0227606Y0071153D01*
X0227683Y0071122D01*
X0227761Y0071093D01*
X0227840Y0071069D01*
X0227921Y0071048D01*
X0228002Y0071031D01*
X0228084Y0071017D01*
X0228167Y0071008D01*
X0228250Y0071002D01*
X0228333Y0071000D01*
X0238333Y0071000D01*
X0238416Y0071002D01*
X0238499Y0071008D01*
X0238582Y0071017D01*
X0238664Y0071031D01*
X0238745Y0071048D01*
X0238826Y0071069D01*
X0238905Y0071093D01*
X0238983Y0071122D01*
X0239060Y0071153D01*
X0239135Y0071189D01*
X0239209Y0071227D01*
X0239281Y0071270D01*
X0239350Y0071315D01*
X0239418Y0071364D01*
X0239483Y0071415D01*
X0239546Y0071470D01*
X0239606Y0071527D01*
X0239663Y0071587D01*
X0239718Y0071650D01*
X0239769Y0071715D01*
X0239818Y0071783D01*
X0239863Y0071852D01*
X0239906Y0071924D01*
X0239944Y0071998D01*
X0239980Y0072073D01*
X0240011Y0072150D01*
X0240040Y0072228D01*
X0240064Y0072307D01*
X0240085Y0072388D01*
X0240102Y0072469D01*
X0240116Y0072551D01*
X0240125Y0072634D01*
X0240131Y0072717D01*
X0240133Y0072800D01*
X0240133Y0077200D01*
X0240131Y0077283D01*
X0240125Y0077366D01*
X0240116Y0077449D01*
X0240102Y0077531D01*
X0240085Y0077612D01*
X0240064Y0077693D01*
X0240040Y0077772D01*
X0240011Y0077850D01*
X0239980Y0077927D01*
X0239944Y0078002D01*
X0239906Y0078076D01*
X0239863Y0078148D01*
X0239818Y0078217D01*
X0239769Y0078285D01*
X0239718Y0078350D01*
X0239663Y0078413D01*
X0239606Y0078473D01*
X0239546Y0078530D01*
X0239483Y0078585D01*
X0239418Y0078636D01*
X0239350Y0078685D01*
X0239281Y0078730D01*
X0239209Y0078773D01*
X0239135Y0078811D01*
X0239060Y0078847D01*
X0238983Y0078878D01*
X0238905Y0078907D01*
X0238826Y0078931D01*
X0238745Y0078952D01*
X0238664Y0078969D01*
X0238582Y0078983D01*
X0238499Y0078992D01*
X0238416Y0078998D01*
X0238333Y0079000D01*
X0236216Y0080300D02*
X0236216Y0082569D01*
X0235082Y0083703D01*
X0233948Y0082569D01*
X0233948Y0080300D01*
X0232533Y0080867D02*
X0230265Y0083136D01*
X0230265Y0080867D01*
X0230832Y0080300D01*
X0231966Y0080300D01*
X0232533Y0080867D01*
X0232533Y0083136D01*
X0231966Y0083703D01*
X0230832Y0083703D01*
X0230265Y0083136D01*
X0233948Y0082001D02*
X0236216Y0082001D01*
X0245448Y0076136D02*
X0246015Y0076703D01*
X0247716Y0076703D01*
X0247716Y0073300D01*
X0246015Y0073300D01*
X0245448Y0073867D01*
X0245448Y0076136D01*
X0249131Y0076703D02*
X0249131Y0073300D01*
X0251400Y0076703D01*
X0251400Y0073300D01*
X0252814Y0073867D02*
X0252814Y0075001D01*
X0253948Y0075001D01*
X0252814Y0073867D02*
X0253381Y0073300D01*
X0254516Y0073300D01*
X0255083Y0073867D01*
X0255083Y0076136D01*
X0254516Y0076703D01*
X0253381Y0076703D01*
X0252814Y0076136D01*
D11*
X0233849Y0085400D02*
X0233849Y0089604D01*
X0232448Y0088202D01*
X0231047Y0089604D01*
X0231047Y0085400D01*
X0229245Y0085400D02*
X0226443Y0085400D01*
X0224641Y0085400D02*
X0221839Y0089604D01*
X0220037Y0088903D02*
X0220037Y0088202D01*
X0219337Y0087502D01*
X0217235Y0087502D01*
X0217235Y0086101D02*
X0217235Y0088903D01*
X0217935Y0089604D01*
X0219337Y0089604D01*
X0220037Y0088903D01*
X0221839Y0085400D02*
X0224641Y0089604D01*
X0229245Y0089604D02*
X0229245Y0085400D01*
X0220037Y0086101D02*
X0219337Y0085400D01*
X0217935Y0085400D01*
X0217235Y0086101D01*
X0215433Y0086101D02*
X0212631Y0088903D01*
X0212631Y0086101D01*
X0213332Y0085400D01*
X0214733Y0085400D01*
X0215433Y0086101D01*
X0215433Y0088903D01*
X0214733Y0089604D01*
X0213332Y0089604D01*
X0212631Y0088903D01*
X0210829Y0088903D02*
X0210129Y0089604D01*
X0208728Y0089604D01*
X0208027Y0088903D01*
X0208027Y0088202D01*
X0208728Y0087502D01*
X0208027Y0086801D01*
X0208027Y0086101D01*
X0208728Y0085400D01*
X0210129Y0085400D01*
X0210829Y0086101D01*
X0209428Y0087502D02*
X0208728Y0087502D01*
X0206226Y0088202D02*
X0205525Y0087502D01*
X0203423Y0087502D01*
X0203423Y0086101D02*
X0203423Y0088903D01*
X0204124Y0089604D01*
X0205525Y0089604D01*
X0206226Y0088903D01*
X0206226Y0088202D01*
X0201622Y0088903D02*
X0200921Y0089604D01*
X0199520Y0089604D01*
X0198819Y0088903D01*
X0198819Y0088202D01*
X0199520Y0087502D01*
X0198819Y0086801D01*
X0198819Y0086101D01*
X0199520Y0085400D01*
X0200921Y0085400D01*
X0201622Y0086101D01*
X0203423Y0086101D02*
X0204124Y0085400D01*
X0205525Y0085400D01*
X0206226Y0086101D01*
X0200220Y0087502D02*
X0199520Y0087502D01*
X0207260Y0092900D02*
X0209362Y0092900D01*
X0210062Y0093601D01*
X0210062Y0095002D01*
X0209362Y0095702D01*
X0207260Y0095702D01*
X0212431Y0095702D02*
X0212431Y0092900D01*
X0213131Y0092900D02*
X0211730Y0092900D01*
X0212431Y0095702D02*
X0213131Y0095702D01*
X0212431Y0097104D02*
X0212431Y0097804D01*
X0215500Y0097804D02*
X0215500Y0097104D01*
X0215500Y0095702D02*
X0215500Y0092900D01*
X0216201Y0092900D02*
X0214799Y0092900D01*
X0215500Y0095702D02*
X0216201Y0095702D01*
X0218002Y0095702D02*
X0218002Y0093601D01*
X0218703Y0092900D01*
X0219403Y0093601D01*
X0220104Y0092900D01*
X0220805Y0093601D01*
X0220805Y0095702D01*
X0222606Y0096403D02*
X0222606Y0093601D01*
X0223307Y0092900D01*
X0224708Y0092900D01*
X0225409Y0093601D01*
X0225409Y0096403D01*
X0224708Y0097104D01*
X0223307Y0097104D01*
X0222606Y0096403D01*
X0224007Y0094301D02*
X0222606Y0092900D01*
D12*
X0219469Y0100346D02*
X0217985Y0101557D01*
X0217387Y0101249D01*
X0216540Y0103295D01*
X0216918Y0103507D01*
X0217237Y0103801D01*
X0217478Y0104162D01*
X0217628Y0104569D01*
X0217679Y0105000D01*
X0217626Y0105439D01*
X0217470Y0105852D01*
X0217221Y0106217D01*
X0216892Y0106511D01*
X0216502Y0106720D01*
X0216074Y0106829D01*
X0215633Y0106834D01*
X0215202Y0106734D01*
X0214808Y0106534D01*
X0214473Y0106246D01*
X0214216Y0105887D01*
X0214051Y0105477D01*
X0213989Y0105040D01*
X0214032Y0104600D01*
X0214178Y0104184D01*
X0214420Y0103814D01*
X0214742Y0103512D01*
X0215127Y0103295D01*
X0214279Y0101249D01*
X0213682Y0101557D01*
X0212198Y0100346D01*
X0211180Y0101364D01*
X0212390Y0102848D01*
X0212082Y0103446D01*
X0211877Y0104087D01*
X0209972Y0104280D01*
X0209972Y0105720D01*
X0211877Y0105913D01*
X0212082Y0106554D01*
X0212390Y0107152D01*
X0211180Y0108636D01*
X0212198Y0109654D01*
X0213682Y0108443D01*
X0214280Y0108751D01*
X0214920Y0108956D01*
X0215114Y0110861D01*
X0216553Y0110861D01*
X0216747Y0108956D01*
X0217387Y0108751D01*
X0217985Y0108443D01*
X0219469Y0109654D01*
X0220487Y0108636D01*
X0219277Y0107152D01*
X0219585Y0106554D01*
X0219790Y0105913D01*
X0221695Y0105720D01*
X0221695Y0104280D01*
X0219790Y0104087D01*
X0219585Y0103446D01*
X0219277Y0102848D01*
X0220487Y0101364D01*
X0219469Y0100346D01*
X0219481Y0100358D02*
X0219455Y0100358D01*
X0220070Y0100947D02*
X0218733Y0100947D01*
X0218010Y0101536D02*
X0220347Y0101536D01*
X0219866Y0102125D02*
X0217024Y0102125D01*
X0216780Y0102714D02*
X0219386Y0102714D01*
X0219511Y0103303D02*
X0216554Y0103303D01*
X0217298Y0103892D02*
X0219727Y0103892D01*
X0221695Y0104481D02*
X0217596Y0104481D01*
X0217671Y0105070D02*
X0221695Y0105070D01*
X0221695Y0105659D02*
X0217543Y0105659D01*
X0217185Y0106248D02*
X0219682Y0106248D01*
X0219438Y0106837D02*
X0212228Y0106837D01*
X0212166Y0107427D02*
X0219501Y0107427D01*
X0219981Y0108016D02*
X0211685Y0108016D01*
X0211205Y0108605D02*
X0213484Y0108605D01*
X0213995Y0108605D02*
X0217672Y0108605D01*
X0218183Y0108605D02*
X0220461Y0108605D01*
X0219929Y0109194D02*
X0218905Y0109194D01*
X0216723Y0109194D02*
X0214944Y0109194D01*
X0215004Y0109783D02*
X0216663Y0109783D01*
X0216603Y0110372D02*
X0215064Y0110372D01*
X0212761Y0109194D02*
X0211738Y0109194D01*
X0211984Y0106248D02*
X0214476Y0106248D01*
X0214124Y0105659D02*
X0209972Y0105659D01*
X0209972Y0105070D02*
X0213993Y0105070D01*
X0214074Y0104481D02*
X0209972Y0104481D01*
X0211939Y0103892D02*
X0214369Y0103892D01*
X0215112Y0103303D02*
X0212156Y0103303D01*
X0212280Y0102714D02*
X0214886Y0102714D01*
X0214642Y0102125D02*
X0211800Y0102125D01*
X0211320Y0101536D02*
X0213656Y0101536D01*
X0213722Y0101536D02*
X0214398Y0101536D01*
X0212934Y0100947D02*
X0211597Y0100947D01*
X0212186Y0100358D02*
X0212211Y0100358D01*
X0217268Y0101536D02*
X0217945Y0101536D01*
D13*
X0229318Y0110894D02*
X0229475Y0111051D01*
X0229672Y0111248D01*
X0229869Y0111406D01*
X0230066Y0111563D01*
X0230262Y0111720D01*
X0230459Y0111917D01*
X0230617Y0112075D01*
X0230814Y0112232D01*
X0230814Y0119516D01*
X0230656Y0119555D01*
X0230459Y0119594D01*
X0230262Y0119594D01*
X0230105Y0119634D01*
X0229908Y0119673D01*
X0229751Y0119713D01*
X0229554Y0119752D01*
X0229357Y0119791D01*
X0229357Y0119083D01*
X0229199Y0119280D01*
X0229042Y0119437D01*
X0228845Y0119594D01*
X0228648Y0119713D01*
X0228451Y0119831D01*
X0228215Y0119870D01*
X0227979Y0119909D01*
X0227703Y0119909D01*
X0227113Y0119870D01*
X0226562Y0119673D01*
X0226129Y0119398D01*
X0225774Y0119004D01*
X0225499Y0118571D01*
X0225341Y0118059D01*
X0225223Y0117508D01*
X0225184Y0116917D01*
X0226719Y0116957D01*
X0226719Y0117311D01*
X0226759Y0117626D01*
X0226877Y0117941D01*
X0226995Y0118217D01*
X0227192Y0118453D01*
X0227428Y0118610D01*
X0227703Y0118728D01*
X0228058Y0118768D01*
X0228373Y0118728D01*
X0228688Y0118610D01*
X0228885Y0118453D01*
X0229081Y0118217D01*
X0229199Y0117941D01*
X0229318Y0117626D01*
X0229357Y0117311D01*
X0229357Y0116642D01*
X0229278Y0116327D01*
X0229199Y0116012D01*
X0229081Y0115736D01*
X0228885Y0115539D01*
X0228648Y0115343D01*
X0228373Y0115264D01*
X0228018Y0115224D01*
X0227703Y0115264D01*
X0227388Y0115343D01*
X0227152Y0115539D01*
X0226995Y0115736D01*
X0226877Y0116012D01*
X0225538Y0115382D01*
X0225774Y0114949D01*
X0226129Y0114594D01*
X0226562Y0114280D01*
X0227034Y0114122D01*
X0227625Y0114043D01*
X0227861Y0114083D01*
X0228097Y0114122D01*
X0228333Y0114161D01*
X0228570Y0114280D01*
X0228766Y0114398D01*
X0228963Y0114516D01*
X0229121Y0114713D01*
X0229278Y0114909D01*
X0229318Y0114909D01*
X0229318Y0110894D01*
X0229318Y0111120D02*
X0229544Y0111120D01*
X0229318Y0111419D02*
X0229885Y0111419D01*
X0230258Y0111717D02*
X0229318Y0111717D01*
X0229318Y0112016D02*
X0230558Y0112016D01*
X0230814Y0112314D02*
X0229318Y0112314D01*
X0229318Y0112613D02*
X0230814Y0112613D01*
X0230814Y0112911D02*
X0229318Y0112911D01*
X0229318Y0113210D02*
X0230814Y0113210D01*
X0230814Y0113508D02*
X0229318Y0113508D01*
X0229318Y0113807D02*
X0230814Y0113807D01*
X0230814Y0114105D02*
X0229318Y0114105D01*
X0229318Y0114404D02*
X0230814Y0114404D01*
X0230814Y0114702D02*
X0229318Y0114702D01*
X0229112Y0114702D02*
X0226021Y0114702D01*
X0225746Y0115001D02*
X0230814Y0115001D01*
X0230814Y0115299D02*
X0228497Y0115299D01*
X0228943Y0115598D02*
X0230814Y0115598D01*
X0230814Y0115896D02*
X0229150Y0115896D01*
X0229245Y0116195D02*
X0230814Y0116195D01*
X0230814Y0116493D02*
X0229320Y0116493D01*
X0229357Y0116792D02*
X0230814Y0116792D01*
X0230814Y0117090D02*
X0229357Y0117090D01*
X0229347Y0117389D02*
X0230814Y0117389D01*
X0230814Y0117687D02*
X0229295Y0117687D01*
X0229180Y0117986D02*
X0230814Y0117986D01*
X0230814Y0118284D02*
X0229025Y0118284D01*
X0228722Y0118583D02*
X0230814Y0118583D01*
X0230814Y0118881D02*
X0225696Y0118881D01*
X0225506Y0118583D02*
X0227387Y0118583D01*
X0227051Y0118284D02*
X0225411Y0118284D01*
X0225326Y0117986D02*
X0226896Y0117986D01*
X0226782Y0117687D02*
X0225262Y0117687D01*
X0225215Y0117389D02*
X0226729Y0117389D01*
X0226719Y0117090D02*
X0225195Y0117090D01*
X0225184Y0116917D02*
X0225223Y0116366D01*
X0225341Y0115854D01*
X0225538Y0115382D01*
X0226877Y0116012D01*
X0226759Y0116327D01*
X0226719Y0116642D01*
X0226719Y0116957D01*
X0225184Y0116917D01*
X0225193Y0116792D02*
X0226719Y0116792D01*
X0226738Y0116493D02*
X0225214Y0116493D01*
X0225263Y0116195D02*
X0226808Y0116195D01*
X0226926Y0115896D02*
X0226631Y0115896D01*
X0225332Y0115896D01*
X0225448Y0115598D02*
X0225997Y0115598D01*
X0227105Y0115598D01*
X0227561Y0115299D02*
X0225583Y0115299D01*
X0224711Y0115303D02*
X0224711Y0115500D01*
X0224751Y0115697D01*
X0224672Y0116130D01*
X0224554Y0116484D01*
X0224396Y0116760D01*
X0224121Y0116996D01*
X0223845Y0117154D01*
X0223530Y0117272D01*
X0223215Y0117350D01*
X0222861Y0117390D01*
X0222546Y0116563D01*
X0222664Y0116524D01*
X0222743Y0116484D01*
X0222782Y0116445D01*
X0222861Y0116406D01*
X0222940Y0116366D01*
X0222979Y0116327D01*
X0223058Y0116287D01*
X0223097Y0116209D01*
X0223136Y0116130D01*
X0223176Y0116051D01*
X0223176Y0115972D01*
X0223215Y0115894D01*
X0223215Y0115697D01*
X0223176Y0115579D01*
X0223176Y0115500D01*
X0223136Y0115421D01*
X0223097Y0115382D01*
X0223058Y0115303D01*
X0222979Y0115264D01*
X0222940Y0115224D01*
X0222861Y0115185D01*
X0222782Y0115146D01*
X0222703Y0115146D01*
X0222625Y0115106D01*
X0222546Y0115106D01*
X0222467Y0115067D01*
X0222270Y0115067D01*
X0222073Y0115106D01*
X0221877Y0115106D01*
X0221719Y0115185D01*
X0221562Y0115224D01*
X0221444Y0115303D01*
X0221365Y0115382D01*
X0221286Y0115500D01*
X0221207Y0115579D01*
X0221168Y0115697D01*
X0221129Y0115815D01*
X0221089Y0115894D01*
X0221050Y0116012D01*
X0221050Y0116917D01*
X0221089Y0116878D01*
X0221129Y0116839D01*
X0221207Y0116839D01*
X0221286Y0116799D01*
X0221365Y0116760D01*
X0221444Y0116760D01*
X0221522Y0116720D01*
X0221680Y0116720D01*
X0221877Y0117508D01*
X0221601Y0117587D01*
X0221365Y0117665D01*
X0221168Y0117783D01*
X0221050Y0117941D01*
X0221050Y0118374D01*
X0221089Y0118453D01*
X0221129Y0118531D01*
X0221168Y0118610D01*
X0221207Y0118650D01*
X0221247Y0118728D01*
X0221325Y0118768D01*
X0221404Y0118807D01*
X0221483Y0118846D01*
X0221562Y0118846D01*
X0221640Y0118886D01*
X0222349Y0118886D01*
X0222428Y0118846D01*
X0222507Y0118807D01*
X0222585Y0118768D01*
X0222664Y0118728D01*
X0222743Y0118689D01*
X0222782Y0118650D01*
X0222861Y0118571D01*
X0222900Y0118531D01*
X0222940Y0118453D01*
X0222979Y0118335D01*
X0223018Y0118256D01*
X0223018Y0118059D01*
X0224554Y0118059D01*
X0224514Y0118295D01*
X0224475Y0118531D01*
X0224396Y0118768D01*
X0224278Y0118925D01*
X0224160Y0119122D01*
X0224042Y0119280D01*
X0223885Y0119398D01*
X0223688Y0119516D01*
X0223491Y0119634D01*
X0223294Y0119713D01*
X0223097Y0119752D01*
X0222861Y0119831D01*
X0222625Y0119870D01*
X0222428Y0119909D01*
X0221522Y0119909D01*
X0221325Y0119870D01*
X0221089Y0119870D01*
X0220892Y0119831D01*
X0220696Y0119752D01*
X0220499Y0119713D01*
X0220302Y0119634D01*
X0220144Y0119516D01*
X0219987Y0119398D01*
X0219829Y0119280D01*
X0219711Y0119122D01*
X0219633Y0118965D01*
X0219554Y0118768D01*
X0219514Y0118571D01*
X0219514Y0115146D01*
X0219475Y0115067D01*
X0219475Y0114713D01*
X0219436Y0114634D01*
X0219436Y0114555D01*
X0219396Y0114476D01*
X0219396Y0114358D01*
X0219357Y0114280D01*
X0219318Y0114240D01*
X0219318Y0114201D01*
X0220853Y0114201D01*
X0220853Y0114240D01*
X0220892Y0114280D01*
X0220892Y0114319D01*
X0220932Y0114358D01*
X0220932Y0114476D01*
X0220971Y0114516D01*
X0220971Y0114752D01*
X0221050Y0114634D01*
X0221168Y0114555D01*
X0221247Y0114476D01*
X0221365Y0114398D01*
X0221483Y0114358D01*
X0221601Y0114280D01*
X0221719Y0114240D01*
X0221837Y0114201D01*
X0221955Y0114161D01*
X0222073Y0114122D01*
X0222192Y0114122D01*
X0222310Y0114083D01*
X0222467Y0114083D01*
X0222585Y0114043D01*
X0223018Y0114043D01*
X0223215Y0114083D01*
X0223412Y0114083D01*
X0223570Y0114122D01*
X0223766Y0114201D01*
X0223924Y0114280D01*
X0224042Y0114358D01*
X0224199Y0114437D01*
X0224318Y0114555D01*
X0224396Y0114673D01*
X0224514Y0114831D01*
X0224593Y0114949D01*
X0224633Y0115146D01*
X0224711Y0115303D01*
X0224709Y0115299D02*
X0223050Y0115299D01*
X0223182Y0115598D02*
X0224731Y0115598D01*
X0224714Y0115896D02*
X0223214Y0115896D01*
X0223104Y0116195D02*
X0224650Y0116195D01*
X0224549Y0116493D02*
X0222725Y0116493D01*
X0222546Y0116563D02*
X0222861Y0117390D01*
X0222507Y0117429D01*
X0222152Y0117469D01*
X0221877Y0117508D01*
X0221680Y0116720D01*
X0221759Y0116681D01*
X0221837Y0116681D01*
X0221955Y0116642D01*
X0222113Y0116642D01*
X0222231Y0116602D01*
X0222388Y0116602D01*
X0222467Y0116563D01*
X0222546Y0116563D01*
X0222633Y0116792D02*
X0221698Y0116792D01*
X0221301Y0116792D01*
X0221050Y0116792D02*
X0219514Y0116792D01*
X0219514Y0117090D02*
X0221772Y0117090D01*
X0222747Y0117090D01*
X0223956Y0117090D01*
X0224359Y0116792D02*
X0222633Y0116792D01*
X0222861Y0117389D02*
X0221847Y0117389D01*
X0219514Y0117389D01*
X0219514Y0117687D02*
X0221328Y0117687D01*
X0221050Y0117986D02*
X0219514Y0117986D01*
X0219514Y0118284D02*
X0221050Y0118284D01*
X0221154Y0118583D02*
X0219517Y0118583D01*
X0219599Y0118881D02*
X0221632Y0118881D01*
X0222358Y0118881D02*
X0224311Y0118881D01*
X0224458Y0118583D02*
X0222849Y0118583D01*
X0223004Y0118284D02*
X0224516Y0118284D01*
X0224117Y0119180D02*
X0219755Y0119180D01*
X0220095Y0119478D02*
X0223750Y0119478D01*
X0223022Y0119777D02*
X0220758Y0119777D01*
X0218648Y0119516D02*
X0218648Y0118846D01*
X0218648Y0114201D01*
X0217113Y0114201D01*
X0217113Y0117075D01*
X0217034Y0117429D01*
X0216955Y0117705D01*
X0216798Y0117980D01*
X0216601Y0118217D01*
X0216325Y0118374D01*
X0216010Y0118453D01*
X0215617Y0118492D01*
X0215184Y0118492D01*
X0215105Y0118453D01*
X0215066Y0118453D01*
X0215066Y0119870D01*
X0215105Y0119870D01*
X0215144Y0119909D01*
X0215696Y0119909D01*
X0215971Y0119831D01*
X0216207Y0119752D01*
X0216483Y0119594D01*
X0216680Y0119437D01*
X0216877Y0119201D01*
X0217034Y0119004D01*
X0217192Y0118728D01*
X0217192Y0119791D01*
X0217349Y0119752D01*
X0217546Y0119713D01*
X0217743Y0119673D01*
X0217900Y0119634D01*
X0218097Y0119594D01*
X0218294Y0119594D01*
X0218451Y0119555D01*
X0218648Y0119516D01*
X0218648Y0119478D02*
X0217192Y0119478D01*
X0217192Y0119180D02*
X0218648Y0119180D01*
X0218648Y0118881D02*
X0217192Y0118881D01*
X0217104Y0118881D02*
X0215066Y0118881D01*
X0215066Y0118583D02*
X0218648Y0118583D01*
X0218648Y0118284D02*
X0216482Y0118284D01*
X0216793Y0117986D02*
X0218648Y0117986D01*
X0218648Y0117687D02*
X0216960Y0117687D01*
X0217043Y0117389D02*
X0218648Y0117389D01*
X0218648Y0117090D02*
X0217109Y0117090D01*
X0217113Y0116792D02*
X0218648Y0116792D01*
X0218648Y0116493D02*
X0217113Y0116493D01*
X0217113Y0116195D02*
X0218648Y0116195D01*
X0218648Y0115896D02*
X0217113Y0115896D01*
X0217113Y0115598D02*
X0218648Y0115598D01*
X0218648Y0115299D02*
X0217113Y0115299D01*
X0217113Y0115001D02*
X0218648Y0115001D01*
X0218648Y0114702D02*
X0217113Y0114702D01*
X0217113Y0114404D02*
X0218648Y0114404D01*
X0219396Y0114404D02*
X0220932Y0114404D01*
X0220971Y0114702D02*
X0219470Y0114702D01*
X0219475Y0115001D02*
X0224604Y0115001D01*
X0224418Y0114702D02*
X0221004Y0114702D01*
X0221356Y0114404D02*
X0224133Y0114404D01*
X0223502Y0114105D02*
X0222242Y0114105D01*
X0221449Y0115299D02*
X0219514Y0115299D01*
X0219514Y0115598D02*
X0221201Y0115598D01*
X0221088Y0115896D02*
X0219514Y0115896D01*
X0219514Y0116195D02*
X0221050Y0116195D01*
X0221050Y0116493D02*
X0219514Y0116493D01*
X0222861Y0117389D02*
X0222869Y0117389D01*
X0225933Y0119180D02*
X0229279Y0119180D01*
X0229357Y0119180D02*
X0230814Y0119180D01*
X0230814Y0119478D02*
X0229357Y0119478D01*
X0229357Y0119777D02*
X0229429Y0119777D01*
X0228990Y0119478D02*
X0226256Y0119478D01*
X0226852Y0119777D02*
X0228541Y0119777D01*
X0231680Y0118610D02*
X0231601Y0118138D01*
X0233058Y0118138D01*
X0233097Y0118335D01*
X0233176Y0118531D01*
X0233255Y0118650D01*
X0233373Y0118728D01*
X0233530Y0118807D01*
X0233727Y0118886D01*
X0234396Y0118886D01*
X0234514Y0118846D01*
X0234672Y0118807D01*
X0234790Y0118768D01*
X0234869Y0118650D01*
X0234948Y0118531D01*
X0234948Y0118374D01*
X0234908Y0118217D01*
X0234790Y0118059D01*
X0234633Y0117941D01*
X0234396Y0117823D01*
X0234160Y0117744D01*
X0233845Y0117705D01*
X0233530Y0117626D01*
X0233215Y0117547D01*
X0232900Y0117469D01*
X0232546Y0117390D01*
X0232270Y0117232D01*
X0231995Y0117075D01*
X0231759Y0116878D01*
X0231601Y0116642D01*
X0231483Y0116366D01*
X0231444Y0116012D01*
X0231522Y0115500D01*
X0231680Y0115067D01*
X0231916Y0114752D01*
X0232231Y0114476D01*
X0232625Y0114280D01*
X0233058Y0114161D01*
X0233530Y0114083D01*
X0234003Y0114043D01*
X0234475Y0114083D01*
X0234948Y0114161D01*
X0235381Y0114280D01*
X0235774Y0114476D01*
X0236089Y0114752D01*
X0236365Y0115106D01*
X0236522Y0115500D01*
X0236601Y0116012D01*
X0235341Y0116012D01*
X0235144Y0116012D01*
X0235144Y0115776D01*
X0235066Y0115579D01*
X0234948Y0115421D01*
X0234790Y0115303D01*
X0234633Y0115185D01*
X0234396Y0115146D01*
X0234199Y0115106D01*
X0233963Y0115067D01*
X0233806Y0115106D01*
X0233648Y0115106D01*
X0233491Y0115146D01*
X0233333Y0115224D01*
X0233176Y0115343D01*
X0233058Y0115461D01*
X0233018Y0115618D01*
X0232979Y0115776D01*
X0233018Y0115933D01*
X0233097Y0116091D01*
X0233255Y0116209D01*
X0233451Y0116327D01*
X0233688Y0116406D01*
X0234003Y0116484D01*
X0234318Y0116563D01*
X0234711Y0116642D01*
X0235066Y0116720D01*
X0235381Y0116839D01*
X0235656Y0116957D01*
X0235932Y0117114D01*
X0236168Y0117272D01*
X0236325Y0117508D01*
X0236444Y0117783D01*
X0236483Y0118138D01*
X0236444Y0118610D01*
X0236286Y0119004D01*
X0236010Y0119319D01*
X0235735Y0119555D01*
X0235341Y0119752D01*
X0234948Y0119831D01*
X0234514Y0119909D01*
X0233609Y0119909D01*
X0233176Y0119831D01*
X0232782Y0119713D01*
X0232428Y0119555D01*
X0232113Y0119319D01*
X0231877Y0119004D01*
X0231680Y0118610D01*
X0231675Y0118583D02*
X0233210Y0118583D01*
X0233087Y0118284D02*
X0231625Y0118284D01*
X0231815Y0118881D02*
X0233716Y0118881D01*
X0234410Y0118881D02*
X0236335Y0118881D01*
X0236446Y0118583D02*
X0234913Y0118583D01*
X0234925Y0118284D02*
X0236471Y0118284D01*
X0236466Y0117986D02*
X0234692Y0117986D01*
X0233776Y0117687D02*
X0236402Y0117687D01*
X0236246Y0117389D02*
X0232544Y0117389D01*
X0232022Y0117090D02*
X0235890Y0117090D01*
X0235256Y0116792D02*
X0231701Y0116792D01*
X0231537Y0116493D02*
X0234039Y0116493D01*
X0233236Y0116195D02*
X0231464Y0116195D01*
X0231461Y0115896D02*
X0233009Y0115896D01*
X0233023Y0115598D02*
X0231507Y0115598D01*
X0231595Y0115299D02*
X0233234Y0115299D01*
X0233395Y0114105D02*
X0234610Y0114105D01*
X0235629Y0114404D02*
X0232376Y0114404D01*
X0231973Y0114702D02*
X0236032Y0114702D01*
X0236283Y0115001D02*
X0231729Y0115001D01*
X0228777Y0114404D02*
X0226391Y0114404D01*
X0227160Y0114105D02*
X0227996Y0114105D01*
X0234785Y0115299D02*
X0236442Y0115299D01*
X0236537Y0115598D02*
X0235073Y0115598D01*
X0235144Y0115896D02*
X0236583Y0115896D01*
X0236132Y0119180D02*
X0232009Y0119180D01*
X0232326Y0119478D02*
X0235824Y0119478D01*
X0235216Y0119777D02*
X0232997Y0119777D01*
X0217249Y0119777D02*
X0217192Y0119777D01*
X0216628Y0119478D02*
X0215066Y0119478D01*
X0215066Y0119180D02*
X0216893Y0119180D01*
X0216132Y0119777D02*
X0215066Y0119777D01*
X0214475Y0119777D02*
X0212940Y0119777D01*
X0212940Y0120075D02*
X0214475Y0120075D01*
X0214475Y0120374D02*
X0212940Y0120374D01*
X0212940Y0120672D02*
X0214475Y0120672D01*
X0214475Y0120971D02*
X0212940Y0120971D01*
X0212940Y0121270D02*
X0214070Y0121270D01*
X0214475Y0121051D02*
X0214475Y0114201D01*
X0212940Y0114201D01*
X0212940Y0116130D01*
X0212349Y0116681D01*
X0210814Y0114201D01*
X0208963Y0114201D01*
X0211286Y0117744D01*
X0209199Y0119791D01*
X0211010Y0119791D01*
X0212940Y0117783D01*
X0212940Y0121878D01*
X0214475Y0121051D01*
X0213515Y0121568D02*
X0212940Y0121568D01*
X0212940Y0121867D02*
X0212961Y0121867D01*
X0211325Y0121867D02*
X0210471Y0121867D01*
X0210577Y0121760D02*
X0210341Y0121996D01*
X0210144Y0122272D01*
X0209869Y0122547D01*
X0209633Y0122783D01*
X0209436Y0123020D01*
X0209239Y0123177D01*
X0209042Y0123335D01*
X0208845Y0123453D01*
X0208609Y0123492D01*
X0207861Y0123492D01*
X0207388Y0123571D01*
X0206955Y0123689D01*
X0206562Y0123846D01*
X0206168Y0124083D01*
X0205853Y0124358D01*
X0205538Y0124673D01*
X0205262Y0125028D01*
X0204869Y0125736D01*
X0204672Y0126445D01*
X0204633Y0127154D01*
X0204751Y0127783D01*
X0204948Y0128335D01*
X0205223Y0128807D01*
X0205538Y0129161D01*
X0205853Y0129319D01*
X0205853Y0129004D01*
X0205892Y0128886D01*
X0205932Y0128768D01*
X0206050Y0128689D01*
X0206168Y0128650D01*
X0206444Y0128650D01*
X0206601Y0128728D01*
X0206759Y0128807D01*
X0206877Y0128886D01*
X0207034Y0129004D01*
X0207152Y0129083D01*
X0207270Y0129201D01*
X0207349Y0129358D01*
X0207428Y0129476D01*
X0207467Y0129634D01*
X0207507Y0129752D01*
X0207467Y0129870D01*
X0207428Y0129949D01*
X0207388Y0130067D01*
X0207310Y0130185D01*
X0207152Y0130303D01*
X0206995Y0130382D01*
X0206798Y0130421D01*
X0206640Y0130461D01*
X0206522Y0130461D01*
X0206404Y0130421D01*
X0206286Y0130421D01*
X0206325Y0130461D01*
X0206483Y0130579D01*
X0206719Y0130697D01*
X0207034Y0130815D01*
X0207388Y0130933D01*
X0207782Y0130933D01*
X0208215Y0130854D01*
X0208648Y0130618D01*
X0209003Y0130303D01*
X0209199Y0130028D01*
X0209318Y0129673D01*
X0209318Y0129358D01*
X0209239Y0129004D01*
X0209042Y0128650D01*
X0208766Y0128335D01*
X0208451Y0127980D01*
X0208176Y0127665D01*
X0208058Y0127390D01*
X0208058Y0127114D01*
X0208136Y0126878D01*
X0208294Y0126681D01*
X0208530Y0126524D01*
X0208845Y0126445D01*
X0209160Y0126445D01*
X0209357Y0126484D01*
X0209554Y0126563D01*
X0209672Y0126642D01*
X0209790Y0126760D01*
X0209869Y0126917D01*
X0209908Y0127035D01*
X0209908Y0127154D01*
X0209869Y0127272D01*
X0209790Y0127390D01*
X0209711Y0127469D01*
X0209633Y0127547D01*
X0209514Y0127587D01*
X0209436Y0127626D01*
X0209357Y0127665D01*
X0209318Y0127705D01*
X0209396Y0127744D01*
X0209475Y0127744D01*
X0209633Y0127783D01*
X0209948Y0127783D01*
X0210184Y0127744D01*
X0210381Y0127665D01*
X0210577Y0127587D01*
X0210735Y0127469D01*
X0210932Y0127350D01*
X0211050Y0127154D01*
X0211168Y0126917D01*
X0211247Y0126681D01*
X0211286Y0126327D01*
X0211325Y0125972D01*
X0211325Y0120933D01*
X0211286Y0120933D01*
X0211207Y0121051D01*
X0211089Y0121169D01*
X0210971Y0121327D01*
X0210774Y0121524D01*
X0210577Y0121760D01*
X0210737Y0121568D02*
X0211325Y0121568D01*
X0211325Y0121270D02*
X0211014Y0121270D01*
X0211261Y0120971D02*
X0211325Y0120971D01*
X0211325Y0122165D02*
X0210221Y0122165D01*
X0209952Y0122464D02*
X0211325Y0122464D01*
X0211325Y0122762D02*
X0209654Y0122762D01*
X0209385Y0123061D02*
X0211325Y0123061D01*
X0211325Y0123359D02*
X0209001Y0123359D01*
X0207070Y0123658D02*
X0211325Y0123658D01*
X0211325Y0123956D02*
X0206379Y0123956D01*
X0205971Y0124255D02*
X0211325Y0124255D01*
X0211325Y0124553D02*
X0205658Y0124553D01*
X0205399Y0124852D02*
X0211325Y0124852D01*
X0211325Y0125150D02*
X0205194Y0125150D01*
X0205029Y0125449D02*
X0211325Y0125449D01*
X0211325Y0125747D02*
X0204866Y0125747D01*
X0204783Y0126046D02*
X0211317Y0126046D01*
X0211284Y0126344D02*
X0204700Y0126344D01*
X0204661Y0126643D02*
X0208352Y0126643D01*
X0208115Y0126941D02*
X0204644Y0126941D01*
X0204649Y0127240D02*
X0208058Y0127240D01*
X0208121Y0127538D02*
X0204705Y0127538D01*
X0204770Y0127837D02*
X0208326Y0127837D01*
X0208589Y0128135D02*
X0204876Y0128135D01*
X0205005Y0128434D02*
X0208853Y0128434D01*
X0209088Y0128732D02*
X0206609Y0128732D01*
X0207074Y0129031D02*
X0209245Y0129031D01*
X0209311Y0129329D02*
X0207335Y0129329D01*
X0207466Y0129628D02*
X0209318Y0129628D01*
X0209233Y0129926D02*
X0207439Y0129926D01*
X0207257Y0130225D02*
X0209059Y0130225D01*
X0208755Y0130523D02*
X0206409Y0130523D01*
X0207055Y0130822D02*
X0208275Y0130822D01*
X0205853Y0129031D02*
X0205422Y0129031D01*
X0205179Y0128732D02*
X0205985Y0128732D01*
X0209642Y0127538D02*
X0210642Y0127538D01*
X0210998Y0127240D02*
X0209879Y0127240D01*
X0209877Y0126941D02*
X0211156Y0126941D01*
X0211251Y0126643D02*
X0209673Y0126643D01*
X0207310Y0121602D02*
X0206995Y0121760D01*
X0206601Y0121878D01*
X0205459Y0121878D01*
X0205381Y0121839D01*
X0205381Y0120736D01*
X0206050Y0120736D01*
X0206207Y0120697D01*
X0206286Y0120657D01*
X0206365Y0120618D01*
X0206444Y0120500D01*
X0206483Y0120421D01*
X0206483Y0120264D01*
X0206522Y0120106D01*
X0206522Y0119791D01*
X0205459Y0119791D01*
X0205459Y0118768D01*
X0206522Y0118768D01*
X0206522Y0114201D01*
X0208018Y0114201D01*
X0208018Y0118177D01*
X0208018Y0118768D01*
X0209554Y0118768D01*
X0209396Y0118886D01*
X0209278Y0119004D01*
X0209160Y0119122D01*
X0209003Y0119280D01*
X0208885Y0119398D01*
X0208766Y0119516D01*
X0208609Y0119634D01*
X0208491Y0119791D01*
X0208018Y0119791D01*
X0208018Y0120579D01*
X0207900Y0120894D01*
X0207782Y0121169D01*
X0207585Y0121406D01*
X0207310Y0121602D01*
X0207358Y0121568D02*
X0205381Y0121568D01*
X0205381Y0121270D02*
X0207699Y0121270D01*
X0207867Y0120971D02*
X0205381Y0120971D01*
X0205436Y0121867D02*
X0206639Y0121867D01*
X0206256Y0120672D02*
X0207983Y0120672D01*
X0208018Y0120374D02*
X0206483Y0120374D01*
X0206522Y0120075D02*
X0208018Y0120075D01*
X0208502Y0119777D02*
X0205459Y0119777D01*
X0205459Y0119478D02*
X0208804Y0119478D01*
X0209102Y0119180D02*
X0205459Y0119180D01*
X0205459Y0118881D02*
X0209402Y0118881D01*
X0209823Y0119180D02*
X0211598Y0119180D01*
X0211885Y0118881D02*
X0210127Y0118881D01*
X0210431Y0118583D02*
X0212172Y0118583D01*
X0212458Y0118284D02*
X0210735Y0118284D01*
X0211040Y0117986D02*
X0212745Y0117986D01*
X0212940Y0117986D02*
X0214475Y0117986D01*
X0214475Y0118284D02*
X0212940Y0118284D01*
X0212940Y0118583D02*
X0214475Y0118583D01*
X0214475Y0118881D02*
X0212940Y0118881D01*
X0212940Y0119180D02*
X0214475Y0119180D01*
X0214475Y0119478D02*
X0212940Y0119478D01*
X0211311Y0119478D02*
X0209518Y0119478D01*
X0209214Y0119777D02*
X0211024Y0119777D01*
X0211249Y0117687D02*
X0214475Y0117687D01*
X0214475Y0117389D02*
X0211053Y0117389D01*
X0210858Y0117090D02*
X0214475Y0117090D01*
X0214475Y0116792D02*
X0210662Y0116792D01*
X0210466Y0116493D02*
X0212233Y0116493D01*
X0212550Y0116493D02*
X0214475Y0116493D01*
X0214475Y0116195D02*
X0212870Y0116195D01*
X0212940Y0115896D02*
X0214475Y0115896D01*
X0214475Y0115598D02*
X0212940Y0115598D01*
X0212940Y0115299D02*
X0214475Y0115299D01*
X0214475Y0115001D02*
X0212940Y0115001D01*
X0212940Y0114702D02*
X0214475Y0114702D01*
X0214475Y0114404D02*
X0212940Y0114404D01*
X0211494Y0115299D02*
X0209683Y0115299D01*
X0209488Y0115001D02*
X0211309Y0115001D01*
X0211124Y0114702D02*
X0209292Y0114702D01*
X0209096Y0114404D02*
X0210939Y0114404D01*
X0211678Y0115598D02*
X0209879Y0115598D01*
X0210075Y0115896D02*
X0211863Y0115896D01*
X0212048Y0116195D02*
X0210270Y0116195D01*
X0208018Y0116195D02*
X0206522Y0116195D01*
X0206522Y0116493D02*
X0208018Y0116493D01*
X0208018Y0116792D02*
X0206522Y0116792D01*
X0206522Y0117090D02*
X0208018Y0117090D01*
X0208018Y0117389D02*
X0206522Y0117389D01*
X0206522Y0117687D02*
X0208018Y0117687D01*
X0208018Y0117986D02*
X0206522Y0117986D01*
X0206522Y0118284D02*
X0208018Y0118284D01*
X0208018Y0118583D02*
X0206522Y0118583D01*
X0204987Y0118583D02*
X0203491Y0118583D01*
X0203491Y0118881D02*
X0204987Y0118881D01*
X0204987Y0119180D02*
X0203491Y0119180D01*
X0203491Y0119478D02*
X0204987Y0119478D01*
X0204987Y0119777D02*
X0203491Y0119777D01*
X0203491Y0119791D02*
X0203491Y0116642D01*
X0203451Y0116327D01*
X0203412Y0116012D01*
X0203373Y0115776D01*
X0203255Y0115618D01*
X0203136Y0115461D01*
X0202940Y0115343D01*
X0202743Y0115303D01*
X0202507Y0115264D01*
X0202192Y0115303D01*
X0201955Y0115343D01*
X0201759Y0115461D01*
X0201601Y0115618D01*
X0201483Y0115854D01*
X0201365Y0116130D01*
X0201325Y0116445D01*
X0201325Y0119791D01*
X0199790Y0119791D01*
X0199790Y0114909D01*
X0199790Y0114201D01*
X0201247Y0114201D01*
X0201247Y0114988D01*
X0201286Y0114988D01*
X0201444Y0114752D01*
X0201601Y0114555D01*
X0201798Y0114398D01*
X0202034Y0114280D01*
X0202231Y0114201D01*
X0202467Y0114122D01*
X0202743Y0114083D01*
X0202979Y0114043D01*
X0203530Y0114083D01*
X0203963Y0114240D01*
X0204318Y0114437D01*
X0204593Y0114673D01*
X0204790Y0115028D01*
X0204908Y0115421D01*
X0204987Y0115854D01*
X0204987Y0119791D01*
X0203491Y0119791D01*
X0203491Y0118284D02*
X0204987Y0118284D01*
X0204987Y0117986D02*
X0203491Y0117986D01*
X0203491Y0117687D02*
X0204987Y0117687D01*
X0204987Y0117389D02*
X0203491Y0117389D01*
X0203491Y0117090D02*
X0204987Y0117090D01*
X0204987Y0116792D02*
X0203491Y0116792D01*
X0203472Y0116493D02*
X0204987Y0116493D01*
X0204987Y0116195D02*
X0203435Y0116195D01*
X0203393Y0115896D02*
X0204987Y0115896D01*
X0204940Y0115598D02*
X0203239Y0115598D01*
X0202720Y0115299D02*
X0204872Y0115299D01*
X0204775Y0115001D02*
X0199790Y0115001D01*
X0199790Y0115299D02*
X0202223Y0115299D01*
X0201621Y0115598D02*
X0199790Y0115598D01*
X0199790Y0115896D02*
X0201465Y0115896D01*
X0201357Y0116195D02*
X0199790Y0116195D01*
X0199790Y0116493D02*
X0201325Y0116493D01*
X0201325Y0116792D02*
X0199790Y0116792D01*
X0199790Y0117090D02*
X0201325Y0117090D01*
X0201325Y0117389D02*
X0199790Y0117389D01*
X0199790Y0117687D02*
X0201325Y0117687D01*
X0201325Y0117986D02*
X0199790Y0117986D01*
X0199790Y0118284D02*
X0201325Y0118284D01*
X0201325Y0118583D02*
X0199790Y0118583D01*
X0199790Y0118881D02*
X0201325Y0118881D01*
X0201325Y0119180D02*
X0199790Y0119180D01*
X0199790Y0119478D02*
X0201325Y0119478D01*
X0201325Y0119777D02*
X0199790Y0119777D01*
X0198963Y0119777D02*
X0197507Y0119777D01*
X0197507Y0119791D02*
X0197507Y0119004D01*
X0197467Y0119004D01*
X0197310Y0119240D01*
X0197152Y0119398D01*
X0196955Y0119555D01*
X0196719Y0119713D01*
X0196483Y0119791D01*
X0196247Y0119870D01*
X0196010Y0119909D01*
X0195774Y0119909D01*
X0195223Y0119870D01*
X0194790Y0119752D01*
X0194436Y0119555D01*
X0194160Y0119280D01*
X0193963Y0118965D01*
X0193845Y0118571D01*
X0193766Y0118138D01*
X0193727Y0117626D01*
X0193727Y0114201D01*
X0195262Y0114201D01*
X0195262Y0117350D01*
X0195302Y0117665D01*
X0195341Y0117941D01*
X0195381Y0118177D01*
X0195499Y0118374D01*
X0195617Y0118531D01*
X0195814Y0118650D01*
X0196010Y0118689D01*
X0196247Y0118728D01*
X0196562Y0118689D01*
X0196798Y0118650D01*
X0196995Y0118531D01*
X0197152Y0118335D01*
X0197270Y0118138D01*
X0197388Y0117862D01*
X0197428Y0117508D01*
X0197428Y0114201D01*
X0198963Y0114201D01*
X0198963Y0119083D01*
X0198963Y0119791D01*
X0197507Y0119791D01*
X0197507Y0119478D02*
X0198963Y0119478D01*
X0198963Y0119180D02*
X0197507Y0119180D01*
X0197350Y0119180D02*
X0194098Y0119180D01*
X0193938Y0118881D02*
X0198963Y0118881D01*
X0198963Y0118583D02*
X0196909Y0118583D01*
X0197182Y0118284D02*
X0198963Y0118284D01*
X0198963Y0117986D02*
X0197335Y0117986D01*
X0197408Y0117687D02*
X0198963Y0117687D01*
X0198963Y0117389D02*
X0197428Y0117389D01*
X0197428Y0117090D02*
X0198963Y0117090D01*
X0198963Y0116792D02*
X0197428Y0116792D01*
X0197428Y0116493D02*
X0198963Y0116493D01*
X0198963Y0116195D02*
X0197428Y0116195D01*
X0197428Y0115896D02*
X0198963Y0115896D01*
X0198963Y0115598D02*
X0197428Y0115598D01*
X0197428Y0115299D02*
X0198963Y0115299D01*
X0198963Y0115001D02*
X0197428Y0115001D01*
X0197428Y0114702D02*
X0198963Y0114702D01*
X0198963Y0114404D02*
X0197428Y0114404D01*
X0195262Y0114404D02*
X0193727Y0114404D01*
X0193727Y0114702D02*
X0195262Y0114702D01*
X0195262Y0115001D02*
X0193727Y0115001D01*
X0193727Y0115299D02*
X0195262Y0115299D01*
X0195262Y0115598D02*
X0193727Y0115598D01*
X0193727Y0115896D02*
X0195262Y0115896D01*
X0195262Y0116195D02*
X0193727Y0116195D01*
X0193727Y0116493D02*
X0195262Y0116493D01*
X0195262Y0116792D02*
X0193727Y0116792D01*
X0193727Y0117090D02*
X0195262Y0117090D01*
X0195267Y0117389D02*
X0193727Y0117389D01*
X0193732Y0117687D02*
X0195305Y0117687D01*
X0195349Y0117986D02*
X0193755Y0117986D01*
X0193793Y0118284D02*
X0195445Y0118284D01*
X0195702Y0118583D02*
X0193849Y0118583D01*
X0194359Y0119478D02*
X0197051Y0119478D01*
X0196526Y0119777D02*
X0194882Y0119777D01*
X0199790Y0114702D02*
X0201247Y0114702D01*
X0201483Y0114702D02*
X0204609Y0114702D01*
X0204258Y0114404D02*
X0201790Y0114404D01*
X0201247Y0114404D02*
X0199790Y0114404D01*
X0202585Y0114105D02*
X0203592Y0114105D01*
X0206522Y0114404D02*
X0208018Y0114404D01*
X0208018Y0114702D02*
X0206522Y0114702D01*
X0206522Y0115001D02*
X0208018Y0115001D01*
X0208018Y0115299D02*
X0206522Y0115299D01*
X0206522Y0115598D02*
X0208018Y0115598D01*
X0208018Y0115896D02*
X0206522Y0115896D01*
M02*
