G75*
%MOIN*%
%OFA0B0*%
%FSLAX25Y25*%
%IPPOS*%
%LPD*%
%AMOC8*
5,1,8,0,0,1.08239X$1,22.5*
%
%ADD10C,0.00886*%
%ADD11R,0.00787X0.00787*%
%ADD12R,0.04331X0.03937*%
%ADD13R,0.04724X0.07874*%
%ADD14R,0.02362X0.05315*%
D10*
X0212749Y0097841D02*
X0212749Y0100301D01*
X0213043Y0100301D01*
X0213043Y0097841D01*
X0212749Y0097841D01*
X0212749Y0098726D02*
X0213043Y0098726D01*
X0213043Y0099611D02*
X0212749Y0099611D01*
X0214718Y0100301D02*
X0214718Y0097841D01*
X0214718Y0100301D02*
X0215012Y0100301D01*
X0215012Y0097841D01*
X0214718Y0097841D01*
X0214718Y0098726D02*
X0215012Y0098726D01*
X0215012Y0099611D02*
X0214718Y0099611D01*
X0216686Y0100301D02*
X0216686Y0097841D01*
X0216686Y0100301D02*
X0216980Y0100301D01*
X0216980Y0097841D01*
X0216686Y0097841D01*
X0216686Y0098726D02*
X0216980Y0098726D01*
X0216980Y0099611D02*
X0216686Y0099611D01*
X0218655Y0100301D02*
X0218655Y0097841D01*
X0218655Y0100301D02*
X0218949Y0100301D01*
X0218949Y0097841D01*
X0218655Y0097841D01*
X0218655Y0098726D02*
X0218949Y0098726D01*
X0218949Y0099611D02*
X0218655Y0099611D01*
X0220493Y0102139D02*
X0222953Y0102139D01*
X0222953Y0101845D01*
X0220493Y0101845D01*
X0220493Y0102139D01*
X0220493Y0104108D02*
X0222953Y0104108D01*
X0222953Y0103814D01*
X0220493Y0103814D01*
X0220493Y0104108D01*
X0220493Y0106076D02*
X0222953Y0106076D01*
X0222953Y0105782D01*
X0220493Y0105782D01*
X0220493Y0106076D01*
X0220493Y0108045D02*
X0222953Y0108045D01*
X0222953Y0107751D01*
X0220493Y0107751D01*
X0220493Y0108045D01*
X0218949Y0109668D02*
X0218949Y0112128D01*
X0218949Y0109668D02*
X0218655Y0109668D01*
X0218655Y0112128D01*
X0218949Y0112128D01*
X0218949Y0110553D02*
X0218655Y0110553D01*
X0218655Y0111438D02*
X0218949Y0111438D01*
X0216980Y0112128D02*
X0216980Y0109668D01*
X0216686Y0109668D01*
X0216686Y0112128D01*
X0216980Y0112128D01*
X0216980Y0110553D02*
X0216686Y0110553D01*
X0216686Y0111438D02*
X0216980Y0111438D01*
X0215012Y0112128D02*
X0215012Y0109668D01*
X0214718Y0109668D01*
X0214718Y0112128D01*
X0215012Y0112128D01*
X0215012Y0110553D02*
X0214718Y0110553D01*
X0214718Y0111438D02*
X0215012Y0111438D01*
X0213043Y0112128D02*
X0213043Y0109668D01*
X0212749Y0109668D01*
X0212749Y0112128D01*
X0213043Y0112128D01*
X0213043Y0110553D02*
X0212749Y0110553D01*
X0212749Y0111438D02*
X0213043Y0111438D01*
X0211126Y0107790D02*
X0208666Y0107790D01*
X0208666Y0108084D01*
X0211126Y0108084D01*
X0211126Y0107790D01*
X0211126Y0105822D02*
X0208666Y0105822D01*
X0208666Y0106116D01*
X0211126Y0106116D01*
X0211126Y0105822D01*
X0211126Y0103853D02*
X0208666Y0103853D01*
X0208666Y0104147D01*
X0211126Y0104147D01*
X0211126Y0103853D01*
X0211126Y0101884D02*
X0208666Y0101884D01*
X0208666Y0102178D01*
X0211126Y0102178D01*
X0211126Y0101884D01*
D11*
X0214259Y0103425D03*
X0217408Y0103425D03*
X0217408Y0106575D03*
X0214259Y0106575D03*
D12*
X0197487Y0089000D03*
X0204180Y0089000D03*
X0227487Y0089000D03*
X0234180Y0089000D03*
X0234180Y0120000D03*
X0227487Y0120000D03*
X0204180Y0120000D03*
X0197487Y0120000D03*
D13*
X0204810Y0149469D03*
X0226857Y0149469D03*
X0226857Y0060531D03*
X0204810Y0060531D03*
D14*
X0209928Y0075000D03*
X0213865Y0075000D03*
X0217802Y0075000D03*
X0221739Y0075000D03*
X0221739Y0135000D03*
X0217802Y0135000D03*
X0213865Y0135000D03*
X0209928Y0135000D03*
M02*
