G75*
%MOIN*%
%OFA0B0*%
%FSLAX25Y25*%
%IPPOS*%
%LPD*%
%AMOC8*
5,1,8,0,0,1.08239X$1,22.5*
%
%ADD10C,0.00800*%
%ADD11C,0.07400*%
%ADD12R,0.02500X0.05000*%
%ADD13C,0.01000*%
%ADD14C,0.02500*%
%ADD15C,0.02900*%
%ADD16C,0.00700*%
D10*
X0167833Y0057000D02*
X0167833Y0070876D01*
X0168160Y0070638D01*
X0168876Y0070274D01*
X0169639Y0070026D01*
X0170432Y0069900D01*
X0170433Y0069900D01*
X0170433Y0074600D01*
X0171233Y0074600D01*
X0171233Y0069900D01*
X0171235Y0069900D01*
X0172028Y0070026D01*
X0172791Y0070274D01*
X0173506Y0070638D01*
X0174156Y0071110D01*
X0174723Y0071678D01*
X0175195Y0072327D01*
X0175560Y0073042D01*
X0175808Y0073806D01*
X0175933Y0074599D01*
X0175933Y0074600D01*
X0171233Y0074600D01*
X0171233Y0075400D01*
X0175933Y0075400D01*
X0175933Y0075401D01*
X0175808Y0076194D01*
X0175560Y0076958D01*
X0175195Y0077673D01*
X0174723Y0078322D01*
X0174156Y0078890D01*
X0173506Y0079362D01*
X0172791Y0079726D01*
X0172320Y0079879D01*
X0173836Y0080507D01*
X0175326Y0081998D01*
X0176133Y0083946D01*
X0176133Y0086054D01*
X0175326Y0088002D01*
X0173836Y0089493D01*
X0172612Y0090000D01*
X0173836Y0090507D01*
X0175326Y0091998D01*
X0175700Y0092900D01*
X0176703Y0092900D01*
X0198703Y0114900D01*
X0201865Y0114900D01*
X0201106Y0114586D01*
X0200248Y0113728D01*
X0199783Y0112607D01*
X0199783Y0111920D01*
X0195733Y0107870D01*
X0195733Y0099630D01*
X0199233Y0096130D01*
X0200463Y0094900D01*
X0202905Y0094900D01*
X0202783Y0094607D01*
X0202783Y0093920D01*
X0197463Y0088600D01*
X0196233Y0087370D01*
X0196233Y0083570D01*
X0193933Y0085870D01*
X0192703Y0087100D01*
X0192547Y0087100D01*
X0192061Y0087586D01*
X0190940Y0088050D01*
X0189727Y0088050D01*
X0188606Y0087586D01*
X0187748Y0086728D01*
X0187283Y0085607D01*
X0187283Y0084393D01*
X0187748Y0083272D01*
X0188606Y0082414D01*
X0189727Y0081950D01*
X0190940Y0081950D01*
X0191628Y0082235D01*
X0192233Y0081630D01*
X0192233Y0078913D01*
X0191483Y0078163D01*
X0191483Y0071837D01*
X0192233Y0071087D01*
X0192233Y0067630D01*
X0193463Y0066400D01*
X0195463Y0064400D01*
X0228203Y0064400D01*
X0229433Y0065630D01*
X0231433Y0067630D01*
X0231433Y0070900D01*
X0235246Y0070900D01*
X0235542Y0071196D01*
X0235543Y0071195D01*
X0235899Y0071100D01*
X0237108Y0071100D01*
X0237108Y0072900D01*
X0237558Y0072900D01*
X0237558Y0071100D01*
X0238768Y0071100D01*
X0239124Y0071195D01*
X0239443Y0071380D01*
X0239704Y0071640D01*
X0239888Y0071960D01*
X0239983Y0072316D01*
X0239983Y0074775D01*
X0239433Y0074775D01*
X0239433Y0075225D01*
X0239983Y0075225D01*
X0239983Y0077684D01*
X0239888Y0078040D01*
X0239704Y0078360D01*
X0239443Y0078620D01*
X0239124Y0078805D01*
X0238768Y0078900D01*
X0237558Y0078900D01*
X0237558Y0077100D01*
X0237108Y0077100D01*
X0237108Y0078900D01*
X0235899Y0078900D01*
X0235543Y0078805D01*
X0235542Y0078804D01*
X0235446Y0078900D01*
X0249203Y0078900D01*
X0250203Y0079900D01*
X0251433Y0081130D01*
X0251433Y0087370D01*
X0250203Y0088600D01*
X0243703Y0095100D01*
X0224547Y0095100D01*
X0224061Y0095586D01*
X0222940Y0096050D01*
X0221727Y0096050D01*
X0220606Y0095586D01*
X0219748Y0094728D01*
X0219283Y0093607D01*
X0219283Y0092393D01*
X0219748Y0091272D01*
X0219920Y0091100D01*
X0214203Y0091100D01*
X0210933Y0094370D01*
X0210933Y0096370D01*
X0209433Y0097870D01*
X0209403Y0097900D01*
X0231620Y0097900D01*
X0232106Y0097414D01*
X0233227Y0096950D01*
X0234440Y0096950D01*
X0235561Y0097414D01*
X0236047Y0097900D01*
X0242703Y0097900D01*
X0244963Y0097900D01*
X0255907Y0086956D01*
X0255533Y0086054D01*
X0255533Y0083946D01*
X0256340Y0081998D01*
X0257831Y0080507D01*
X0259346Y0079879D01*
X0258876Y0079726D01*
X0258160Y0079362D01*
X0257511Y0078890D01*
X0256943Y0078322D01*
X0256471Y0077673D01*
X0256107Y0076958D01*
X0255859Y0076194D01*
X0255733Y0075401D01*
X0255733Y0075400D01*
X0260433Y0075400D01*
X0260433Y0074600D01*
X0255733Y0074600D01*
X0255733Y0074599D01*
X0255859Y0073806D01*
X0256107Y0073042D01*
X0256471Y0072327D01*
X0256943Y0071678D01*
X0257511Y0071110D01*
X0258160Y0070638D01*
X0258876Y0070274D01*
X0259639Y0070026D01*
X0260432Y0069900D01*
X0260433Y0069900D01*
X0260433Y0074600D01*
X0261233Y0074600D01*
X0261233Y0069900D01*
X0261235Y0069900D01*
X0262028Y0070026D01*
X0262791Y0070274D01*
X0263506Y0070638D01*
X0263833Y0070876D01*
X0263833Y0061777D01*
X0262532Y0061343D01*
X0260977Y0061862D01*
X0260792Y0061769D01*
X0260629Y0061932D01*
X0260380Y0062181D01*
X0259457Y0063104D01*
X0258056Y0063104D01*
X0257920Y0063104D01*
X0257800Y0063104D01*
X0257800Y0063104D01*
X0256399Y0063104D01*
X0256399Y0063104D01*
X0255449Y0062154D01*
X0255276Y0061980D01*
X0254998Y0062258D01*
X0254153Y0063104D01*
X0252496Y0063104D01*
X0251902Y0062509D01*
X0251324Y0061932D01*
X0251324Y0058900D01*
X0251095Y0058900D01*
X0249923Y0057728D01*
X0249923Y0057000D01*
X0167833Y0057000D01*
X0167833Y0057396D02*
X0169674Y0057396D01*
X0169219Y0057584D02*
X0170266Y0057150D01*
X0171400Y0057150D01*
X0172448Y0057584D01*
X0173249Y0058386D01*
X0173683Y0059433D01*
X0173683Y0060567D01*
X0173249Y0061614D01*
X0172448Y0062416D01*
X0171400Y0062850D01*
X0170266Y0062850D01*
X0169219Y0062416D01*
X0168417Y0061614D01*
X0167983Y0060567D01*
X0167983Y0059433D01*
X0168417Y0058386D01*
X0169219Y0057584D01*
X0168609Y0058194D02*
X0167833Y0058194D01*
X0167833Y0058993D02*
X0168166Y0058993D01*
X0167983Y0059791D02*
X0167833Y0059791D01*
X0167833Y0060590D02*
X0167993Y0060590D01*
X0167833Y0061388D02*
X0168323Y0061388D01*
X0167833Y0062187D02*
X0168989Y0062187D01*
X0167833Y0062985D02*
X0252377Y0062985D01*
X0251579Y0062187D02*
X0172677Y0062187D01*
X0173343Y0061388D02*
X0251324Y0061388D01*
X0251324Y0060590D02*
X0173674Y0060590D01*
X0173683Y0059791D02*
X0251324Y0059791D01*
X0251324Y0058993D02*
X0173501Y0058993D01*
X0173058Y0058194D02*
X0250389Y0058194D01*
X0249923Y0057396D02*
X0171993Y0057396D01*
X0167833Y0063784D02*
X0263833Y0063784D01*
X0263833Y0064582D02*
X0228385Y0064582D01*
X0229184Y0065381D02*
X0263833Y0065381D01*
X0263833Y0066179D02*
X0229982Y0066179D01*
X0230781Y0066978D02*
X0263833Y0066978D01*
X0263833Y0067776D02*
X0231433Y0067776D01*
X0231433Y0068575D02*
X0263833Y0068575D01*
X0263833Y0069373D02*
X0231433Y0069373D01*
X0231433Y0070172D02*
X0259189Y0070172D01*
X0260433Y0070172D02*
X0261233Y0070172D01*
X0261233Y0070970D02*
X0260433Y0070970D01*
X0260433Y0071769D02*
X0261233Y0071769D01*
X0261233Y0072567D02*
X0260433Y0072567D01*
X0260433Y0073366D02*
X0261233Y0073366D01*
X0261233Y0074164D02*
X0260433Y0074164D01*
X0260433Y0074963D02*
X0239433Y0074963D01*
X0239983Y0075761D02*
X0255790Y0075761D01*
X0255978Y0076560D02*
X0239983Y0076560D01*
X0239983Y0077358D02*
X0256311Y0077358D01*
X0256823Y0078157D02*
X0239821Y0078157D01*
X0237558Y0078157D02*
X0237108Y0078157D01*
X0237108Y0077358D02*
X0237558Y0077358D01*
X0239983Y0074164D02*
X0255802Y0074164D01*
X0256002Y0073366D02*
X0239983Y0073366D01*
X0239983Y0072567D02*
X0256349Y0072567D01*
X0256877Y0071769D02*
X0239778Y0071769D01*
X0237558Y0071769D02*
X0237108Y0071769D01*
X0237108Y0072567D02*
X0237558Y0072567D01*
X0235316Y0070970D02*
X0257703Y0070970D01*
X0262477Y0070172D02*
X0263833Y0070172D01*
X0263833Y0062985D02*
X0259576Y0062985D01*
X0259457Y0063104D02*
X0259457Y0063104D01*
X0259457Y0063104D01*
X0260374Y0062187D02*
X0263833Y0062187D01*
X0262666Y0061388D02*
X0262398Y0061388D01*
X0260629Y0061932D02*
X0260629Y0061932D01*
X0259329Y0060403D02*
X0258629Y0061104D01*
X0257228Y0061104D01*
X0256527Y0060403D01*
X0259329Y0057601D01*
X0258629Y0056900D01*
X0257228Y0056900D01*
X0256527Y0057601D01*
X0256527Y0060403D01*
X0254725Y0059702D02*
X0253324Y0061104D01*
X0253324Y0056900D01*
X0254725Y0056900D02*
X0251923Y0056900D01*
X0259329Y0057601D02*
X0259329Y0060403D01*
X0261131Y0059702D02*
X0262532Y0056900D01*
X0263933Y0059702D01*
X0258056Y0063104D02*
X0258056Y0063104D01*
X0256399Y0063104D02*
X0256399Y0063104D01*
X0256281Y0062985D02*
X0254271Y0062985D01*
X0255070Y0062187D02*
X0255482Y0062187D01*
X0227233Y0069370D02*
X0226463Y0068600D01*
X0197203Y0068600D01*
X0196433Y0069370D01*
X0196433Y0070900D01*
X0200246Y0070900D01*
X0200542Y0071196D01*
X0200543Y0071195D01*
X0200899Y0071100D01*
X0202108Y0071100D01*
X0202108Y0072900D01*
X0202558Y0072900D01*
X0202558Y0071100D01*
X0203768Y0071100D01*
X0204124Y0071195D01*
X0204443Y0071380D01*
X0204704Y0071640D01*
X0204888Y0071960D01*
X0204983Y0072316D01*
X0204983Y0074775D01*
X0204433Y0074775D01*
X0204433Y0075225D01*
X0204983Y0075225D01*
X0204983Y0077684D01*
X0204888Y0078040D01*
X0204704Y0078360D01*
X0204443Y0078620D01*
X0204124Y0078805D01*
X0203768Y0078900D01*
X0202558Y0078900D01*
X0202558Y0077100D01*
X0202108Y0077100D01*
X0202108Y0078900D01*
X0200899Y0078900D01*
X0200543Y0078805D01*
X0200542Y0078804D01*
X0200433Y0078913D01*
X0200433Y0085630D01*
X0205753Y0090950D01*
X0206440Y0090950D01*
X0207561Y0091414D01*
X0207755Y0091608D01*
X0212463Y0086900D01*
X0215733Y0086900D01*
X0215733Y0083213D01*
X0215248Y0082728D01*
X0214783Y0081607D01*
X0214783Y0080393D01*
X0215248Y0079272D01*
X0216106Y0078414D01*
X0217227Y0077950D01*
X0218440Y0077950D01*
X0219561Y0078414D01*
X0220419Y0079272D01*
X0220883Y0080393D01*
X0220883Y0081607D01*
X0220419Y0082728D01*
X0219933Y0083213D01*
X0219933Y0086900D01*
X0225963Y0086900D01*
X0230963Y0081900D01*
X0232263Y0081900D01*
X0232233Y0081870D01*
X0231233Y0080870D01*
X0231233Y0079100D01*
X0227421Y0079100D01*
X0226483Y0078163D01*
X0226483Y0071837D01*
X0227233Y0071087D01*
X0227233Y0069370D01*
X0227233Y0069373D02*
X0196433Y0069373D01*
X0196433Y0070172D02*
X0227233Y0070172D01*
X0227233Y0070970D02*
X0200316Y0070970D01*
X0202108Y0071769D02*
X0202558Y0071769D01*
X0202558Y0072567D02*
X0202108Y0072567D01*
X0204778Y0071769D02*
X0226552Y0071769D01*
X0226483Y0072567D02*
X0204983Y0072567D01*
X0204983Y0073366D02*
X0226483Y0073366D01*
X0226483Y0074164D02*
X0204983Y0074164D01*
X0204433Y0074963D02*
X0226483Y0074963D01*
X0226483Y0075761D02*
X0204983Y0075761D01*
X0204983Y0076560D02*
X0226483Y0076560D01*
X0226483Y0077358D02*
X0204983Y0077358D01*
X0204821Y0078157D02*
X0216727Y0078157D01*
X0215565Y0078955D02*
X0200433Y0078955D01*
X0200433Y0079754D02*
X0215048Y0079754D01*
X0214783Y0080552D02*
X0200433Y0080552D01*
X0200433Y0081351D02*
X0214783Y0081351D01*
X0215008Y0082149D02*
X0200433Y0082149D01*
X0200433Y0082948D02*
X0215468Y0082948D01*
X0215733Y0083746D02*
X0200433Y0083746D01*
X0200433Y0084545D02*
X0215733Y0084545D01*
X0215733Y0085343D02*
X0200433Y0085343D01*
X0200945Y0086142D02*
X0215733Y0086142D01*
X0212423Y0086940D02*
X0201744Y0086940D01*
X0202542Y0087739D02*
X0211625Y0087739D01*
X0210826Y0088537D02*
X0203341Y0088537D01*
X0204139Y0089336D02*
X0210027Y0089336D01*
X0209229Y0090134D02*
X0204938Y0090134D01*
X0205736Y0090933D02*
X0208430Y0090933D01*
X0211176Y0094127D02*
X0219499Y0094127D01*
X0219283Y0093329D02*
X0211975Y0093329D01*
X0212773Y0092530D02*
X0219283Y0092530D01*
X0219557Y0091732D02*
X0213572Y0091732D01*
X0210933Y0094926D02*
X0219946Y0094926D01*
X0220940Y0095724D02*
X0210933Y0095724D01*
X0210781Y0096523D02*
X0246341Y0096523D01*
X0245542Y0097321D02*
X0235336Y0097321D01*
X0232331Y0097321D02*
X0209982Y0097321D01*
X0202783Y0094127D02*
X0177930Y0094127D01*
X0177132Y0093329D02*
X0202192Y0093329D01*
X0201394Y0092530D02*
X0175547Y0092530D01*
X0175060Y0091732D02*
X0200595Y0091732D01*
X0199796Y0090933D02*
X0174262Y0090933D01*
X0172937Y0090134D02*
X0198998Y0090134D01*
X0198199Y0089336D02*
X0173993Y0089336D01*
X0174791Y0088537D02*
X0197401Y0088537D01*
X0196602Y0087739D02*
X0191691Y0087739D01*
X0192863Y0086940D02*
X0196233Y0086940D01*
X0196233Y0086142D02*
X0193661Y0086142D01*
X0194460Y0085343D02*
X0196233Y0085343D01*
X0196233Y0084545D02*
X0195258Y0084545D01*
X0196057Y0083746D02*
X0196233Y0083746D01*
X0192233Y0081351D02*
X0174680Y0081351D01*
X0175389Y0082149D02*
X0189245Y0082149D01*
X0188072Y0082948D02*
X0175720Y0082948D01*
X0176051Y0083746D02*
X0187551Y0083746D01*
X0187283Y0084545D02*
X0176133Y0084545D01*
X0176133Y0085343D02*
X0187283Y0085343D01*
X0187505Y0086142D02*
X0176097Y0086142D01*
X0175766Y0086940D02*
X0187960Y0086940D01*
X0188976Y0087739D02*
X0175435Y0087739D01*
X0173881Y0080552D02*
X0192233Y0080552D01*
X0192233Y0079754D02*
X0172706Y0079754D01*
X0174066Y0078955D02*
X0192233Y0078955D01*
X0191483Y0078157D02*
X0174844Y0078157D01*
X0175356Y0077358D02*
X0191483Y0077358D01*
X0191483Y0076560D02*
X0175689Y0076560D01*
X0175876Y0075761D02*
X0191483Y0075761D01*
X0191483Y0074963D02*
X0171233Y0074963D01*
X0171233Y0074164D02*
X0170433Y0074164D01*
X0170433Y0073366D02*
X0171233Y0073366D01*
X0171233Y0072567D02*
X0170433Y0072567D01*
X0170433Y0071769D02*
X0171233Y0071769D01*
X0171233Y0070970D02*
X0170433Y0070970D01*
X0170433Y0070172D02*
X0171233Y0070172D01*
X0172477Y0070172D02*
X0192233Y0070172D01*
X0192233Y0070970D02*
X0173963Y0070970D01*
X0174790Y0071769D02*
X0191552Y0071769D01*
X0191483Y0072567D02*
X0175318Y0072567D01*
X0175665Y0073366D02*
X0191483Y0073366D01*
X0191483Y0074164D02*
X0175865Y0074164D01*
X0169189Y0070172D02*
X0167833Y0070172D01*
X0167833Y0069373D02*
X0192233Y0069373D01*
X0192233Y0068575D02*
X0167833Y0068575D01*
X0167833Y0067776D02*
X0192233Y0067776D01*
X0192886Y0066978D02*
X0167833Y0066978D01*
X0167833Y0066179D02*
X0193684Y0066179D01*
X0194483Y0065381D02*
X0167833Y0065381D01*
X0167833Y0064582D02*
X0195281Y0064582D01*
X0202108Y0077358D02*
X0202558Y0077358D01*
X0202558Y0078157D02*
X0202108Y0078157D01*
X0191714Y0082149D02*
X0191421Y0082149D01*
X0200438Y0094926D02*
X0178729Y0094926D01*
X0179527Y0095724D02*
X0199639Y0095724D01*
X0198841Y0096523D02*
X0180326Y0096523D01*
X0181124Y0097321D02*
X0198042Y0097321D01*
X0197244Y0098120D02*
X0181923Y0098120D01*
X0182721Y0098918D02*
X0196445Y0098918D01*
X0195733Y0099717D02*
X0183520Y0099717D01*
X0184318Y0100515D02*
X0195733Y0100515D01*
X0195733Y0101314D02*
X0185117Y0101314D01*
X0185915Y0102112D02*
X0195733Y0102112D01*
X0195733Y0102911D02*
X0186714Y0102911D01*
X0187512Y0103709D02*
X0195733Y0103709D01*
X0195733Y0104508D02*
X0188311Y0104508D01*
X0189109Y0105306D02*
X0195733Y0105306D01*
X0195733Y0106105D02*
X0189908Y0106105D01*
X0190706Y0106903D02*
X0195733Y0106903D01*
X0195733Y0107702D02*
X0191505Y0107702D01*
X0192303Y0108500D02*
X0196364Y0108500D01*
X0197162Y0109299D02*
X0193102Y0109299D01*
X0193900Y0110097D02*
X0197961Y0110097D01*
X0198759Y0110896D02*
X0194699Y0110896D01*
X0195497Y0111694D02*
X0199558Y0111694D01*
X0199783Y0112493D02*
X0196296Y0112493D01*
X0197095Y0113291D02*
X0200067Y0113291D01*
X0200610Y0114090D02*
X0197893Y0114090D01*
X0198692Y0114888D02*
X0201836Y0114888D01*
X0203802Y0114900D02*
X0206620Y0114900D01*
X0207106Y0114414D01*
X0208227Y0113950D01*
X0209440Y0113950D01*
X0210561Y0114414D01*
X0211419Y0115272D01*
X0211883Y0116393D01*
X0211883Y0117607D01*
X0211419Y0118728D01*
X0210561Y0119586D01*
X0209440Y0120050D01*
X0208227Y0120050D01*
X0207106Y0119586D01*
X0206620Y0119100D01*
X0196963Y0119100D01*
X0195733Y0117870D01*
X0175484Y0097621D01*
X0175326Y0098002D01*
X0173836Y0099493D01*
X0172612Y0100000D01*
X0173836Y0100507D01*
X0175326Y0101998D01*
X0176133Y0103946D01*
X0176133Y0106054D01*
X0175326Y0108002D01*
X0173836Y0109493D01*
X0172612Y0110000D01*
X0173836Y0110507D01*
X0175326Y0111998D01*
X0176133Y0113946D01*
X0176133Y0116054D01*
X0175326Y0118002D01*
X0173836Y0119493D01*
X0172612Y0120000D01*
X0173836Y0120507D01*
X0175326Y0121998D01*
X0175700Y0122900D01*
X0210463Y0122900D01*
X0214783Y0118580D01*
X0214783Y0117893D01*
X0215248Y0116772D01*
X0216106Y0115914D01*
X0217227Y0115450D01*
X0218440Y0115450D01*
X0219561Y0115914D01*
X0220419Y0116772D01*
X0220883Y0117893D01*
X0220883Y0119107D01*
X0220741Y0119450D01*
X0220940Y0119450D01*
X0222061Y0119914D01*
X0222919Y0120772D01*
X0223383Y0121893D01*
X0223383Y0123107D01*
X0222919Y0124228D01*
X0222061Y0125086D01*
X0221133Y0125470D01*
X0221133Y0131087D01*
X0221883Y0131837D01*
X0221883Y0138163D01*
X0220946Y0139100D01*
X0219191Y0139100D01*
X0219783Y0139692D01*
X0219783Y0140937D01*
X0220683Y0141837D01*
X0220683Y0142180D01*
X0222783Y0140080D01*
X0222783Y0139393D01*
X0223248Y0138272D01*
X0224106Y0137414D01*
X0225227Y0136950D01*
X0226440Y0136950D01*
X0227561Y0137414D01*
X0228419Y0138272D01*
X0228883Y0139393D01*
X0228883Y0140607D01*
X0228419Y0141728D01*
X0227561Y0142586D01*
X0226440Y0143050D01*
X0225753Y0143050D01*
X0222933Y0145870D01*
X0221703Y0147100D01*
X0220683Y0147100D01*
X0220683Y0148163D01*
X0219746Y0149100D01*
X0215921Y0149100D01*
X0215833Y0149013D01*
X0215746Y0149100D01*
X0211921Y0149100D01*
X0210983Y0148163D01*
X0210983Y0142100D01*
X0194963Y0142100D01*
X0184963Y0132100D01*
X0183733Y0130870D01*
X0183733Y0127100D01*
X0175700Y0127100D01*
X0175326Y0128002D01*
X0173836Y0129493D01*
X0171888Y0130300D01*
X0169779Y0130300D01*
X0167833Y0129494D01*
X0167833Y0140256D01*
X0168599Y0138930D01*
X0171112Y0136822D01*
X0171112Y0136822D01*
X0174193Y0135700D01*
X0177473Y0135700D01*
X0180555Y0136822D01*
X0183067Y0138930D01*
X0184707Y0141770D01*
X0184707Y0141770D01*
X0185277Y0145000D01*
X0184707Y0148230D01*
X0183067Y0151070D01*
X0180767Y0153000D01*
X0250899Y0153000D01*
X0248599Y0151070D01*
X0246959Y0148230D01*
X0246390Y0145000D01*
X0246959Y0141770D01*
X0248599Y0138930D01*
X0251112Y0136822D01*
X0254193Y0135700D01*
X0257473Y0135700D01*
X0258139Y0135942D01*
X0257983Y0135567D01*
X0257983Y0134433D01*
X0258417Y0133386D01*
X0259219Y0132584D01*
X0260266Y0132150D01*
X0261400Y0132150D01*
X0262448Y0132584D01*
X0263249Y0133386D01*
X0263683Y0134433D01*
X0263683Y0135567D01*
X0263249Y0136614D01*
X0262448Y0137416D01*
X0261655Y0137745D01*
X0263067Y0138930D01*
X0263833Y0140256D01*
X0263833Y0129494D01*
X0261888Y0130300D01*
X0259779Y0130300D01*
X0257831Y0129493D01*
X0256340Y0128002D01*
X0255966Y0127100D01*
X0235963Y0127100D01*
X0234733Y0125870D01*
X0214963Y0106100D01*
X0202526Y0106100D01*
X0201440Y0106550D01*
X0200353Y0106550D01*
X0202753Y0108950D01*
X0203440Y0108950D01*
X0204561Y0109414D01*
X0205419Y0110272D01*
X0205883Y0111393D01*
X0205883Y0112607D01*
X0205419Y0113728D01*
X0204561Y0114586D01*
X0203802Y0114900D01*
X0203830Y0114888D02*
X0206632Y0114888D01*
X0207889Y0114090D02*
X0205057Y0114090D01*
X0205600Y0113291D02*
X0222155Y0113291D01*
X0221356Y0112493D02*
X0205883Y0112493D01*
X0205883Y0111694D02*
X0220558Y0111694D01*
X0219759Y0110896D02*
X0205677Y0110896D01*
X0205244Y0110097D02*
X0218961Y0110097D01*
X0218162Y0109299D02*
X0204282Y0109299D01*
X0202303Y0108500D02*
X0217364Y0108500D01*
X0216565Y0107702D02*
X0201505Y0107702D01*
X0200706Y0106903D02*
X0215767Y0106903D01*
X0214968Y0106105D02*
X0202515Y0106105D01*
X0189558Y0111694D02*
X0175023Y0111694D01*
X0175531Y0112493D02*
X0190356Y0112493D01*
X0191155Y0113291D02*
X0175862Y0113291D01*
X0176133Y0114090D02*
X0191953Y0114090D01*
X0192752Y0114888D02*
X0176133Y0114888D01*
X0176133Y0115687D02*
X0193550Y0115687D01*
X0194349Y0116485D02*
X0175955Y0116485D01*
X0175624Y0117284D02*
X0195147Y0117284D01*
X0195946Y0118082D02*
X0175246Y0118082D01*
X0174448Y0118881D02*
X0196744Y0118881D01*
X0207332Y0119679D02*
X0173386Y0119679D01*
X0173766Y0120478D02*
X0212886Y0120478D01*
X0213684Y0119679D02*
X0210335Y0119679D01*
X0211266Y0118881D02*
X0214483Y0118881D01*
X0214783Y0118082D02*
X0211686Y0118082D01*
X0211883Y0117284D02*
X0215036Y0117284D01*
X0215535Y0116485D02*
X0211883Y0116485D01*
X0211591Y0115687D02*
X0216655Y0115687D01*
X0219012Y0115687D02*
X0224550Y0115687D01*
X0223752Y0114888D02*
X0211035Y0114888D01*
X0209778Y0114090D02*
X0222953Y0114090D01*
X0225699Y0110896D02*
X0227903Y0110896D01*
X0227783Y0110607D02*
X0228248Y0111728D01*
X0229106Y0112586D01*
X0230227Y0113050D01*
X0230913Y0113050D01*
X0234963Y0117100D01*
X0255966Y0117100D01*
X0256340Y0118002D01*
X0257831Y0119493D01*
X0259055Y0120000D01*
X0257831Y0120507D01*
X0256340Y0121998D01*
X0255966Y0122900D01*
X0237703Y0122900D01*
X0217933Y0103130D01*
X0216903Y0102100D01*
X0231620Y0102100D01*
X0232106Y0102586D01*
X0233227Y0103050D01*
X0234440Y0103050D01*
X0235561Y0102586D01*
X0236047Y0102100D01*
X0239733Y0102100D01*
X0239733Y0108787D01*
X0239248Y0109272D01*
X0238783Y0110393D01*
X0238783Y0111607D01*
X0239248Y0112728D01*
X0239420Y0112900D01*
X0236703Y0112900D01*
X0233883Y0110080D01*
X0233883Y0109393D01*
X0233419Y0108272D01*
X0232561Y0107414D01*
X0231440Y0106950D01*
X0230227Y0106950D01*
X0229106Y0107414D01*
X0228248Y0108272D01*
X0227783Y0109393D01*
X0227783Y0110607D01*
X0227783Y0110097D02*
X0224900Y0110097D01*
X0224102Y0109299D02*
X0227822Y0109299D01*
X0228153Y0108500D02*
X0223303Y0108500D01*
X0222505Y0107702D02*
X0228818Y0107702D01*
X0232848Y0107702D02*
X0239733Y0107702D01*
X0239733Y0108500D02*
X0233513Y0108500D01*
X0233844Y0109299D02*
X0239237Y0109299D01*
X0238906Y0110097D02*
X0233900Y0110097D01*
X0234699Y0110896D02*
X0238783Y0110896D01*
X0238820Y0111694D02*
X0235497Y0111694D01*
X0236296Y0112493D02*
X0239150Y0112493D01*
X0244247Y0112900D02*
X0255966Y0112900D01*
X0256340Y0111998D01*
X0257831Y0110507D01*
X0259055Y0110000D01*
X0257831Y0109493D01*
X0256340Y0108002D01*
X0255533Y0106054D01*
X0255533Y0103946D01*
X0256340Y0101998D01*
X0257831Y0100507D01*
X0259055Y0100000D01*
X0257831Y0099493D01*
X0256340Y0098002D01*
X0255533Y0096054D01*
X0255533Y0093946D01*
X0256011Y0092792D01*
X0247933Y0100870D01*
X0246703Y0102100D01*
X0243933Y0102100D01*
X0243933Y0108787D01*
X0244419Y0109272D01*
X0244883Y0110393D01*
X0244883Y0111607D01*
X0244419Y0112728D01*
X0244247Y0112900D01*
X0244516Y0112493D02*
X0256135Y0112493D01*
X0256644Y0111694D02*
X0244847Y0111694D01*
X0244883Y0110896D02*
X0257442Y0110896D01*
X0258820Y0110097D02*
X0244761Y0110097D01*
X0244430Y0109299D02*
X0257637Y0109299D01*
X0256838Y0108500D02*
X0243933Y0108500D01*
X0243933Y0107702D02*
X0256216Y0107702D01*
X0255885Y0106903D02*
X0243933Y0106903D01*
X0243933Y0106105D02*
X0255554Y0106105D01*
X0255533Y0105306D02*
X0243933Y0105306D01*
X0243933Y0104508D02*
X0255533Y0104508D01*
X0255631Y0103709D02*
X0243933Y0103709D01*
X0243933Y0102911D02*
X0255962Y0102911D01*
X0256293Y0102112D02*
X0243933Y0102112D01*
X0247490Y0101314D02*
X0257024Y0101314D01*
X0257823Y0100515D02*
X0248288Y0100515D01*
X0249087Y0099717D02*
X0258371Y0099717D01*
X0257256Y0098918D02*
X0249885Y0098918D01*
X0250684Y0098120D02*
X0256458Y0098120D01*
X0256058Y0097321D02*
X0251482Y0097321D01*
X0252281Y0096523D02*
X0255727Y0096523D01*
X0255533Y0095724D02*
X0253079Y0095724D01*
X0253878Y0094926D02*
X0255533Y0094926D01*
X0255533Y0094127D02*
X0254676Y0094127D01*
X0255475Y0093329D02*
X0255789Y0093329D01*
X0251930Y0090933D02*
X0247870Y0090933D01*
X0247072Y0091732D02*
X0251132Y0091732D01*
X0250333Y0092530D02*
X0246273Y0092530D01*
X0245475Y0093329D02*
X0249535Y0093329D01*
X0248736Y0094127D02*
X0244676Y0094127D01*
X0243878Y0094926D02*
X0247938Y0094926D01*
X0247139Y0095724D02*
X0223727Y0095724D01*
X0216915Y0102112D02*
X0231632Y0102112D01*
X0232890Y0102911D02*
X0217714Y0102911D01*
X0218512Y0103709D02*
X0239733Y0103709D01*
X0239733Y0102911D02*
X0234776Y0102911D01*
X0236034Y0102112D02*
X0239733Y0102112D01*
X0239733Y0104508D02*
X0219311Y0104508D01*
X0220109Y0105306D02*
X0239733Y0105306D01*
X0239733Y0106105D02*
X0220908Y0106105D01*
X0221706Y0106903D02*
X0239733Y0106903D01*
X0228234Y0111694D02*
X0226497Y0111694D01*
X0227296Y0112493D02*
X0229013Y0112493D01*
X0228095Y0113291D02*
X0231155Y0113291D01*
X0231953Y0114090D02*
X0228893Y0114090D01*
X0229692Y0114888D02*
X0232752Y0114888D01*
X0233550Y0115687D02*
X0230490Y0115687D01*
X0231289Y0116485D02*
X0234349Y0116485D01*
X0232886Y0118082D02*
X0256420Y0118082D01*
X0256043Y0117284D02*
X0232087Y0117284D01*
X0233684Y0118881D02*
X0257219Y0118881D01*
X0258281Y0119679D02*
X0234483Y0119679D01*
X0235281Y0120478D02*
X0257901Y0120478D01*
X0257062Y0121276D02*
X0236080Y0121276D01*
X0236878Y0122075D02*
X0256308Y0122075D01*
X0255977Y0122873D02*
X0237677Y0122873D01*
X0234931Y0126068D02*
X0221133Y0126068D01*
X0221133Y0126866D02*
X0235730Y0126866D01*
X0234132Y0125269D02*
X0221618Y0125269D01*
X0222676Y0124470D02*
X0233334Y0124470D01*
X0232535Y0123672D02*
X0223149Y0123672D01*
X0223383Y0122873D02*
X0231737Y0122873D01*
X0230938Y0122075D02*
X0223383Y0122075D01*
X0223128Y0121276D02*
X0230140Y0121276D01*
X0229341Y0120478D02*
X0222625Y0120478D01*
X0221494Y0119679D02*
X0228543Y0119679D01*
X0227744Y0118881D02*
X0220883Y0118881D01*
X0220883Y0118082D02*
X0226946Y0118082D01*
X0226147Y0117284D02*
X0220631Y0117284D01*
X0220132Y0116485D02*
X0225349Y0116485D01*
X0212087Y0121276D02*
X0174605Y0121276D01*
X0175358Y0122075D02*
X0211289Y0122075D01*
X0210490Y0122873D02*
X0175689Y0122873D01*
X0175466Y0127665D02*
X0183733Y0127665D01*
X0183733Y0128463D02*
X0174866Y0128463D01*
X0174067Y0129262D02*
X0183733Y0129262D01*
X0183733Y0130060D02*
X0172467Y0130060D01*
X0169200Y0130060D02*
X0167833Y0130060D01*
X0167833Y0130859D02*
X0183733Y0130859D01*
X0184521Y0131657D02*
X0167833Y0131657D01*
X0167833Y0132456D02*
X0185319Y0132456D01*
X0186118Y0133254D02*
X0167833Y0133254D01*
X0167833Y0134053D02*
X0186916Y0134053D01*
X0187715Y0134851D02*
X0167833Y0134851D01*
X0167833Y0135650D02*
X0188513Y0135650D01*
X0189312Y0136448D02*
X0179529Y0136448D01*
X0180555Y0136822D02*
X0180555Y0136822D01*
X0181061Y0137247D02*
X0190110Y0137247D01*
X0190909Y0138045D02*
X0182013Y0138045D01*
X0182965Y0138844D02*
X0191707Y0138844D01*
X0192506Y0139642D02*
X0183479Y0139642D01*
X0183067Y0138930D02*
X0183067Y0138930D01*
X0183067Y0138930D01*
X0183940Y0140441D02*
X0193304Y0140441D01*
X0194103Y0141239D02*
X0184401Y0141239D01*
X0184754Y0142038D02*
X0194901Y0142038D01*
X0196703Y0137900D02*
X0187933Y0129130D01*
X0187933Y0127100D01*
X0189920Y0127100D01*
X0189748Y0127272D01*
X0189283Y0128393D01*
X0189283Y0129607D01*
X0189748Y0130728D01*
X0190606Y0131586D01*
X0191727Y0132050D01*
X0192940Y0132050D01*
X0194061Y0131586D01*
X0194547Y0131100D01*
X0201420Y0131100D01*
X0201248Y0131272D01*
X0200783Y0132393D01*
X0200783Y0133607D01*
X0201248Y0134728D01*
X0202106Y0135586D01*
X0203227Y0136050D01*
X0203913Y0136050D01*
X0204963Y0137100D01*
X0209783Y0137100D01*
X0209783Y0137900D01*
X0196703Y0137900D01*
X0196050Y0137247D02*
X0209783Y0137247D01*
X0211833Y0135000D02*
X0214833Y0135000D01*
X0216833Y0135000D02*
X0219833Y0135000D01*
X0221883Y0134851D02*
X0257983Y0134851D01*
X0258018Y0135650D02*
X0221883Y0135650D01*
X0221883Y0136448D02*
X0252138Y0136448D01*
X0251112Y0136822D02*
X0251112Y0136822D01*
X0250605Y0137247D02*
X0227156Y0137247D01*
X0228192Y0138045D02*
X0249654Y0138045D01*
X0248702Y0138844D02*
X0228656Y0138844D01*
X0228883Y0139642D02*
X0248188Y0139642D01*
X0248599Y0138930D02*
X0248599Y0138930D01*
X0247727Y0140441D02*
X0228883Y0140441D01*
X0228621Y0141239D02*
X0247266Y0141239D01*
X0246959Y0141770D02*
X0246959Y0141770D01*
X0246912Y0142038D02*
X0228109Y0142038D01*
X0226956Y0142836D02*
X0246771Y0142836D01*
X0246631Y0143635D02*
X0225168Y0143635D01*
X0224370Y0144433D02*
X0246490Y0144433D01*
X0246390Y0145000D02*
X0246390Y0145000D01*
X0246431Y0145232D02*
X0223571Y0145232D01*
X0222773Y0146030D02*
X0246572Y0146030D01*
X0246712Y0146829D02*
X0221974Y0146829D01*
X0220683Y0147627D02*
X0246853Y0147627D01*
X0246959Y0148230D02*
X0246959Y0148230D01*
X0247073Y0148426D02*
X0220420Y0148426D01*
X0211246Y0148426D02*
X0184594Y0148426D01*
X0184707Y0148230D02*
X0184707Y0148230D01*
X0184814Y0147627D02*
X0210983Y0147627D01*
X0210983Y0146829D02*
X0184954Y0146829D01*
X0185095Y0146030D02*
X0210983Y0146030D01*
X0210983Y0145232D02*
X0185236Y0145232D01*
X0185277Y0145000D02*
X0185277Y0145000D01*
X0185177Y0144433D02*
X0210983Y0144433D01*
X0210983Y0143635D02*
X0185036Y0143635D01*
X0184895Y0142836D02*
X0210983Y0142836D01*
X0219783Y0140441D02*
X0222423Y0140441D01*
X0222783Y0139642D02*
X0219733Y0139642D01*
X0220085Y0141239D02*
X0221624Y0141239D01*
X0220826Y0142038D02*
X0220683Y0142038D01*
X0221202Y0138844D02*
X0223011Y0138844D01*
X0223475Y0138045D02*
X0221883Y0138045D01*
X0221883Y0137247D02*
X0224510Y0137247D01*
X0221883Y0134053D02*
X0258141Y0134053D01*
X0258549Y0133254D02*
X0221883Y0133254D01*
X0221883Y0132456D02*
X0259529Y0132456D01*
X0262138Y0132456D02*
X0263833Y0132456D01*
X0263833Y0133254D02*
X0263118Y0133254D01*
X0263526Y0134053D02*
X0263833Y0134053D01*
X0263833Y0134851D02*
X0263683Y0134851D01*
X0263649Y0135650D02*
X0263833Y0135650D01*
X0263833Y0136448D02*
X0263318Y0136448D01*
X0263833Y0137247D02*
X0262617Y0137247D01*
X0262013Y0138045D02*
X0263833Y0138045D01*
X0263833Y0138844D02*
X0262965Y0138844D01*
X0263067Y0138930D02*
X0263067Y0138930D01*
X0263067Y0138930D01*
X0263479Y0139642D02*
X0263833Y0139642D01*
X0263833Y0131657D02*
X0221703Y0131657D01*
X0221133Y0130859D02*
X0263833Y0130859D01*
X0263833Y0130060D02*
X0262467Y0130060D01*
X0259200Y0130060D02*
X0221133Y0130060D01*
X0221133Y0129262D02*
X0257600Y0129262D01*
X0256801Y0128463D02*
X0221133Y0128463D01*
X0221133Y0127665D02*
X0256200Y0127665D01*
X0247534Y0149224D02*
X0184133Y0149224D01*
X0183672Y0150023D02*
X0247995Y0150023D01*
X0248456Y0150821D02*
X0183211Y0150821D01*
X0183067Y0151070D02*
X0183067Y0151070D01*
X0182412Y0151620D02*
X0249254Y0151620D01*
X0248599Y0151070D02*
X0248599Y0151070D01*
X0248599Y0151070D01*
X0250206Y0152418D02*
X0181461Y0152418D01*
X0168188Y0139642D02*
X0167833Y0139642D01*
X0167833Y0138844D02*
X0168702Y0138844D01*
X0168599Y0138930D02*
X0168599Y0138930D01*
X0167833Y0138045D02*
X0169654Y0138045D01*
X0170605Y0137247D02*
X0167833Y0137247D01*
X0167833Y0136448D02*
X0172138Y0136448D01*
X0188065Y0129262D02*
X0189283Y0129262D01*
X0189283Y0128463D02*
X0187933Y0128463D01*
X0187933Y0127665D02*
X0189585Y0127665D01*
X0189471Y0130060D02*
X0188863Y0130060D01*
X0189662Y0130859D02*
X0189879Y0130859D01*
X0190460Y0131657D02*
X0190778Y0131657D01*
X0191259Y0132456D02*
X0200783Y0132456D01*
X0200783Y0133254D02*
X0192057Y0133254D01*
X0192856Y0134053D02*
X0200968Y0134053D01*
X0201371Y0134851D02*
X0193654Y0134851D01*
X0194453Y0135650D02*
X0202260Y0135650D01*
X0204312Y0136448D02*
X0195251Y0136448D01*
X0193889Y0131657D02*
X0201088Y0131657D01*
X0188759Y0110896D02*
X0174224Y0110896D01*
X0172847Y0110097D02*
X0187961Y0110097D01*
X0187162Y0109299D02*
X0174030Y0109299D01*
X0174828Y0108500D02*
X0186364Y0108500D01*
X0185565Y0107702D02*
X0175451Y0107702D01*
X0175782Y0106903D02*
X0184767Y0106903D01*
X0183968Y0106105D02*
X0176112Y0106105D01*
X0176133Y0105306D02*
X0183170Y0105306D01*
X0182371Y0104508D02*
X0176133Y0104508D01*
X0176035Y0103709D02*
X0181573Y0103709D01*
X0180774Y0102911D02*
X0175705Y0102911D01*
X0175374Y0102112D02*
X0179976Y0102112D01*
X0179177Y0101314D02*
X0174642Y0101314D01*
X0173844Y0100515D02*
X0178379Y0100515D01*
X0177580Y0099717D02*
X0173296Y0099717D01*
X0174411Y0098918D02*
X0176782Y0098918D01*
X0175983Y0098120D02*
X0175209Y0098120D01*
X0218939Y0078157D02*
X0226483Y0078157D01*
X0227276Y0078955D02*
X0220102Y0078955D01*
X0220618Y0079754D02*
X0231233Y0079754D01*
X0231233Y0080552D02*
X0220883Y0080552D01*
X0220883Y0081351D02*
X0231714Y0081351D01*
X0230714Y0082149D02*
X0220659Y0082149D01*
X0220199Y0082948D02*
X0229916Y0082948D01*
X0229117Y0083746D02*
X0219933Y0083746D01*
X0219933Y0084545D02*
X0228319Y0084545D01*
X0227520Y0085343D02*
X0219933Y0085343D01*
X0219933Y0086142D02*
X0226722Y0086142D01*
X0248669Y0090134D02*
X0252729Y0090134D01*
X0253527Y0089336D02*
X0249467Y0089336D01*
X0250266Y0088537D02*
X0254326Y0088537D01*
X0255125Y0087739D02*
X0251064Y0087739D01*
X0251433Y0086940D02*
X0255900Y0086940D01*
X0255570Y0086142D02*
X0251433Y0086142D01*
X0251433Y0085343D02*
X0255533Y0085343D01*
X0255533Y0084545D02*
X0251433Y0084545D01*
X0251433Y0083746D02*
X0255616Y0083746D01*
X0255947Y0082948D02*
X0251433Y0082948D01*
X0251433Y0082149D02*
X0256277Y0082149D01*
X0256987Y0081351D02*
X0251433Y0081351D01*
X0250856Y0080552D02*
X0257786Y0080552D01*
X0258960Y0079754D02*
X0250057Y0079754D01*
X0249259Y0078955D02*
X0257601Y0078955D01*
D11*
X0260833Y0075000D03*
X0260833Y0085000D03*
X0260833Y0095000D03*
X0260833Y0105000D03*
X0260833Y0115000D03*
X0260833Y0125000D03*
X0170833Y0125000D03*
X0170833Y0115000D03*
X0170833Y0105000D03*
X0170833Y0095000D03*
X0170833Y0085000D03*
X0170833Y0075000D03*
D12*
X0194333Y0075000D03*
X0198333Y0075000D03*
X0202333Y0075000D03*
X0229333Y0075000D03*
X0233333Y0075000D03*
X0237333Y0075000D03*
X0219033Y0135000D03*
X0215833Y0135000D03*
X0212633Y0135000D03*
X0213833Y0145000D03*
X0217833Y0145000D03*
D13*
X0220833Y0145000D01*
X0225833Y0140000D01*
X0219033Y0135000D02*
X0219033Y0123800D01*
X0220333Y0122500D01*
X0217833Y0118500D02*
X0211333Y0125000D01*
X0185833Y0125000D01*
X0185833Y0130000D01*
X0195833Y0140000D01*
X0212333Y0140000D01*
X0213833Y0141500D01*
X0213833Y0145000D01*
X0217833Y0145000D01*
X0212633Y0135000D02*
X0205833Y0135000D01*
X0203833Y0133000D01*
X0213833Y0129000D02*
X0192333Y0129000D01*
X0185833Y0125000D02*
X0170833Y0125000D01*
X0197833Y0117000D02*
X0208833Y0117000D01*
X0197833Y0117000D02*
X0175833Y0095000D01*
X0170833Y0095000D01*
X0190333Y0085000D02*
X0191833Y0085000D01*
X0194333Y0082500D01*
X0194333Y0075000D01*
X0194333Y0068500D01*
X0196333Y0066500D01*
X0227333Y0066500D01*
X0229333Y0068500D01*
X0229333Y0075000D01*
X0233333Y0075000D02*
X0233333Y0080000D01*
X0234333Y0081000D01*
X0248333Y0081000D01*
X0249333Y0082000D01*
X0249333Y0086500D01*
X0242833Y0093000D01*
X0222333Y0093000D01*
X0217833Y0089000D02*
X0213333Y0089000D01*
X0208833Y0093500D01*
X0208833Y0095500D01*
X0207333Y0097000D01*
X0201333Y0097000D01*
X0197833Y0100500D01*
X0197833Y0107000D01*
X0202833Y0112000D01*
X0201333Y0104000D02*
X0200833Y0103500D01*
X0201333Y0104000D02*
X0215833Y0104000D01*
X0236833Y0125000D01*
X0260833Y0125000D01*
X0260833Y0115000D02*
X0235833Y0115000D01*
X0230833Y0110000D01*
X0241833Y0111000D02*
X0241833Y0100000D01*
X0233833Y0100000D01*
X0202833Y0100000D01*
X0205833Y0094000D02*
X0198333Y0086500D01*
X0198333Y0075000D01*
X0202333Y0075000D01*
X0217833Y0081000D02*
X0217833Y0089000D01*
X0226833Y0089000D01*
X0231833Y0084000D01*
X0243833Y0084000D01*
X0237833Y0075000D02*
X0237333Y0074500D01*
X0237333Y0075000D02*
X0237833Y0075000D01*
X0237333Y0075000D02*
X0233333Y0075000D01*
X0245833Y0100000D02*
X0260833Y0085000D01*
X0245833Y0100000D02*
X0241833Y0100000D01*
X0170833Y0075000D02*
X0170833Y0072500D01*
D14*
X0170833Y0060000D03*
X0260833Y0135000D03*
D15*
X0250833Y0130000D03*
X0225833Y0140000D03*
X0213833Y0129000D03*
X0203833Y0133000D03*
X0195833Y0135000D03*
X0192333Y0129000D03*
X0208833Y0117000D03*
X0217833Y0118500D03*
X0220333Y0122500D03*
X0202833Y0112000D03*
X0200833Y0103500D03*
X0202833Y0100000D03*
X0205833Y0094000D03*
X0209333Y0088500D03*
X0222333Y0093000D03*
X0233833Y0100000D03*
X0227833Y0103000D03*
X0230833Y0110000D03*
X0237833Y0109000D03*
X0241833Y0111000D03*
X0250833Y0110000D03*
X0243833Y0084000D03*
X0217833Y0081000D03*
X0207333Y0081000D03*
X0190333Y0085000D03*
D16*
X0215833Y0135000D02*
X0215833Y0138500D01*
X0217833Y0140500D01*
X0217833Y0145000D01*
M02*
